<mxfile host="app.diagrams.net" modified="2024-06-17T18:24:33.236Z" agent="Mozilla/5.0 (Windows NT 10.0; Win64; x64) AppleWebKit/537.36 (KHTML, like Gecko) Chrome/125.0.0.0 Safari/537.36" etag="Vw19bbe3kHFwXOdk-zR7" version="24.5.5" type="github">
  <diagram id="C5RBs43oDa-KdzZeNtuy" name="Page-1">
    <mxGraphModel dx="1083" dy="505" grid="1" gridSize="10" guides="1" tooltips="1" connect="1" arrows="1" fold="1" page="1" pageScale="1" pageWidth="827" pageHeight="1169" math="0" shadow="0">
      <root>
        <mxCell id="WIyWlLk6GJQsqaUBKTNV-0" />
        <mxCell id="WIyWlLk6GJQsqaUBKTNV-1" parent="WIyWlLk6GJQsqaUBKTNV-0" />
        <mxCell id="WIyWlLk6GJQsqaUBKTNV-2" value="" style="rounded=0;html=1;jettySize=auto;orthogonalLoop=1;fontSize=12;endArrow=classic;endFill=1;endSize=8;strokeWidth=1;shadow=0;labelBackgroundColor=none;edgeStyle=orthogonalEdgeStyle;" parent="WIyWlLk6GJQsqaUBKTNV-1" source="WIyWlLk6GJQsqaUBKTNV-3" target="WIyWlLk6GJQsqaUBKTNV-6" edge="1">
          <mxGeometry relative="1" as="geometry" />
        </mxCell>
        <mxCell id="WIyWlLk6GJQsqaUBKTNV-3" value="End-User" style="rounded=1;whiteSpace=wrap;html=1;fontSize=12;glass=0;strokeWidth=1;shadow=0;" parent="WIyWlLk6GJQsqaUBKTNV-1" vertex="1">
          <mxGeometry x="195" y="40" width="120" height="40" as="geometry" />
        </mxCell>
        <mxCell id="WIyWlLk6GJQsqaUBKTNV-4" value="Yes" style="rounded=0;html=1;jettySize=auto;orthogonalLoop=1;fontSize=12;endArrow=classic;endFill=1;endSize=8;strokeWidth=1;shadow=0;labelBackgroundColor=none;edgeStyle=orthogonalEdgeStyle;" parent="WIyWlLk6GJQsqaUBKTNV-1" source="WIyWlLk6GJQsqaUBKTNV-6" target="WIyWlLk6GJQsqaUBKTNV-10" edge="1">
          <mxGeometry x="0.1996" y="-25" relative="1" as="geometry">
            <mxPoint y="-1" as="offset" />
          </mxGeometry>
        </mxCell>
        <mxCell id="WIyWlLk6GJQsqaUBKTNV-5" value="No" style="edgeStyle=orthogonalEdgeStyle;rounded=0;html=1;jettySize=auto;orthogonalLoop=1;fontSize=12;endArrow=classic;endFill=1;endSize=8;strokeWidth=1;shadow=0;labelBackgroundColor=none;" parent="WIyWlLk6GJQsqaUBKTNV-1" source="WIyWlLk6GJQsqaUBKTNV-6" target="WIyWlLk6GJQsqaUBKTNV-7" edge="1">
          <mxGeometry y="25" relative="1" as="geometry">
            <mxPoint as="offset" />
          </mxGeometry>
        </mxCell>
        <mxCell id="WIyWlLk6GJQsqaUBKTNV-6" value="Registered" style="rhombus;whiteSpace=wrap;html=1;shadow=0;fontFamily=Helvetica;fontSize=12;align=center;strokeWidth=1;spacing=6;spacingTop=-4;" parent="WIyWlLk6GJQsqaUBKTNV-1" vertex="1">
          <mxGeometry x="200" y="120" width="110" height="90" as="geometry" />
        </mxCell>
        <mxCell id="WIyWlLk6GJQsqaUBKTNV-7" value="Sign Up" style="rounded=1;whiteSpace=wrap;html=1;fontSize=12;glass=0;strokeWidth=1;shadow=0;" parent="WIyWlLk6GJQsqaUBKTNV-1" vertex="1">
          <mxGeometry x="350" y="145" width="120" height="40" as="geometry" />
        </mxCell>
        <mxCell id="WIyWlLk6GJQsqaUBKTNV-8" value="Yes" style="rounded=0;html=1;jettySize=auto;orthogonalLoop=1;fontSize=12;endArrow=classic;endFill=1;endSize=8;strokeWidth=1;shadow=0;labelBackgroundColor=none;edgeStyle=orthogonalEdgeStyle;" parent="WIyWlLk6GJQsqaUBKTNV-1" source="WIyWlLk6GJQsqaUBKTNV-10" target="WIyWlLk6GJQsqaUBKTNV-11" edge="1">
          <mxGeometry y="15" relative="1" as="geometry">
            <mxPoint y="-1" as="offset" />
          </mxGeometry>
        </mxCell>
        <mxCell id="WIyWlLk6GJQsqaUBKTNV-10" value="Okta&lt;div style=&quot;font-size: 12px;&quot;&gt;Authentication&lt;/div&gt;" style="rhombus;whiteSpace=wrap;html=1;shadow=0;fontFamily=Helvetica;fontSize=12;align=center;strokeWidth=1;spacing=6;spacingTop=-4;" parent="WIyWlLk6GJQsqaUBKTNV-1" vertex="1">
          <mxGeometry x="200" y="240" width="110" height="90" as="geometry" />
        </mxCell>
        <mxCell id="WIyWlLk6GJQsqaUBKTNV-11" value="Login Successful" style="rounded=1;whiteSpace=wrap;html=1;fontSize=12;glass=0;strokeWidth=1;shadow=0;" parent="WIyWlLk6GJQsqaUBKTNV-1" vertex="1">
          <mxGeometry x="195" y="390" width="120" height="40" as="geometry" />
        </mxCell>
        <mxCell id="WIyWlLk6GJQsqaUBKTNV-12" value="Receive Okta&lt;br style=&quot;font-size: 12px;&quot;&gt;&lt;div style=&quot;font-size: 12px;&quot;&gt;Credentials&lt;/div&gt;" style="rounded=1;whiteSpace=wrap;html=1;fontSize=12;glass=0;strokeWidth=1;shadow=0;" parent="WIyWlLk6GJQsqaUBKTNV-1" vertex="1">
          <mxGeometry x="350" y="265" width="120" height="40" as="geometry" />
        </mxCell>
        <mxCell id="_KfjAwDsVdILywckYRa1-0" value="" style="endArrow=classic;html=1;rounded=0;exitX=0.5;exitY=1;exitDx=0;exitDy=0;entryX=0.5;entryY=0;entryDx=0;entryDy=0;endFill=1;fontSize=12;" edge="1" parent="WIyWlLk6GJQsqaUBKTNV-1" source="WIyWlLk6GJQsqaUBKTNV-7" target="WIyWlLk6GJQsqaUBKTNV-12">
          <mxGeometry width="50" height="50" relative="1" as="geometry">
            <mxPoint x="410" y="220" as="sourcePoint" />
            <mxPoint x="460" y="170" as="targetPoint" />
          </mxGeometry>
        </mxCell>
        <mxCell id="_KfjAwDsVdILywckYRa1-1" value="" style="endArrow=classic;html=1;rounded=0;exitX=0;exitY=0.5;exitDx=0;exitDy=0;entryX=1;entryY=0.5;entryDx=0;entryDy=0;endFill=1;fontSize=12;" edge="1" parent="WIyWlLk6GJQsqaUBKTNV-1" source="WIyWlLk6GJQsqaUBKTNV-12" target="WIyWlLk6GJQsqaUBKTNV-10">
          <mxGeometry width="50" height="50" relative="1" as="geometry">
            <mxPoint x="540" y="200" as="sourcePoint" />
            <mxPoint x="540" y="280" as="targetPoint" />
          </mxGeometry>
        </mxCell>
        <mxCell id="_KfjAwDsVdILywckYRa1-3" value="Login&amp;nbsp;Failure" style="rounded=1;whiteSpace=wrap;html=1;fontSize=12;glass=0;strokeWidth=1;shadow=0;" vertex="1" parent="WIyWlLk6GJQsqaUBKTNV-1">
          <mxGeometry x="40" y="265" width="120" height="40" as="geometry" />
        </mxCell>
        <mxCell id="_KfjAwDsVdILywckYRa1-6" value="No" style="rounded=0;html=1;jettySize=auto;orthogonalLoop=1;fontSize=12;endArrow=classic;endFill=1;endSize=8;strokeWidth=1;shadow=0;labelBackgroundColor=none;edgeStyle=orthogonalEdgeStyle;exitX=0;exitY=0.5;exitDx=0;exitDy=0;entryX=1;entryY=0.5;entryDx=0;entryDy=0;" edge="1" parent="WIyWlLk6GJQsqaUBKTNV-1" source="WIyWlLk6GJQsqaUBKTNV-10" target="_KfjAwDsVdILywckYRa1-3">
          <mxGeometry y="25" relative="1" as="geometry">
            <mxPoint as="offset" />
            <mxPoint x="195" y="340" as="sourcePoint" />
            <mxPoint x="195" y="400" as="targetPoint" />
          </mxGeometry>
        </mxCell>
        <mxCell id="_KfjAwDsVdILywckYRa1-7" value="View IDP Services" style="rounded=1;whiteSpace=wrap;html=1;fontSize=12;glass=0;strokeWidth=1;shadow=0;" vertex="1" parent="WIyWlLk6GJQsqaUBKTNV-1">
          <mxGeometry x="414" y="390" width="120" height="40" as="geometry" />
        </mxCell>
        <mxCell id="_KfjAwDsVdILywckYRa1-9" value="Yes" style="rounded=0;html=1;jettySize=auto;orthogonalLoop=1;fontSize=12;endArrow=classic;endFill=1;endSize=8;strokeWidth=1;shadow=0;labelBackgroundColor=none;edgeStyle=orthogonalEdgeStyle;entryX=0;entryY=0.5;entryDx=0;entryDy=0;exitX=1;exitY=0.5;exitDx=0;exitDy=0;" edge="1" parent="WIyWlLk6GJQsqaUBKTNV-1" source="WIyWlLk6GJQsqaUBKTNV-11" target="_KfjAwDsVdILywckYRa1-7">
          <mxGeometry x="0.027" y="10" relative="1" as="geometry">
            <mxPoint as="offset" />
            <mxPoint x="265" y="340" as="sourcePoint" />
            <mxPoint x="265" y="400" as="targetPoint" />
          </mxGeometry>
        </mxCell>
        <mxCell id="_KfjAwDsVdILywckYRa1-10" value="Classification" style="rounded=1;whiteSpace=wrap;html=1;fontSize=12;glass=0;strokeWidth=1;shadow=0;" vertex="1" parent="WIyWlLk6GJQsqaUBKTNV-1">
          <mxGeometry x="690" y="251.5" width="120" height="37" as="geometry" />
        </mxCell>
        <mxCell id="_KfjAwDsVdILywckYRa1-11" value="Extraction" style="rounded=1;whiteSpace=wrap;html=1;fontSize=12;glass=0;strokeWidth=1;shadow=0;" vertex="1" parent="WIyWlLk6GJQsqaUBKTNV-1">
          <mxGeometry x="690" y="316.5" width="120" height="37" as="geometry" />
        </mxCell>
        <mxCell id="_KfjAwDsVdILywckYRa1-19" value="" style="shape=image;verticalLabelPosition=bottom;labelBackgroundColor=default;verticalAlign=top;aspect=fixed;imageAspect=0;image=data:image/png,iVBORw0KGgoAAAANSUhEUgAAAc4AAAIcCAYAAAB/+E4JAAAAAXNSR0IArs4c6QAAIABJREFUeF7svQmcVNW1Ln6qh+qpummaeVQ0OOEsRkUN4JjEqFdUQKMZNDdOiJorIGgc4wAYkxvvfX8Tc2M0zz+DmGte4oADeNUYjSQhKE6AzFM33fQ8d9V736E/WCz3Gaqpgi7Y/ftBVZ2zzz777L32+ta31tr7RBz7Z3vA9oDtAdsDtgdsD4TugUjokrag7QHbA7YHbA/YHrA94FjgtEJge8D2gO0B2wO2B5LoAQucSXSWLWp7wPaA7QHbA7YHLHBaGbA9YHvA9oDtAdsDSfSABc4kOssWtT1ge8D2gO0B2wMWOK0M2B6wPWB7wPaA7YEkesACZxKdZYvaHrA9YHvA9oDtAQucVgZsD9gesD1ge8D2QBI9YIEzic6yRW0P2B6wPWB7wPaABU4rA7YHbA/YHrA9YHsgiR6wwJlEZ9mitgdsD9gesD1ge8ACp5UB2wO2B2wP2B6wPZBED1jgTKKzbFHbA7YHbA/YHrA9YIHTyoDtAdsDtgdsD9geSKIHLHAm0Vm2qO0B2wO2B2wP2B6wwGllwPaA6oFEIhH5+OOPc3H4qKOO6li5cmVOR0dHtKOjI7elpSU7Ozs7kpWVFWlqaopUV1dnNTc359TV1eW0tbVFWlpa3Nra29sjbW1t2VlZWdnt7e3ZkUgku6ioyMnJyclKJBJZra2tWaiDt47H44mmpqZ4S0tLpL6+PtLR0ZHIzs5O4BNlcnNznXg8HsnNzc2KRqORWCyWKCgocOvKyclxz+MzEonEc3NzOyKRSCuu27ZtG9raHolE2qLRaEdWVla8sLAwjvtlZ2fje0dBQUHT4MGDE3l5eWgUnqvj4IMPbnccB/W497d/tgdsD+zqAQucVhr2qx5YvHhxzpgxYyJVVVUF27Zti7a3t+fk5ORkA6ja2tqy6urqsqqrq7M3b94c3bhxY3FjY2Nea2trcXt7e2FTU1Mxvre1tcXa2tqKOjo68mMxfG0rwfHm5uY81AeAbG9vdzo6Opzs7OyseDye3dHRkeM4wK1IViTiTiuAWjbuDeDs6OjIzs3NTQAt0Q4AXnZ2tgOgzMrKcvAPIJVIuDi181g8Hsc51OvgHO4Zj8dxPf5wowjqcRycTuC/eHZ2NgCvDcAHoIzH420Az04gjANcI5FIB8rGYrH27OzsFrQLTUO5nJyc5ry8vKZoNNoUiUQaCgoK6tAJ8Xi8uaioqLKkpGR7bm5uY25ubnufPn1aCwoK4mgA6ho0aFBzz549O/A7Pz+/o6ioqKO1tbW9X79+rZ1t2q/kzT7MgdkDFjgPzHHPiKdevnx5dPv27XltbW15juPkFBYWtkFJJxKJ0i1btuTV1NTkl5eX5wHQ6uvry6qqqvo2NDQMqqur61VdXd2rpaWlsLW1NTcej7tgB2ABW8QfGCTAMi8vLz+RSERRJhKJ5IAhAgwBSI7jAJFwv2wAHcArJyfHBSoXyRzHASDjd+c1OA5Qc893FokA/DoBEZ9uO1AOjLLzPgkCI353AqI7RryOdeGQuMYFWP6BnXYiL8q4/zrvQUDega47QJZlXfYJEO28r9sWPDf+A16Cqba2tna0t7fHc3JyWuPxeEsikQD1bmppaWmMRCIAXxfwi4uLXdDMycnpyMnJqS8pKQHANuTk5NTk5ubWFhcXVw0cOHDDkCFDanAuFos19+/ff3uPHj2a+vXrB2a8g7LbP9sD3bgHLHB248HZn5uWSCRywQpbW1vzNm7cWLBs2bJYY2NjfnV1dWF9fX0fgF9TU1Pv5ubm/visrKwsBdNqa2vLaWxszM3Ly8tLJBIAvVy4UCORSF5WVlZuTk5O1PWBRiJwkwLkAFyunLt0cId7FOcBlCjjAh3ATf51sjcnLy/PPUfwI5AR1DpBFHW7IAcmirL43QlAu33vbMduoCjrZBt4DO5XsEz8wzEAJe7ZyVAB3Du/y2vZfh5jW7RMSeBlGcFsd96Pz4R743unKzmelZXlojWAFsfwD+fBegHGbW1tiZycHNct3N7e3g4ATiQSTdnZ2Q3RaLS+paWlOT8/vz0ej7cDVHv06LEVn2C1OFdYWFgTi8W2lpWVNRQXFzf27NmzORaLtcKtnJ2d3Txq1Kim/Xme2Gfrnj1ggbN7jktGtwpMsb6+Hq7NwqKiomhdXV1BRUVFcXl5ea/Kykr867d9+/YB9fX1vbdt29Y7KysrWltbm1dYWFiEazo6OvKys7MBgFEAXF5eHvyNbmwPoAeWl5+f77JAujUJLJ1szlX4UOAAsk6m6AKOBjecF67SnYBG4GO9/I1Pgg2+t7XBI+qC8m5gyPJsjwQwnEO9vLc8R0DkMT6HZJ4ERQnQbJcGYS/AZP00GAQjNvYHn4NtJ4jToCCg45kI7LKd7CM5JnD1xuNxuJXjra2tYLYJsNq2tjaw1fbGxsZ2uI+zs7Pr8S8SidRFIhG4kFvy8vKq8vPzK/r27btx8ODBG8vKyup69+7dPHDgwKYePXo09OrVaxvAtW/fvvUZPZls47tlD1jg7JbDkhmNevfdd8vAELdv315QWVkZq6qq6lVVVTWopqbmkKqqqkOqq6v7t7e3Iy6Y39HREYtEIvmRSATsMBfAmJub68YGOwEtJxqNurHATsbiJruAUeEPAIXfnQkwLgA2Nze756LRqHSFuiCGOnENkmbIKMkccY1kbgQrybQIFJ0uSE+GKAFFskwyUn5K4MP92CaCuWaykjHKe8i2SrCT3wlSZIdB0iRBn2BMY6IzprqbccD6JVjj/hgb9DnvK4/hGpxHvZI94zuO83nxG2UwpmTTYLHt7e1gqojZuv8AtojZtu4QkLaWlpZWuI+zsrLgGm6BG7igoGDd4MGDP+3du/fq7Ozs2t69e1f36dOnoUePHnXFxcUN+D58+HDrGg4SEHv+Sz1ggdMKhWcPgNFt3769uLKysnjlypVF5eXlheXl5T0rKiqGbNq06ej169cfnJ2dndfU1FTU1tZWEI/Hy7Kysoqj0SgYoxtb7Iz9IQDmukVxMyhHKl0cgu4jkwHQkWXxGBkjlTgBCmWRxQolS4XL+gmcBEkT8yJ4acAjMOCTjNVURoIjO5EAIF2tEjS1+5aMVd5TfpcgRFDTwKViqLu5dMko5X3lgEvGzeeR9RHkeX1nspI7XpLxov8xHjRw2G8ESpxnuwn+dG/T0ME1kskSbNmnEqhRFv/gSof8wB0MQMUfg7bZ2dlgrXAJNCUSCTDPWsRdc3Jy6kpLS+uzsrIqBgwY8GlJScmGfv36bTvssMOahg8fXjFw4MBmxFwjkcgOy8z+2R5QPWCB04oElFXWX/7yl9K1a9eWVFZWIpu0x+bNmw9bu3btydu3bx/c1NQUa25ujjU1NRUmEomCaDRaAMDMz88He4TLFADpfhIIyAwJgtKlR2VM4IJSjcViLoMkQ6TiBXDI42RCOEamQpAEgOIPbZCxSSpoCdgohzZ1LvPYGcOUAGkCPAmQ/M76JUtkOyWAEGwIIgRFr3uyjUGgTUZKFzLBkv1sEnE+m4xx+rl5WRcNFOmmxjjgOdGXBFD8pscAx/nsBEZ88hoYPyiDPzJwjG9+fr47ltLo0WOCca6vr3fL4hyBuzPj2b22qanJKSgoQBzWzTRua2tD5rDrCkamcHZ2dmN7e3tjNBpFolNjUVFRc69evdZ95Stf+efQoUM/LykpqR42bFjt8OHDq8rKymqsyrA9YIHzAJOBt99+u2d5eXlJRUVF0caNG/usX7/+sLq6uhFwqzY2NvYEaDqO09NxnOJOkMQyC7BFZJzCxer2mGRr/C0/yQ5kDI0KHuWosPkJhUfXHocE56BU6VZl/VLBE7TkMErXowYPeY7t8Ur8ke5PWYbPRkbsB0wEdxPgyv5KRgxNQKKvl8AoAV2CvewLjolMPJLjJcsSyPn8OkYsGSvLkJ1KV7tmobo/OLaUEYIujTHKTGdWs/toTKQii+U1rAtgTYDGdZ2/kd/kJijhsxPk2zs6Oprj8XhtIpGozc/Pr+3Ro0dNUVHRulgs9tmgQYM+GTx4cNXgwYNrS0pKajdv3lw7fvz4HbTa/u33PWCBcz8dYrC/lStX9ty0aVNs/fr1sbVr1w79/PPPR6xbt+7opqam0kQi0aO9vb1ndnZ2cU5OTmEuVtZnZeXF43Fkq2LNxs54lEmhUXlKBiFjV1RUdO3JpBeCLj4Z48I9qOxwDZkr45dU4sxilXXwu1TYHFawDRkXZBm2n8ks3EQAzIf/cC985yfawo0GWCeYMs7jepxnGbqcCRQswzgtASpI/KR7VpYlMNJ9Tdcl+g3/eJxAgmMwQuDWxD9m/+I7yuA8vvOTx5nMw3qlAYE2gOnxHhxrAhlZJvsE7ed90X8mo0IbMRKkNSNGWdQtY9fSMKAxoF3P0ghgm6WMs92MtcfjcTeOusOZ0YbMYMRS63Nzc8E+K0tLSzeXlpZ+1rt370/69++/vm/fvjVHHHFE9Zlnnrk9aHzt+czsAQucmTluu7V6yZIlPQoLCws3bdpU/Pnnn5d98cUXIzZu3HjYtm3bDkFMEov3c3NzexcXFxd2LtcAi8TaRfg23bijyU1HtiBZCJWUVHAEM5lYwms1wyNASiCV7lwJuKiXYCzvh+9U1nTJSeCC+w7/AF4lJSWucgfAYeeewsJC9xP/cByfKIfyVPDyenwncBL0pHtTPx/Zne5PUx+zL/xEUAKnVvj6HpJZ8pxMbpKgwrq8gJcbPBBMCbr4hDGCf/i+fft2F3AbGxvdfzjO7wRpfPJ6Glp8dgm26F9pGOmy7EPNPOVz+3kUCKT45HMzYUl6LgjWGoTpPemUbSyvwaYOWBYD929re3s74qaVkUikMhaLVfTr12/ZoEGDVh188MHrv/KVr9QecsghNYceemgV1r3uB2rngH4EC5wZOPybNm0q/PjjjwevWLFi4NKlS0euX7/+mKampl7Nzc3Y4cZlkdi4BdmrxcXFua2tre56RygJgg4mv8w4lS4tqVikm4zKmMxQsk4qQrJIqdSlK433JwDTFUtFRpDGJ4CMTBAgV1BQ4BQXFzu9evVy+vTp4/To0cP9jufAOf4DOOIfQI/MhrEzGf/jMQnWOouUwE2lbXLragCk8pZ9IpW+SdFrMTQZMiwjr5cg7gfEkqFLEJeJOrLdmoFxDGWsU3sLeA1AF+NKltrQ0ODU1dW5oAoQxe+qqiqnpqbGqa6udo/jO8oAdMmI0WZ8p/FA9k9Z5fhpGaVrH8+DNkhXsu579rP0WhBgyTy1MceYrc4OxnU5OTnuDkvI9s3Kymqurq7GLkzVkUikNhaLVQ0aNGhFv379Phs2bNiK4cOHbz344IO3HnHEEXUZqIYO6CZb4Ozmw//uu+8W9OrVq6iqqqrPkiVLhi5ZsuSUzZs3H11dXd23sbGxb1FRUSmWexQUFORGscCtpSUKJQDAAdggcUIqPTwulb8phiiBxSu5RLJOxol4T9RP9yeAC0oSCka66Mj08AkgBBsEMywrK3N69+7tAiKOAQgHDRq0kyWiPskMdGyN92EcSwOJVo4SzAgaEkg0UFHpsqwEGp7TwCqNDel25LXsbymGEjT1PUzgKFmu/q7bKttAWTABJuuRS0W0m1sCi55GkvmRqZPdaeOKvwFyAM7a2loXSPkd4Lpt27adYIvzAGa0B6CLcSfY4r4wuMi0ZUye480+0EaH6Rkk62V/MTbbCZQ7E5/wm2COZ4EcQoax21InIwXTbGtsbGxua2urKioqqurTp8+qAQMG/P3444//6LDDDts6ZMiQqsMPP3xbN1dLB3zzLHB2MxFYvHhxfmNjY79Vq1YN2LBhw+Fr1679akVFxdDq6urejuP0ysnJKUVGK9ZBRqPRfFi/dIVREWCy0uqn+4tMirE3ndkp40TSVUVrXx6TVjtjazjPeB66lOA4ZMgQFxT79u3r9OvXz2WKpaWlLjBCwYEZUtHRJUqAI7CzbTiu3WhQoDgm45gSrCSISiaiGaAGMAmSEnw0m2T9sl26jRIIJcOhIpYAbRJHzT69mKVumyznBa4EFsmq5PjKPtdszQtwJWPj9ThGBkojC/LCcWBbaeTR88AlKhxjjBMBFaAJwxBMtbKy0gVXgi6+w40sY7e4B70Y7HvpyqYMSeOHfc/20GNCWUX2Lw04yim9HPhEWzEXcI5rXHG8o6MDbt7m9vb2FoBqVlZWXXZ2dnkkEtk+dOjQj4844oi/jRgx4otTTjllLcC0m6mpA745Fjj3sQgsWbKkcOvWrX3WrVvXb8WKFUesWbNmVEVFxUHNzc2DOjo6yuLxeFFhIbZUzcMWcblcdwdFwjdxgIlhgmMyM7WfE56MAcdxLRQHrmVsULII6VKlxSwzGOk2A/giNgiAPuigg1zWCEAEOBIgAZIATCoRCdiMnxEg2R7Gu8hACHQa1DFkNAS4BEWDj35+PicVtVRyGhgl6yQweoGfZOUacKRoaZDxAj8NkibQ1GAjf+vvXILjJeY8r9vHPpDLaWiYSY+DyaiQIC0BUQKTHFPZNs3YuUaXHgu67snsAEpSHgiIACyAakVFhQumAFJ8J8DiO1itZL8EQ8ZZKX/SfS/jnAx90FDAJ4FeAi2+4zrKEg0Guro7l9B0RKPR1oaGBuwJDFaK9aabCwoKtgwYMODDwYMHv3fMMcdsHDZsWHmPHj3KR44cuWPLKvu3T3rAAuc+6PYVK1aUrFixYvBf//rXI5YuXXp+bW3twfX19f0TiURZTk5OUXZ2NuKTBQQdORmpyLjYnGvnAIwAM6boY6JyfR0nKlkhQRFKiZMZk5hxKdwXColxxZ49ezoDBgxw//Xv33/nPxzH/QGcAG8yCipvslFa5FRSksVSsVIhEej5W7rKpEImA9FKWg6nZDumYZbMVjMu6QamMpdKU7NKCViSVZpYmZ/IeQGldH3qfvCrzwTYmjlKo0MzbbpjpQtf9hVBQZ8ngGmDhr/l82hvBmWCHgdT8hkZHNeC0sDDtfSy0JikrBDYmOCEzy+++MJlplu3bt0JrPiNEAMTowiMTEDTwMfdrSR75/PjGHdAomxLY0XOBbQXDBbzuPN4S2trazO2GWxtba2Lx+MVxcXF6wcMGPDRIYcc8t6wYcPWDx06dMu5555r15buZT1ugXMvdfinn3468IMPPjj4gw8+OOmTTz45Y/v27UMcx+mfm5tbmpOTA9drIZWvVrxSKdDS5uRjHIWsTSoqHJOKjcsOAHBkd/gE8CG2CJY4cOBAZ+jQoS6TROIN3KpglnSpom24J+ugEpVtDupSWTYIKKTiNzE6L2BgG8iSvNigdNGa3K1+LFKCZRgwlM8qmZoGl2SA16vfeVzH8UyMVrdF1+nHgvW1lAcvwPR6VtM4m2QjaLy9xkH3PceaCWS4jrFSgCaYKRKY1q1b57LVDRs2uOAKt7BcqgOQI9BLgGbWNz0iUo5YnoCsjQ7pBVL90tLR0QHXLj6x1GVtv379VpaVlb07YsSIT88+++w1I0eOtPHRIAWUgvMWOFPQiV5VvP3220P/8pe/DFuxYsXoTz/99LTKyspB0Wi0Z2FhYSw3N7cAb/TgrjjSGqXVjGOYpARLMigyNzJSTnhMMrl7DsrBZYU/1AEGCSAEQCL2CPfqUUcdtfMYGCTXTdI9RZca3asEXLp15ZZxsh844XUM0KRopcGggUoqfpPSlIkapnEIUr5hgTvIMJD1mADSCwz9gIDj7QVCXm33Oi77R5fxYsbSsJAKn3Xp87Ktfv3AciYDQrZTj69XO7Uxxt+S2cp76nrwHAxfEExxDAajBFSC6Nq1a12GCjAFwCKBie5k3BvzCHF8hlPoptaGnOw/KfsshznLMAuOyYzeeDyOHY+a2tvba+PxeFVpaenKIUOGvHvEEUe8d9JJJ60955xztqZRvR3QVVvgTOHw/+Mf/yhdvnz5kKVLl2KjgVPKy8tH1NXVDY1EIr0AlPn5+QU5OTnYUHNnLIQxHGl1okkELG5FJlkiJz2TcTixufAd12PCAwgPPfRQFyi/8pWvOMOGDXNjkJjQZJB0A7NNdPVK9yotY6mECKTc6syLmWkFprtbuj+lYg4CKtYjY4wEYPlpYlxsaxCzQj16OYqp/Ro0/X7r600g5wWyYQBRPjsNML97SpZtAlaZ8CXHRwKPBD/dp17j6we8XmNven66Or2eUcegNWDTcKVxymekcSrLM74qwQ+gBoYKEF2/fr3LUMFO8Q8gq6+nG5njREMUfSj7iu1G/cxKRhnOO7qNmRzXyUSbsBTGcZyKkpKSL8rKyt477bTT/nzCCSesHzt27JoUqroDvioLnHsoAlgusmXLloPff//945YuXXrR9u3bD8nJyekXiURK8IqsWCzmZi9wIlDwaT2SVVCBETDp9mEyEJuJCc5dYBiXBBDC1Qr36vDhw12ABKMESAI8OfFQt47byMkqAcXESNhGuuNQhs+VDBhpgOOzeilxPrvpHiamIY9pxoJzdIV5tdlLCZsUut8xCTReYmZibMkAp3Zx7qE4f+lyEyOU95SJVKbxk9fLsnJMTSDsBaxaLuX8kaCn5UIbFPJBGZuUSUAsz/iqNiooQ7gGRqhMFEJZuHQRK/3kk09cUAVDBZiCmXL/XTw3wiTSOJPtxHmGWvicOE8dge9c4iPlCK9la2trw6b22Ki+Ojs7e23v3r2XnXbaaS+deuqpK8eMGbMxEolg717718UesMDZxY574YUXhnz22WdHvPXWW/9SV1eHbeyGZGdnl+Xm5ha2tbXlQtABaBB+rjHDJKCgk+FxwhGECERSuaMM17ihHNY5Ig4JcDzxxBNdwMRvZrGSRYKtwlVLxSRjJ2SUnITa2pUZkBpsmG2ITyZGSMvaxECkUtNKyEspSatfgzoVI4HRpChRL9+8IkFfA7epPXwGL8YSVmzCskQvsPa6D+sNAk4T0Hj1vxej83tWbfhxnDUASJmQbSZjpPEkk7I0EJtAXK/Z1XIil5uYno/sURqszIjF/eiB4RzAc0n5ZwIcznODBoIbjgFUUTfqAZhu2bLFWb16tbNq1SqnvLzcWbFiheuKRVl4b5ghz/vIurQXCOeYmSuBXrUVr2RramlpwcvDt+Xm5n5eWlr61xNOOOHNY489dtWll166Oaws23K7esACZxLS8M477xSvWbNmyJIlS0597733Li4vLz+sb9++vaPRaDH2eeVyD0wA7pLCScgEHyp6xicJZmwG3a4EMlwPoERG6+GHH+4cd9xxzmGHHeZmtjL7DtfC5YQJKGOPaA8mIieVVBzaFWwCL+k+pgLSLM2kuOUxeW9eK40C7QrVIC1jqCZ2p+8lFbd8pmTAXCt/fd9kwNArBsh+MbU/TP0SOE3lTcAqwYx9Q+8Bf8u6wrRNukpZ3suIMRksup3awKEBxzEhwPI3XcnyOtluZqGbZAHHKF/yPngmeoYQSiFQol6co9GL71yjqUMtUtbZZuly5fxDEhIye5cvX+5+gp0CYOWyM+kiZtIR2SgNF7JlzlNpkOB6nM/Kyko0NzfXtbS01Le2tlbm5+d/OHr06AWnn376sksuuWRVEqrwgC9qgTNABLDOct26dQf9z//8z9FLly79Vn19/TDHcYZFo9EeZWVlxVgrhsnHpBwCI104ZH+cSFIBSGsS5cCOUA5uVyTtIC55wgkn7FwKguxWTAjEVAiSKM/0eMZLqIwwieQ6RE4ynd6P4xLAqIQk65QAYHKtSeYqjQH5/KYyOgaplbvpvAZ5L6Wo65JjEAacNICagMcPtFBeKmRTu/3aEbaNfv2hgVvXKeN18vlMIOgHrl7lvWLMvJfcBEGOD+/llRwkvSiyn7XrWAOrHFPZZgngUr7pVtXzVt6fRjFBmGuWmSwkr5XXYWy4IQPnKly5a9ascT799FPXvYvv3AMY9+GeyjR4pJGCY/K1fNQvrJvXdOZVtESj0YYNGzbgzS9IKgILfXH06NGfjx071mbmBuCCBU6PDnrvvfdKli1bdvTbb7/9jVWrVp3W2tp6UH5+fq9EIhHLycnBy0R2ew8gBJrbgHF9JIGKQELLFce56TXOwcWKuCTY5DHHHON+R8YrXL10FaE8s/44AVCfdFWxfk5YrvE0KRkJ2trK1wAhYyq0uuUGCWSJLEcFyOf3kkHT+aBrTODlBxx+4CPZllc5PwChwpbKy9R3Jrar7yeVtTznV87Ur0HlTee1QWFiml79LgFHt0cbi16Gg6lNXn1mamuQgaENQVk3gVW6iOU9ZAxfGw6UVcw3gBPdrHS98l2vWj5YD9oBY1lmynI3Lcx1Jh1t3LjRBVK4dTdt2uQexx/aDsarwzud7NI9x52NMDepD1AeHjGcRxva2trw+rT65ubmyry8vA/POOOMucOGDfuod+/eK+2r0szaywKn6pfFixf3f/fdd0csW7Zs/KpVq06MRCJDc3NzS7C9HYSMzIzuF7puKPyM+dHyozVKNonbAXTgagVInnLKKS67POSQQ3a++JfXQOhNlrCciHJiayXGie1lTUtFQGUh3ag4xnbr4ywvGUWQAtP3k9a/SekGGH1feqOLH4D61ZVMu4PaFATsQeeDgNrPCOnKua70WTLg7Ne3qej3sHV49buOscrQCsZCbh5iklcakpwPkgmibpmtK9ugjVme45xlO+gqRnnoAyx/QcLRP//5T5eNYvcjzlEAoXxxgzSkpS4gK2d8FPUS+Jubm+tra2vx3tHP+vXr99bpp5/+6vHHH/+x3WRh99llgbOzP5YvXx579tlnR7///vsTt27demxpaekArLlsaWnJYQo5Yx8QQsYrKLQy+46TCeew3Rcy5+BmRZxy5MiRzkknneS6YQGe+JMxE8nacE4mN5jARbtQNVuQWXkaHAn6qJfAqFmjBmat2LuqeP2YShC4SADeU7AIe69UlvNT9hY4vzyiqQBfr/ELYtfS9StZKVks1z2zfjl+aDfnpx/r9GoDe4JzE3OZBjren33tAAAgAElEQVSTkj766CM3Nvrxxx+7WbtgkviTmfQEUOgZ+bYYerCoI8ic8UwtLS2ttbW1tVlZWZuHDBny52OPPfa5U0899R/f+ta37DtG8e7gMBb0/lxmxYoVfV544YXj3nzzzW9v3br15JKSkv4dHR14NZe73lJOCE4WTAIG4+GeIQARmMg6cQ6JPGeeeabz1a9+1QVKuGUh1LDyuLkBXbywGGVckkF9aY36WfuyfRok2V5OZgKkzko1jbW8p98kD2v9SyUSpLj8ZC+dCjWoH7rariAAzkTg1ExMjksqxigVdQT1uzxvaj/nlpZXZskTYPWnHE8Z+/d6Jt5HypfMP9BJTNy5CHFQxEQ//PBDN9EIa0phtPNF3wBc+VJ4eopotON+3MdaAWhHR0dHXWtr65bS0tIPTjvttGeOPfbYf4wbN65yf8aFoGc7YIFz9erV+a+88sqoF1988Xtbtmw5IZFIDIxGo2WMVXLjAe7oQyBih9L6xG+uq8R3xCWxTARgOXr0aJdlcl9ZAiWu5WYFfDMIjlGI8anjMnogOfE0I9TAyHiLtnj181D5yfgPjkkXrVSQJsZogXPHKAX1w/7GOE1yQXlNBeilog6vcTHVLcHRBKJy7jAhT7JRfscn9Yicv6Y5xnnGEJDuPy/jFcfpUuaOR3DfYskLNmP4+9//7oIosne5aYKc67iebaT3jEvkoDv4Qvi2trZEfX39djDQwYMHLzrzzDPnjxo16m+jRo3aQXEPsL8DEjgXLFhwygsvvPCdf/7zn6fn5+cfhP1iAXhM9YYMgPnBiuMruhivkG4NlKcrFjHKMWPGOGPHjnXXVHKigllSUOl2ZUIPQJOvGiKLlXEVvV0d65ETl28skRmrBE/5KZWbtIJpeWpgZftNyRFyUnspGb95FAQsYcAnqEyYe4RR7vI5wtYZVG5/BE7TeO9JP4Tt96B7BNVjkl8vxml6Ribi8JwOnZhcvXKdKGOg+jrOcd0+nSWN+0r2yFglY7PQL0gqQkwUTBSsFMlFfIEDdQTuw7ZwCQ9DVNy2E7qwo6OjvaampjYajX7Rp0+fF2+44YY53/jGNz47wHDzwHLVvvbaa8f8n//zfy5+//33z29paTm8T58+cMnmYEkJBFLGBaiYKVD4hBAihoCycJHA7XrxxRc7Rx99tJvgg1gm3/9HgWa8U09wCiyBSVqadKsyXR11SWAkwBNsNSuUoML6pWDjXiagNCkZWZbntTsxHQAURiGmk4l0BQjC9oMFzh09FWaMg8qFrSOoHi+AZf1BcUjWL41aeU/p6pXuWOnqlYDKa+ml4jnqDclQpUEugZXfQQrAKrGnLjZeQIYuXLqfffaZu0EDXxAvXxvIBEUJ4NSFONfe3t7a0tJS0dzcvOzcc899asKECYsPpA3mDwjGiTeTLFy48GsvvvjitVVVVUfn5+f3aG9vx96xLhACBCEMfOuBdLVwITSFCuB47LHHOuedd55z6qmnumBJ646bHnAdF9kkBZtLOHBebtGlXT+YNHSrANQJkHKjdZkwIJWHtlBNwCcnNLMKcUy7kCTo4x76vFZGJiUmrwsLLGGVnAXOXeo+FX0RFoTClEtVmSBZCHMfP7nT12uA9JJpr/t6Aayc4/paJu9w8xKpfzh/aThzntLQlmEdDXIoQ72FOuHhAmvEH5a1AEQXLlzoYLkL3LsAUZynnuJSHeltow5in2ZlZVVXVlZWDBgw4M8XXHDBE8cdd9zfxo4d224yPPenY/s9cL733nsnPf744zd/8sknp+bn5w/IysrC0hIXjGi9MQYJAeG2WVzMDDcFymGjdMQtzz33XOfII490ywEoIewQTgIdN2OXaeiS3eE7rUxuB0frjkkAKCM3RGA7pfXLiSMnpMmtI9mhBD7ZJi9rm5PUS0loUAwLnEHKMMz5oDJ7qlAt4/RWc2H6NlVl0j3OYVy1QWzTNAflMfaknH/8LpPzeA10B71fzNbnfJfzGeWpO2gAa0NZJhuiHQRaxi6hwxAPff/9952//e1v7s5F0G1cHyrDRbyebaKOzM7OBlBW1dbWfn7YYYe9NGHChHmXXnrpF/sTUOpn2W+BM5FI5M2bN+/cJ598ckpTU9NRubm5ZQgHcO0ShVSCllxiAoFCWWTFnnXWWS5gIukHAsoNBghociceCjM72sTopAVMtyzTy2lZerlD9QAGKSg/0Asr2EH3SIZJSkWogdcPwJMFsrBtDlLMybYpzPP5tU0r8rDP4VcuFXWY+mFPxi9sm8LIVti6ki23N55Pt0kaxxJwyUIJqvytY57UaxqYJfBSb+Fa+Qo1rBH961//6vzlL39xWSiuAQNlDJUv5KZ3DgQE12OLwE53b2N1dXVl375937nooot+duONNy7ZXzeT3y+Bs6ampuxnP/vZxFdeeeUHHR0dXykpKSlGkg6XewAUMdAAK4AlWCWD6nBZ4PfJJ5/sXHTRRW5mLNyxsMK4HyyFltYb44h0n8qMW6kI5RIQsktuScdzciL5WbrJKoFkAXdPACMIkNn2PVFMQYAXtn+C6tmTfvB6Pguc4eOb+ztwavnTMiN/S/BjnFTGSGVfSRnTYMp7Ul8xs59LVpCB+/bbbztvvfWWm5kLXYVwFj5RFv+QYITYKV6dhjcwUY+hPVVVVRWFhYX/OOWUU/79yiuvfHPkyJE7Xgq8H/3td8C5bt26gbNnz75p4cKFl/Xv339QR0dHEYQMA894IXz5sJIYewQw4jcyZLHt3RVXXOGcfvrpLmACZLlUhK4J7i8JgeRmzJAJWn8Uah6jhSeXm8gdiCSQ4Bp5/Z4yxj29fl8AS9h7poJlhb1XV8pZ4PTWlMkYNkF9H7auZMvtiWEX9l5dfTbWL+OiTCCSmbwy/KN1C35Df3FrQG7/xz2xQSCWLFnivPnmmzsTiVgHyoBkQK9Sv8m4a2tr6/Z4PL7i2GOP/eWkSZPmHXfccTv2CdxP/vYr4Ny0adPQm2+++a4VK1acN3To0AHbt2+PAvxgHUFA5NIS+WZ3CADcsOPHj3e++c1vum8j4QtkGRiX6yzpfqWblwLDSQBBkoySWbB0y1J2JEB6ydOeAt+eXh80sWW7wyoLyzi9X4VoXbXmmZAKI2lvymfYewXNL9YTFIulLoFOYsiJLlbZo9qLRbcr7sMkRy5HAUGAlw6JRFgP+uKLL7oxULyEgomPfBE4dCLDYADwTl1X19DQsPaUU055YtKkSU+PGDEC7wjdL/72G+D88MMPj3zwwQdnrFix4uzS0tK+jY2N2cyahUuB1iM+uVMPPmFtXX755c4ll1ziDBo0aKf1RLYIQZNxRx3gJ8ukgDMGKpeUyOUibAcF3TTB6FqhdSc/Jej4WcSUTgucwfM0rJJLtpxlnJZxBkvfjhJB89SU2CfrljoGZZl3AbJAXaMTiyifXK8JwOTLJJjpy6RHnAPBeOWVV5yXXnrJbS/0Ks4z54P3kSGrnJyc+i1btqw59dRTn5o+ffqvhw8fXhu2T7pzuf0COFevXt3/jjvu+Mlnn332zVgs1j8ajUbI8mhFYaDBPME0MdCwmLDJ+qRJk5xDDz3UXZMJVwVcs4wb6MA7LTgZj+xc07Rz8wS5xtLL0iMwShDVQsIycsJIMNTn08VYgyxiyzi/3PNBjNoPgC3jPPAYZxjgNPWKNsykXmF5unJNblzImnztH34zDAU9RhDlKxOhF0FGli1b5syfP9/5/PPPdyYXST3LrfvARjs9dvUNDQ3rDj300N/Mnz//p90ZEMO2LeOBM5FI5FxzzTUPL1u27PLc3NzBsVgsGwBIfz0D2/jNDDAI2Le//W3n+9///k5rjK5VuYmydMmSgTJ9nO5Z1EsgpuDK1HDJFjlBJKMkGGsXilS+pjqkVec32EGWbBhBSZZpBdUZBCxhwdqvXWHbHPZeXSlnGadlnEFzQRrDXuAYBKxeOREERuoqxj5lZi6XzbEMZJbeMhwD+CF0xc3j+bYWsM8PPvjAmTt3rhsC4xp4rgMF6IKkQJ8iVpqbmwvwXHHUUUc9+tvf/vb/D9sv3bVcRgMnQPPnP//55U8//fSMwsLCw4uKinIx0Bhcrq2EsOAYhAADiOUlN998szNq1Cg3WUhueUXBYhIQgJZAKYUXwkVwpm8fn7yegy3dsXoBM8tKIPabRJqJWOD0z8y0wLlL5YTti2TL+YUKguoKOq8VZiqMpLD3TIVhF/ZeYTw2prp0qAdlqBNkvBPfeU7qDLlWlHvVUhfJWCfXgeJaumXRZuaL4BVnc+bMcTdTwDuEqQ8737Di6lfUi8+2trbtra2t/7z66qvvvOWWW97trqAYpl0ZDZwvv/zyGdOnT3+kqKjomOLi4hIAI9gf3AlyzRGOAwyxFhOu2cGDB7sWFI7p1wJpQcaA62Uk3FlDrgkN09nJTCY9eU0uPD/FFcSQutKWoGcMW2cqFFMmP59fP1lXrVnK9nfgTJdnSMqTKdcC+g3AyY1f6Flje7jUjrqGHjL8xr/S0lJ3L1y4bpcuXeoCKndFI4ATkKFr6+vrtzmO88aNN944/Tvf+c7qIJ3SXc9nLHBu2LCh1x133DF71apV34pGo33kW9i5Iw+EAqwSg4lNDH7wgx+4OwBhIHEcwW0GthnPJBOUgsz9Z7krEIPvjG8mCxhhhMECp3fmaZB7KwhUk2EzYRiBV33WVWtdtWHmepArdk/r8JJhJj5STrmhARkn16kTJE3tQBnoV5R58sknnXfffdfp1auXm0jUuSm8exn1c0FBQdu2bdsQ7/zPG2644fFM3Z4vY4Hz6aefvviRRx55sHfv3ofl5ua6LlowTfwxVRqfOH7llVc6kydP3um7B0gCXDng0sWhE4C4qbtcSsINDiB4jI2GEe6wACsnEoXaMs4v93AqWEgyIBt2/IIYtWWcdgOEsMZbWJnzkmM/rxRjoLhWunf1dn/SUJUgKt3AiINC18Jt+9prr7nxTakf5drSlpaW2paWlr9OnDhxytSpU5eG0Z3drUxGAuf69evLJk+e/OjmzZsvzMvL601QAcOEWxaDhgxa/B43bpxz/fXXu4lBYJlwSWDw6bvHdwmE9NHzfZkIclOwtJuCcc2wwh22nAXOcIrVAucudZKKvggrn0GGQRhjJOy9UuldCHvP7vR8Ydscts91fTIvg7oP+hTgSfet1o8m8AQRwfpO6F8kDC1atGjn9QRQ1Nm5siHe0dGxoUePHj+/+uqr/3P8+PGt3Q0Yg9qTkcD5/PPPn3zXXXf9x+DBg4/BW064ew8GCIAHJolX6ODdmPfdd58bx8RxAiYBFuVgJVEwcJ5uWaZpc5MDChxBmtZWGIENM/mD3H2WcVrG6TeZLXAGqbpwxpjJaDXVHARoQef3FuOk0c/n0kvsAGZcQidDUGg/E4IkA0U9MlaK3wBY6EsQkwEDBrgvzf7Nb37j7jqEcBg8gQBM6FKUxf3a2tpq2tvbF3/729++ffLkyauCR697lchI4PzRj340+Z133vlRQUHBQTqbFYMP9yoyvB566CHniCOOcMGRWV4QAvzGgIJNkkVyOzymVdPFIa0rDp0EMQuc4ViPFPtUWPRB/Z6M4gpbNtlyXm4yv3pscpBZQR6ohkFYmfObDyaZ4jFZP921rIu6j8DJ9e36XgReAij2rsUet7Nnz3aqq6t3rg2F3uV2fi0tLe3xePzT44477ke//OUvX+tesBjcmowDzvXr1xdcc801v3Ec5/ympqaeGFy4YfHJ7C2wxu9+97vOdddd5zJIuA+4FRUsI2zDB0bK5CBcx/WYcvkJuo/bT0kfPa2xzsW9KXkhr2Wcu/dAGIWRCmUaBMAmwA+aVkGGgQXO8OwvjLcmjKx0ZZy9DJ8wdYVtU9DzJVNPGLnSQMmkHa4ekGs4Gc4CoMqt/LiZAo5zvSZfgwhdDL36xRdfOH/84x9d1gk9iT1tURb3JwA3NzdvjcViv5k8efJPLrzwwozaCD7jgPPPf/7zobfeeuuvioqKRrW3t+fDDSCBD4MKX/vjjz/usk4MKNgmytDtCiBFGjUsoE63wc4FvHJ9FF0VQcIbdD5ocvi5gjh5rav2y71kgTMc20+1fAYZBnsTWMLcK9n5152eL+zYefWDBn9dHzNr5WYvMumHrBOfXLrC3YW4qgBACOLBHYbWr1/vfPzxxy544h/JC1+iDY9gZ9m6xsbGF2+55ZYfXX311ZuDDNLudD7jgPNXv/rV8U899dSvc3JyTsja8ecODCwd+NExwNh79sYbb3RdtvSpc9ABpEgewptQMHgow62hCMJc32na/MCLGYYZ1K5MAguc3j1rgdMCpwXOcDIQ1E9azzCOiU/oS+pIlAN7JGvkZjHQnTiHjRA+/PBDV7+CeX766acOgJSbyRCAOzN6m9rb2xdddNFFk6dPn55RL77OOOCcNWvWmc8999wThYWFR9GVwN0pAJIYsNtvv9257LLL3MHG68LKysrc1GhmyKIcAtnc7F3uiIGBZbKQsIw8tXdXwDAZkLXAaYEzGXnx814E1RNWlrsTIwsChHS42sPcM2xfBrHhZOoJW1a7a02/JXByQwNurcfwFfb3BqjieryXE3vXrlmzxiUjfG/nypUr3WOsQ+rXjo6O1sbGxj9fdtllN99xxx3Lg+SzO53POOC86667vv7yyy//e1FR0WEETAwKWSdilzNnznQ3PAAD5a4/cCXAKoK1hO8AWAAkXx+GAaWrgZm2AFiUxZ92lQYJ/J4oMDkxLXBa4AyjMFLBvpNVvNoNmAxIhb1XmHkWtq5ky3WH5wvb5jBgHkaOtJuWyZPQk3x/Md/fCRYJ4EQiEJjl5s07vK3Qs1zhUF5e7u4sxHrYhs77dNTW1v5t4sSJN02bNm1JmPZ1lzIZB5zTp0//1quvvvrzoqKiQ9GJ9LNjMLnhwSOPPOJ87Wtfc8ERA8sN3gGiyPKCpcR9arkZPDc6gDBQCBnjlJNX+vw1oAYNalcmgQVOC5xBchWkNMPKXbLlugOwBD17MmCuQbo7PF/YMfHqBy+DX8uUKaMWZfiia7lkBeQDeSI4hhjm1q1b3Z2CmH3LpXwgIniXJ0CVulou48P3urq65Zdeeul1M2bM+HMYOe8uZTIROP9l0aJFP8vPzz+YgwHQox8eg/nAAw+4azjBOAGmGGi4bAGy8LvDMnrsscecoUOHum9Jwa4XfKUYBwZlmVBkAk4Kql6a4jewXZkEFjgtcIZRFpZxBvdS2PnXnVzRYdu8J8Dp501jngjXYIJYABjfe+8956OPPnKw9ITnqDOhcwGiKAs2io3guakCk5E4WvX19Z9PmDDhh1OnTv2f4BHsPiUyEjgXL17887y8vIOYJg3Q44tbwSSxfnP06NEuaHIQIYByU3YkEP3tb39zvv71rzsXXnihy1ABqgBbZojRz68tUck09YJiC5zBwp0KxRTENPZU4ZieImydQc/nV49dx2mWnwPVMAgrc0HzIXhW7lgixH+UQ7hd4abl+kuAJUAT7lfsSXvUUUft3MoUwEl3LuqBbgRJ+eyzz1xwpY6mzkSZ+vr6lZdffvl106dPXxSmjd2lTCYC57hFixY9Fo1GD+JAcLAxOHDFAjgR40SsEn/c9F1uL3Xttde6L2TFtXDzjhw50l37efLJJ7sWFTdH0K5ZDhxdG3rdpwXOYNEOApawSiAVyjTsvbpSzsvVZ4HTruPUs8RLJtIBnLJOuRGCBE2SEr6icePGjS5gYpkJ/gB+SLrEBjPQl/jjWlAmD0GvIqMWSUMEVLpqyTzr6upWXXnllddPmTLl9WDN0X1KZBxwTp069bLFixf/NC8vbygGVW63h+9wLdx///3ON77xDdfvzj+AJgQDAwhAvemmm1xBgJsWrBRMExsjADgvueQS932d3GWIAkVLiaCJTwucu4Q57CS3wOn95hfLOC3jlD0Qdk6FMeyC6uJ5skPoSsQnQTCQHQtvHs6BhSLGCeAcPnz4znca84UXkqAgxolrqX9pTHJNfX19/eoJEyZcP3Xq1Fe7DywGtyTjgHPGjBnj33jjjUfz8/OH6McDsAE4wTjHjBmz863lYI8YbOkiAHC+//77LlgyQQjnGQs9/fTTnfHjxzvHHXecKyAQGgAu93akcHDnDanw6OJlCrbJupSvMfNzC1LQ7AYIX+4lyzjDGS1BCpO1JFvOi1GnQomHZWRh7pXJz6fHRDNE6hgdViJjlHoGdZFoABSlp473IcOEe3X58uWuSxbEgkv0mIwJkERo68gjj9w5VKxPeuW2bNnixjj5cg2cI9tEXQ0NDWvGjRt3w/Tp018JhqvuUyKjgDORSGTNmDHj26+++urDhYWFg9CNMs3ZBJwcTMY3EbAGuOKNKQBO/MagMujN8nTzHnbYYc7FF1/snHfeee5ORDjOl2Tz/Zy0ntAe/S477shB9wbbzHZ7xUg1K7PAaYHTT22kwoiwwLmjh1PhEQnbl0GgHgSc3KubYSupZ3AtdBu8afiDjqOu4tZ68m1R0ItgmNgmb8OGDe41IBwEToIemSVIx+GHH75HwFlVVbXuqquuumHq1KkvdR9YDG5JRgEnHmf69Onffe211x6OxWIDuAECH9MEnBhkCgfcC7Co8BsxTggIssIAhJIdSusIwoR/gwcPdt23iJ0ef/zxbrCcWbu4FkLKvWvRHr4gG4IqwVRa6TprVw6XBU77ImttwVvgNPdAWJBKtlx3YNQmEJdLOriWXb4XWLJS9hh0Gv64AxD0F/5Bt+FtJmCF2PGnoqLC1Y/cFIb109WKOlIJnPX19esnTJhw85QpU/4QDFfdp0TGAecjjzxy5e9///tH8/LyBoRhnBACbIqAtZsSqK666irXd4/MMK7ppPuV20ehPF0XuBeAF+6Jk046yTnjjDPcTyxpwR8EkJYdN0FmfQBUrxdhW8ZpFsEwSi4VLEsyjKBpGaZNYRiLXz02xpk8OCY7LmHHuTsAJ+XJqy1cZ0njnXpGxhmpY7hEBDIGgMRSEejAtWvXOtu3b3eBFKwU4Ioy0HX4jntL1y7vAcaJ5CD+dcVVW1tbu/n888+f/vDDDz8dNC7d6XwmAud3FixYMLOoqKi/tLzQqSbGiQEHqNHlAEGDAE2bNs35wx/+4AoL1nkCWBEL5atvUDd+4zgAE/UwawwbK+A8AuNIxz7xxBOdr371q07//v1dgESclCyWMQG0j+4UslG56FgLhWWclnFaxrlrVqTCSEoWYLsbcKI39LpxMkKGjbgJAZkhykP3oRwIBEASbliAJhJ3uOOa3BKP+9ASIOkOZhyV/QLghA7cE+BsamracuaZZ959wQUXPDV27Ngd6bkZ8JdxwPnggw9e8/zzzz8Yi8Vc4JR/JuAEaMJyop8eg45MWlhab7zxhjNv3jzX+sJxbKLAV5ShLggc2CjcuTgPRkkhxHcII+oFq+3bt6/LQM8++2wXTAHI3MmIAkegpyDKPXItcO7eA2GUXCqUqWWc4cBJjk53igHui/ELc88w8mvqUxNmSANK6zy+kIJhK4AdykAn0dDHkhBsvg7QxLpKEAG53IRLRaS7F8Y96oZO5MoB1k2PGkjFQQcdtEfAWV9fv/Wcc865+7LLLntq5MiRbRmAmW4TMw44H3rooWsXLFjwk+Li4v66k03ACVcrWCT+gVli8CE4EEawwtWrVzsvv/yy8+abb7ruCoAsWCKFhi/BJlPlLv90f5BFcrMFACbct1gXeuyxx7ogSrDF/fAP95ZuXK/JwgmqmSknkp9FHDS5k5nYYcsmW25PLPpMfj7rqrXrOL0M5SDg1KyT+3TTZQtdAx2DdZdglohbgmmCQJCNMkMWcsg1l9QxOCaZJZOJ6Kql5w3loU+R+7EnjLOmpmbr17/+9Xuuuuqqp0aMGLFjY/AM+MtE4PzX55577oEePXr00wrIBJxcnItBxrpOZpaBZULAAHQQBizsnT9/vptpy52DIIQMinPJCpU9zkEYpSDRLcu4AOoeMGCAm0x0yimnOMOGDXOXttBtDDbr9WddtdZVa1214dhwsgZbkF7ujoxaPqM0pAGGDEcBKMEs4YbF5urQL3wHpkxQJPgy50PKGUGVeRk08kFAcB8wWdwfehV6bMiQXasCtbyiXNBylLq6uvKzzz77nu9+97u/scAZJJl7cH7WrFk/nDNnzv2xWKwfrSBW57cchcLCdZewwghwuA4uCQgNLLQ//elP7nZ8jG1S+FCOQXgICUCYblcyIAIprTnGM3EdQBPLWxATBRPt16+fK3z44wu19TtAGcNAGbpIWDfbIxceo5xeIypdxZLF4nl5P+0CkkMURpF4MUBThl9YRZcKVhnmXnvyfF4MQfZzMuwik5ODdM6B7HvtXQgzLiYZDDI0/VSL6Z66zVrm5MJ9U90yuY/uT7I2uRTNNL/YJywnl4qgPNeM8744DwDDORjtAEZ4zBCrhDsWu6bB84V6AXDcIIbXS1Ypk4i85BP1QPfR9UtgRHvxj4xTAia/4xroK7TNbx0ngPO888672zLOPQDFMJc++uijP3z22WcfiMViffUGA10BTgoFGCWuLy0tdQUFS1UWLVrkfPDBB66rA0KI2CiAkGtC6eagu5YTgVYb6iEwcQLyrQK9e/d22SjcuVgLBUDFveXGCgR2Wou4HxcwM4Av28B24J4yXkHQZSyDz4D28phWKlrp+QEBx60riinVijAZkNLt1sq9K3VJxetVnx9oWOD8skSEAdlUldHAKUGBwChzFaiD9HIQjiPLajYmn1KDqjQ2uYwE9QMo4SkDswRQ4h2YAFB61cgKocf4hhK+Aky2jzqGQCqz/gl41C/UD4yX8jnwCbIBV+2eAGdDQ0M5YpzXXHPNb4cPH94SBgO6Q5mMc9XOnj372jlz5jxE4JQMrSvAyRgBBUYGxZEUBNfHO++847z22muuCwRCB6aJf2CLFFAp7FSYrJOTmoIqJxNjD7gXXLlgokjxhgsEQE0hx75zoIYAACAASURBVHMiy5dgh2fFb75DlMIPoZITg4yVzJdCR2Ys+8/LKk41IwtikmHOp6OMBc5g97ifYZAuxpkqUAxTj5YremtwXAKnzjClsczrJTvjtZz/0mDjZipyXmJOo36wRzA2rLMEWCKxB3kY3EeboOoHwhLoZDn2Bdku9QG9WtyghV4pkgDqCHrp9hQ4m5qatp1zzjk//t73vveUBc40mgSzZs36wdy5cx8sKirqqwWxK8AJQKH7A4JKFwmBictVYOn9/e9/d/9hKyrEEAC6dLVC4MgMZdYsBJRsE8dZDoDFGCvBF2X5NpeBAwe6SUYAU3wecsghrquXgsyJi+xeWody8qEuumPkhJfKTTJiP9aYDuD0A76uKLhUMFcLnBY4texpY0AbDjJcRJDyA1htYDOPgroL3i2AJVywiA9iaRuAEnOZO5yRBaIu6hrqDh068vIk0cVMfceNYQiY0pVL41rWjWOpYJw1NTWVF1xwwY8feOCBJyORiF2Oki7svP/++6//f+sv70WMU9+jK8AJYZTuTsYaUTfOQWghXPDnA6DgLoFAw4ULJgoAJfBR+AjoZHuoE9+lJYm6uGSFwiqtWOmWxXUATVh3AFKkgOM7jtG1jPJw7fJZ0H4Z65QTVt6HVqsER+2eShdweoG1Bc4dPePn3tOy79dnqezPfcU4tdfGCxD89E6YftBl9EYCMl9AsjHtrTGNnWSljBMCIKFDwChhnMMQZtKODMegPi4xwRyH0S2XhxBE8fwEc9aj2bFkl9At8plN/cr7kATgHjgG0IdRL59VGg9hYpy1tbXbxo0bd/tdd91lN0BIF2guX748+uyzz97w8ssvT+/Zs6ebVUtwIFDoTd41CJiSg2ghSoCggiArYz0QZrpHAVQAUAS/ly5d6gIqhIUgi7bJtZrMgJPt5sSUExT3Zuo445x8PrJiACZ2PQKIYg0pABXuXYAp993lEhlOaplExPthAtKVJF1KEtTSDZyafYZRcH6M1eSSCqNQLePsvoxTA2dXZCZIrkznpUxQBxBAqDfIztAmzCsCHs4zdwIGOIxuxCWxVAT/4HaVZagfCHQamAmOvD8BkvqEsU4TayRo41MCJxk1gZzPS+NfMk/eF5+pAs6GhobKyy677JZp06Y9my7cSEe9GRXjXLJkSe6CBQuuW7hw4V1YjkKLih3TFcYJkIFwy/VMnEB0saIMBJ8p2AAkXAOLixm3cLEgIxevKsNGyXCx0A3CJTB0ecjFyRRC6fbFvfAHgGamHeoyJfcQDFEndvLA7kUA04MPPtgFVPxGO9kG3o+MVioLAqz8lDGeVAGLSZD9rF4vwQ9ShGEmjLaWNXNIFoT9GJk0RrzaJu8v2xb0LH59Ebafki2n5UG7NfWY6mcLeiaT8SbDM8nKTNDzmc5Ll6a+N8tj7nJ/V8xH7CwGfYBPxCWR7QpWiWOMT2I+EmD1OEsjAd8572XSH9vCZEFpeBNIGb+U7ZOeJ/QvwVY+m5Zh6Q7mGKcKOGtqaqomTpx467Rp034XVh66Q7mMAs7FixfnvPLKK//6+uuv392jR4/+MrGFjCxZxkkhoUUmk2yYDk5XKwSSW+kB1HAcjBDXYuIw3gmXC1/Jg2UtaBN3GOI6KFqmjHvyvnTpol1MLZcxTCorThS6gzn5dOYtEozATgGgyOJF7BSfYKtsr5xotDyl1cuJbIFzzxiZBc5d6iYIxHRfSTDRyj9V3gfdJvzm8jPcg0yNgIO5hrmN9eFbt251wREsEkYzXK705qA8jWjUR+ZIIOQxJvDJTHfpJkV7qGtoAPPZpYEr7yXZL3WEnMfymMlQo+FO9ivvB9IAL5c2Pll/GFdtXV1d1fjx4ydbxplGcyCRSGTPmDHjB6+++ipinKH2qpWCIV0ftP5Mk1A/AoFFsw9OLO3moJsVggMQxbvtsMUfUsjxGxMLZcAQMTEAwgRiWKS4jmnkss1MPiLL1JmxuIYsmQyVsRC6XHANgvpw6QJUBw0a5P4DoGLXJCZDyTVk0tLV4Mn+1Za5CSTkBJOuILqPcA3byftIlmJiGzKmK89L97QeTxPz0W2jstPWt1bSXgzVpISDgNNUVxDASEAxTT0Zygh7Xnsc2K9a8WqGaWJkVPx6nnm12/S8nH80bnlfeVzWr+tmeeYi0Og01ctn4L1gvGJO8h9YJOYwQBLzGN85/9G/mvmZxlT2k/boUL6kseo1l3gc9bG9MivWS861HpP39Op/qYdIUrgBwp4AZ319feXEiRNvvv322+ekETpSXnXGMc6FCxf+4PXXX78Hm7xrJe7nqqW1xomcKuAkUElBl4IEQKTViokG1w3eiP7RRx85a9ascVkll6QAyJisxGfDM5GlSteLFGROVqk8OJnleiycx/NL9wyzeAnCAE+wUwAplsjAosQEwXHEbiU4o40EcTJmCaA6bmvqI64Pk3EitoXPqBU2QY0Kg+2QiRva9RQ0c7wUlUn5mI6ZjC0Jvl6sSCqqrgBnEDBKcDM9o2Q3pvNSOctx4LNR/rVylx4Lr75H2yjTXv3DdZLSOJVtkiDK9st4HuRbyguNWhpplDF6agCQYJCIRQIksRQEa6/5Inu5rAv35iYoUu7ZPuni1ODiJRsmg4vX8h5yvtNrJI0dDcwm40+Plx5bDa5pBM5tna8Vmxs0R7vT+YwCzs4Y57WLFy++u6ioaEAyrtp0AacGbynk+I6Jxt03wP4g1AAffMdkxMbLSC7CelFMVKaeA3A5KWVsk9cTcCBM+E5QxCdjo7y/VCjaSqX1KF3VbCdBF5MT7BibOgPcwVbh6gWYYiMHtBPPqEEVdROk5USlpU+lKa18KlNu0qCzfjW4yNi0VB5eilhPPq1YZf+YFI5WbF0BO1mHlh8vAPZSGkHAaao/DBOhYpfAJseQdcj7cxylASfnqInNyOcy9aWO4VF2NMhL1iXBlJns9JrgE4Yq5hrcqfgkQMKw5VtGKH9ynnGOSLngvTRw6lCHyehgH8tzEmA5t/WcpYeGz2wCQa9jJmDm8+h7yzrSBZw1NTXbxo8ff+v06dNtclC6LIMVK1bkPfnkkwDOuwoLCwdAuOm+JAB4xTjTBZxeCppKRMY50AbJpmQ/4Vng/oFbF4wUzBQTWu4eBHCScVcqGiYbsS2czFASYInaHSQtV+6bi2OMtTDpigDP+miVc0Iz6YDAilgqQRVsFfcGwMosPskG8J0v1pVtlBY1kylkIgWVIK4BaOuJL9kJ6pJ/WnFIYGYbpAKR8sVrvRinVOZBZU0gZJo3QWATdF4rdA1O2vjUhkMQu5YeF/38+M3+MwE4QdDPyJHAx2dhKEMajAQ6PA/dqph7YI4wUOFhApOEfsB5nOMbk6Thpg08yo+USSkfUmYIhNRF1DkaGHU5Pe6SMXJOSr0hDRO6n2UfSpng3PXqY9OY6fZo3cnnS4WrtqGhoWLChAm33X777RY40wWcq1evzn/iiSeuffPNN+8sLi4eQPcg77cvXLXSujVZ3xB8TFAZ5Od3JvYQiKQlCdDEpAcTReIB4qNwGxFIoVC4QT2Vn3SNom7cWy43oRJAmzkRmYDEe1MRSrennrSaMUkgY91MrUdZtBOMlf/AXPEdx7l8hq90o1ub96DihIJgP1LxoK1sJ8FSs1eTEjBZ4xqAWI9kzFKh8bvJgpeK1cSitBLrCmvVz+D1nFLJmpSrdNWalKtmdroOypQERqms9ZyQcxXnuLQLx2lUyf7gS5V5X3pqwA65Xys/wSD5JiR8oiyfT8q8dC9L8CQgkMnhWs4fgjyfU8qCng/SkNP6wSRn8tkZo6RRQFmXfUJZ9/I2mNrTXYGzqqqq4oorrrh5+vTp89KFG+moN6NctVjH+fTTT1+/cOHCGcXFxf10DG1fAKeXxc/jepmLVLhoLxkfY49cZ8pXkZFhQinAagYrBRvF9n9YNwqlQYbIDRg4EaW1z0nGSUegpGLRx6kQcV4rDcniqPi0ImHMUrq3cA/GiHicafncwhAASrcwGTaOwUUMwGW/UCFRyfFTAwr6h38a+HCcRoe20qmotMUexPCk0vRSVmEmsgmwgq4L0zYN0tqVLvtK34/9J+uQwCD7TNbDdskxosFD5seXyMtPgBoAEiAI+cdYsjwZJsEO9UGm6H1hWyTIyP6h/DNGL+WGBjnOyaxU2R+sl/NDjrtmpAQ/CYLsS3o8tBzLPmZ90pPC+0kjwGQYBcnRvmacNTU1FePHj79l+vTpNjkoaILvyfnZs2fjtWL35+fn95eZn5xAe9tVC2E2KQw+o04n5wSBwOIc15DiWeh2JOgwviPBjewP98W1AFAwUSyoBpBizZjcNEG6ergJNPuKbZSWvgYQqQA1CKINVByc3Nqy54YNNHKkywtlGU+Vik4qM/YJFQ2eB+BJhgqQhfIByOIYPgnGuAZgy3bLbGda9H6MUVvuJiUU5Ar1YgUa4PWcCAOCJmA2PY8fGErjyjQv6QEg0PGe/M05SI8AN92QMUWMMRJsMDf5SUYIoJQGlQQt1IGxlUBkYqWy3Rhz1kejFddw7FGXXMMsk49QD+WTxiLlm89D+abBoGO40khgX0kGK9vPumT7+axyPslj+llNMWQvBmwa330NnHV1dRUXXnjhjHvvvffXe4ILe/vajGKc6By+VqygoKCf3i5qXzBOaXHLCU4goLsHbaP1qtmYZD0ES1xPJsnzMkkIfcEYI8pCYUEpcfE1QBSAyqxAWOx0S+E6CaJoN4GJCoN1a0uaE58KBnXSLSytfwoyxwj1auDFc8kxlIxGTmjNVCTgs70EW5SVAMl7cp9PgCqZOWNlNFoAyPjHxeyoi/sYsw3Spc17mZiEnzElJ3mQu02yez/Fp0HUBPqSfRH46KonYPGTsszlTPiU/3Ad1zHSW8Jj/M37EXQITJRj9pvsAwlcUi7ZnxpEJBtjfdIoQX2cb/I4x5OGrZZzlqVhzHkur6N3SIOZZI80XOUxWV56pGQbOD6cE7LtXkCqZYDz0c8I29fA2dDQsG3s2LH33XDDDb8eNmxY894GwK7eL+OA85FHHrlhzpw5d5eUlPTXSiUdwCnB0MQ45HmT4Erh1ZNfgpVJIWhLVE4efpfxTa3UUQaASTcvQBTuXizSxj++4kxb8RocNahKBYj7k71RAcrf0pUkwUeDH39rRSEZnb5eKlY9AViPdG9JNsBnpKtSnpNtYKaw7BP2s2Qfsu/5/DhvcsXJ+mWMz28SS9mjUqXRQLkzASNBg+DFayhvTC6R19II8ZJt2X65tEkaPiZQlGOs5ZdzQ8u8Vuy6jiDGpT0ifvNVygDbz6xrLZ/SMJZySeDX7dT31UBoem7Kt9YrXsCpjSV5nRd47mvgbGxsLD/rrLPumzx58m8HDhzY2FUg29vXZRxwzpw588Z58+b9mMApJ86BCJy0hE2TC8dkcgTLgDkwXoQEJLh3sZAbYCrjSFAacp2YBA8qFlrUNBA0a5QWu1QqnPzSkpcKyKRIeU/5rPrVSlJBENjkddr4kDEqlpP3lu2Xk5PPKRWrfHYadUGuXJMrWzJzKd9+ytZL8cpkK5OS1M8vlbXuK923+ryXojYpdC951W30Sl5iOa/+MbVNgx9+ayNBA5w2fLxCDtKY0EYOn9UEXiZAlcAojW09/rq+TATO2tpavI/zvltvvdUCZzrRH4xz7ty5AM4BWrnuz8DpZz2aLFCpWDQgkXWgvxAXZMIOjuM7GSoze8FMkaSBT7r2tHUOhaKXxRCIdFxTKmedRSvHlO30U1ZUnFoWJIjxO8FMGhsmWWVdUhnyGqnoyCh1/+t7m4Cb4ymXu/gBkQZG/iawy3vIvpDLoVhGtpd9op9L94s8rwHUBMg8Jr1CshyfX8ZOTWNBV6qWCxPw6nHAb/18GqjYf/QYyAxy6S3RY8j2aFe7bIPp/n79agLG/R048SLr888//97rrrvut0OGDNmVyZdOEElB3RnHOAGc8+fP/zGWo2gFeCACp56oUtlLRUmXnVQUUAwmV6V03eI7EjgAmkzsoPtXHieo0uVHtmeyxKWSkolAEnAo25LRasudBoFJqbEuqayphCSQyzkklbMJPCVjkfc0MQl9f9OzSeVvAnqTsWQCBz894GUkBDEd3lsqbhN4erGoICNAAqvJ8GP/SsNA14nrTK5a2R86lCHd7NowMhk8JjCT7dWMWMqo7BtTf2t5PhCBs66urvzcc8+9B8BpY5wpQHSvKh555JHr5s2bdw8Ypy5zoACnVKhQBDKOZ+oTba2T8eE417pJ16I8T1ciLXG5PAX3BXhyfSWTRbjYHJmTcP+SORK8Zf0yUUTHVvEsZBym2JEEBfmMVLoEb810vBSmCcikq1aDqb6/NlrYftkeXcbkytXPohWqHn8vgJXXyWQTE7DodrHPTMCp+1PLnAlMTW1kvxBUZOxWGilebFeCO9svvROyDhpZ0ijk+Mnn0W3wMwwox166inLvBZAWON0NULaOHj36xz/4wQ+eGT58+I7XQmXAXyYyzn+dN2/efbFYzAVO6Qra34HTS/l4WewmhaYVA9PxZVaqBhZa9pIdStZG4NZMFfXgHAAVAMvlCGSuAFy4g5mFyWUCXKOHa+nKlIpRPpdMxJHAxvbJrEUNvqgH95DPwr70Yx9U+CbFrZWx7kt5Lb7L5RbaeyBdfXosTcaQlA8NPBI45bWyf7zYpby3F+PV4EbAMa1zlO3Urk7dP6bnluMl5UNey2eRy20IZHIOaANBGy0y+Yltkc8q268ZppYTLxDWx2UfyzHR9zddJ8t46Qs9nhLAvdqIPpcZyHjuVOwc1NjYuHXMmDHTx48f/79Hjhy5Y2PhDPjLOOD86U9/es3cuXMfiMViA7X740ACTgq7jhFphWoqR+ubwGZSqjILU7q3NHuUO5zItkgwlUpUZtxyuQ3XAOrlDjiP7dIkoBKIufRBKy458fF8MrnDxAhpfOlYmAnwvJQ4FaSp72Vc1aQPZIxWg7VktPq5eC9er+cC7+XF4igXphigVLhSWZqUsgksTMe8dCHvbzK6NBBqVukF6LIvaBjo+/uBmAQuaZhrgJGGDevz+7TAueO1fNQ76Nvy8vKKCy64YMasWbN+E4lE4hmAmTueIVMaynbef//9P/z9738PV+1AbR3uj8ApladUaNqa1MpKMietdHGtBlwJsFImAHTSFawnPxQr45BkpNLti/YThPFdbjxApSytfoI628C3xXDzbZTFddw4gnvd4hgX35OxoiwTnwi+fBbWT/Ami5GuU8lgNZDyt+4PeQ3uobOatczq3xoMmKCiFbK8j1T0XspZy440luT1vD+fTzMuDeb6eSX40yihspRM0dSfEijl+EjA5vix/RLYTAxM9y8NPzk/5H1lP7Msz0v2p/tMj48JqC1wfhk4wTgvvvjiW++88077dpR0gTHejjJv3rzrFy9ePB2bvFOp8H7dFTg1G5CTTCpGWc5PAZoA1GTlm455TWiT0vEqq1meSTlJxaKZHpUePqUy8lJgfF7T83jVLRUv24L7ySQpCaw8R5BnG+VyBZMBoVmml0KVfanBRj636Zw2kmRdYV2dXgAdBOTSvS1BkdeZDA0JdCZgk3Ku228CIC857spxDYzaMJFt1/NWnvMaE782hTVqTPfV9YYp4yc3pmfxe950uWqrq6u3XnHFFZOmTZu2IF24kY56M4px8rVib7zxBt6OMkh3iAXOHT0SpHxkv2lFb5pQQZa2H3CyPq86NIPRbdOKzK99OEdFzD7Q9WvjRK4DNfWbdIWa3J5yHadWyvit26NlVsaNTWNn6tswCpH30a5Gea3+blIwpnWS8jpp/ISpO8iwCJLdroClSYbYDgucO1iglx7guXQBZ01NTTmAc+rUqc+lA+DSVWfGAefzzz+PF1kDOAda4NwFlOlinKg3FcDpZeFqxq2VnL63rkcrbpMLWsqJBiK9ztEEJlqZy77We716AYMGbC+DQioxLd9hQEO3X3sHdP0mxmpiRvo6Xcbr+UyM0ovZeBkEYZ7bBLgmINfGjQXOfQ+cEydOvMkyznRBvOM4YJzPP//8Na+//vrdFjh3CLxJ0QZZ7XKI9pRxeil3PyD3U7rJAqdmllopm4BDtlm6+02g58eIUY9mZLoOk9EhFbp2VXuBtBd4eBkkpmnoB+qmevQx02/2T5AcaVD0A2cT4JnuHUbOdb9Z4NxdMnR/mMYFx9LJOC1wphE0UTWA87nnnrtm0aJFP7au2r0HnOh7k4KUoBJG8ZqYhhdT8GMLWglLFunFOE2MyK89JqPES9mbDJFk2u8FUDiuXb1h2aA0KILa4gdqJkbqBdZ+/aMVtG5TGPlJ5jlM9WsZICB4yYHpuO6rZEDeC5S68lxBsutlgGkVva+BE1vuTZw40bpq04mdK1asyPuv//qva19//fU7i4qK3KxaKYw2xrmj98NY4hoY9KTWdWjg9GMAXsrET0GZ5MaLLXg9I4+HZTO6/iAlaKrXyxUZpGC9njdI4QUZGvq8nyvW617yOYMYsd9YhJGDILlLdkyS6R8LnLvrCj9DIV2Ms7a2tmLixIk3T5061b7IOl3guXr16vxf/vKX17zxxht3wlVrgXMXUCYDAnJ8OFmCFFgywGlqSxCQmO6PY12JcQaxGXneK37rxw50/5n604vx+LELqbiC+tDLcDEZPEEsw88I0m3yAyZdj9eY+hk4QUZfGGPKb/xl/RY49z1w4kXWEyZM+NEdd9zxv9OFG+moN6OSg9avX1/wxBNPXPvqq69iOYpNDuqUCG0pBimfrgCnZqgm8Ai6r1ZaqEMCsukeQcDJOr2A3aTMg4wM+WymGKl2DfuBoTYYwgCyLNPV5Rp+Y2FiFmGAOky/aUPMxFj9wDesDJnA1+sZTHLFdtrkoH2bHFRVVbVt4sSJU2fMmPFUOgAuXXVmFHCCcT755JM3vfTSS1PKysr66XiWddXuYqAmZW4SIq3okmENfvcIq7hNwOnF1vwUtx9wBoGCF5CYGJPuH91+rzb61aXB1fRbAoU0FrzGICw4hukbP0bq13a/60ztC1OXF2CGNUgs49xdC+j+8OrHdLlq6+rqwDhnTJ069dfpArl01JtRwIkOePjhh3+4YMEC7FXbHxmNcpNwC5wWOMMCRhATDFuPBc4vx9TDGBwWOP3nalAfhpVPP3ZvmgN7Gzirqqoqv/Wtb8188MEHfx6JROxetelAedQ5c+bM6+fPn39PcXFxf21tW+C0wBlWoVjg3OWiC2KGlnF6s7QwXhcTS/bz7ISR4TBlvDwX8mn2NeNsbGysOOuss2bfeuut/6t///4N6cKNVNebcYzzwQcfvGn+/Pl3lZaWusAp/yxwWuAMq1AscFrghKzYGOe+jXECOM8+++xZV1111RMjRoyoTzXApau+jAPOmTNn3jh37ty78D5OCL5O1MCrqx566CFnzJgx7musZAxP+unxzki86konL+iOlorYK27nFSeSVqVX7Ku771VrchkFxcW8LF1t3aKcjXGajR0/WbMxzsRuy9CC3L6mechrLHDuW+DEOs7zzz//4dtuu+3Xffv2tcCZLqR/+OGHr1+wYMHdxcXFLnBaxrlrn8kg949pTKRh4eXC0cctcO6K69kYp41xhp0PXvFDk7v3QIlxtrS0lJ9xxhmP/Nu//duvrKs2XajpOM6sWbN+OHfuXMQ43fdxWsZpgVMz1yClYzIwgpi1SbmZGLOXZ8GvTSaGbhnnl13Jfh4cP1CyjHOXcWPyqFH+/Jh7urJqW1patp5xxhlgnE8OHDiwMY3QkdKqM85V+9BDD/3rc889dy/fxyknjI1x2hinjXHu7nozeRGCXOnJnPcDfW2g6LJhGJhXGW2gWODcHRy14WXqH9N4ePVjuoCzrq5u67nnnvuT66677tfDhg1rTim6pbGyjAPO2bNnXzt37tz7Y7GY3TmoUzA0WHixFeuq9VYulnH6K14vxm2B09xvYdyvfgZKkNckrIFo0gVeIZl9wTjr6uq2nHfeefdfddVV/zVixIjWNGJdSqvOOOCcNWvW9+bMmfNALBYbrN81aBmnZZxhFUoQ+wlbj41x2hinjXHuStbivMG8wBr7TZs2OZ988omD996yn3AOuhr6u6WlZfPpp59+z+zZs38diUR2T1pJKdSltrKMA84HH3zwmv/+7/++r7i42AXO9vb2nT1igdMCZ1jAs8Bpl6NAVmxW7b7Nqq2rq9t40UUXTbnnnnvmpBba0ltbRgEnXiu2YMGCf124cOGMkpKSQQBNvkgY3WSB0wKnBU4b4zTFVmkoSdelBc59v8l7RUXF+u985zu3Tps27ffphbrU1p5RwLl8+fLonDlzvv/666/PiMViQ1tbW21WbedrxLyyOb2UiDzuBzZBsb8gN5VXu6TbJgjstNIzxYbsXrVfNpqC4mTJxC2TKRv2vn4JPX6xOVNM368uLetSnizj3LeMs6mpaf1ll112y5QpU/47tdCW3toyCjjBOOfNmwfgvKtHjx5DwDjtXrV2OQqmiAVOC5xaVfoZfQRfC5z7FjhramrWXXrppZPvuuuuP6QX6lJbe0YBZyKRyJ4+ffr3X3vttbt79uw5BJu8y9cuWVetddUGsdcgBmxiJybW7sWYk6lfTmXNsEyMi88m7+3FBMP2Q1c8Bn731OeSaZ/Jk+DFJHW7LePMzOUo1dXVa6688kq8yPpPqYW29NaWkcD5xhtvYOegIdgyz8Y4LeO0jHNXMqKO4ZnA2QRQQWBoXbW7etLLyAnqozCuaVNYwlRvsoaR6d5aDkx1sky61nE2NjauHjdu3M133HHHi+mFutTWnnHAOWXKlO+99dZb9xQWFrqMUy5JAeNsbm5296odPXq009i4YyMKCgTcebgGYFtZWenuZcvr/QQraKJ4We1e7EXWZ/eqjewcHy8lb1Imekysq/bL3oawsUY/Rh3ESMOwxLAsPExdXrJgGWf6GCcNU4TGoK+o7O8iJgAAIABJREFUR/Pz850hQ4bsNn+lrg1ajoJ6mpubv7j44otvnjFjxkuphbb01pZxwDlt2rTvvPXWW/cWFhYOBQjKPwucX1aeJqWoAcrPejUp364oU5N1q5miBU7/NZHWVbtLvq2rdveN7oM8BnvCODlPoW8BdqkEztra2lUTJkwA43w5vVCX2tozCjg7k4OuXrRoEfaqdYHTMk7rqtUAHIZpeQG5l5fASzHZDRDsBghhDclMdNVSvgmW3BscJCUVjLOurm7l1VdfPfm2226zwJlabN9VWyKRyJo+ffr3Fi5ceG9paekQnNHJQdZV+2VFppW+ZZzh3JphANgCpwXO/R04ucsPGSeeF8cKCwudwYMH75Gr1jLOdKGlqnfmzJmXzZ8//9GioqKDMICWcVrGaRmnTQ6yMc70xDjl9ngkKfjEv6Kioj0GztbW1i+++c1v/tuPf/zjF/YShKTkNhnlqsUTP/bYY5c8++yzP43FYsNo7bMnbIzTxjjDZhtaV63dco+Gt5fM+GWZavkx5RIkE4cNKms6H8YjopPoNGrI86bnNQEnmCfKpgI46+vrV5999tlTZ82atSAliLaXKslE4LzwmWee+VksFjsUg2oZp2WclnFaxmkZZ/oZJ120BM7i4mJn0KBBe+SqbWho+Py888770UMPPWSXo6QT9B977LHznnnmmV+UlJQczqUclnHunmFnsjL9supsVq05QzGMRW9jnDbGeaDEONMAnIn6+vqPLrzwwlvvvffeRenEjVTXnXGM89FHHz1jzpw5j8disWPi8Xg2FFdeXp67fhNAun37dmfatGnOxRdf7FpC2M82Go3i9TVuFhj3t4VbF+s8q6ur3fRqrk/CNQyCYx0ShQXlOUGki1iDjpfla5pc2lUk6wqyoP1cOxY4d387UZBi83PV6UQq7ZKzwGmBM0i+6Nb1m9PpdNV6Gc06g5zzwFSeco61nPheUlLilJaWuu5a6F7o2La2NvdtVfjOFQ+bN292PvroI7cc64cu7SwXb2ho+Me4ceNumTFjxp9TDW7prC/jgPOZZ5458vHHH/9fRUVFp2VlZeVhsDCQAMZYLObU1ta6mx/Mnj3bqaiocAeRzLS+vt4pKChws8Gw+QEGD+UBpqyHe9/SHeHV+V4gZ4EzOM4q+04DjylWZFI82jiwGyCEyxTW/Ruk9IPOm2J9YZi6yVgJU5eXLAQZmvo63v9A2KvWDzjlPNLlMKf4BiqAHXUkQRN6lNfgHPoS+hPX4Dg2mlm2bJmzbds29zvX3UMno75IJNJaW1v73ve+973bJk2a9Pd0Al2q68444HznnXcGTp48+f8rKio6K5FIxDAIGCQMMgYP32HdPPzww86RRx7pDhAAE6yU7+8EyPbo0cMtD2sJ/wikXKfkN7HDsD3NVEwKCMfszkF25yA/wDDJGo9JWTUBYlgA80tsscD55Xcra6MtbB/5gbufTpHyIQ2AZMbXDzxlncycpU4FEALwoCvxHXqzZ8+e7oupySqhw6BDcQx/qANAWVNT4yxZssT9TlnlizlQV2tra31ra+sbd9xxx79dcsklq1INbumsL+OAE51x3nnnzWppafluVlZWX7pVua6ooaHBHbDrr7/eueaaa1w2ib/Ot427g0/hYGIRBhNgCvDEJwWC7JMgyjRs1Ef3rmamlnFaxpksiFng3KXi/EBJ9msQ0GiwOZAZp6kv5DFpgFHHETihIwGaAL+ysjIXOPEdOhPH6ZZlfTgG4gK9CBft1q1bXUCFLiW5YZna2tqKPn36zLvzzjvvGTVqVFU6gS7VdWckcN5xxx3nvPLKK4+WlpYe297eHsGgYHAAmnAfEMzAOk877TR3X1oJgnDXIraJmCdBkktZEPcEeHJiyr1sNQtlqraXxek30SlolnFaxmmB0wJnkCHg53nw8xhog0ECCPUZt9HDbwInjwEgoVPBMpFFi+MkIwRQ7v9NNgkwXb9+vfPpp5+6wIryLEv3b2FhYce2bdtWjR07durPfvazjHqlmEucUo3Ee6O+F154YcgDDzzwi1gsdk5OTk4MA4fBASASADFAw4YNczd8R8o0WCiAkpYS3Qf0zRMEyT4JoHweChJ/y2QhC5y7s0wTEOhj0t1ocoub3FBe7m56AFhPGBeWV3u8jB1ttXu136uNfm2ywGmBc18Bp5R36DR68BivRN4IWCZYJOOcaCuTKaF3SS5wLcohQROxTXjwECJDGRAbuHPxG39NTU01ra2t79x77703X3TRRav3Bm6k8h4ZCZzYeu/yyy+/fdWqVTcXFRUNlokhEjzRUSeffLJz5513uqCKRCBkgjGzlhYWQZGfEAAMOgYa7FO7aAmyMh5gsvos4/ReW2aB05z56+eq1IaBjXHuMti8QiQmhiVZ2P6eHOTFOPX8k0wTpAL6EmyxV69eO8NbzCGRIS7JVlEn8knWrVvnumiZBITjAE6QEnzG4/GOysrKjaeeeupPf/WrX/0ilYC2t+rKSOBE5/znf/7n8U899dTPCwsLT87LyyukVQOgw3e4FfAdA/m1r33Nueuuu1x3Q1VVlWv1MPOLbIXgy9glU6bh/kV9+CetMQqkZJ6alVjgtMAZpLi0wWWBc/cdjcLmDFjgNM+1IPmT8gbdB2Ajy4SLFnoS/zqzYN0QFvUgvXZ8LzKOf/jhh87GjRt3Jl9KNoryncZfVX19/ft333337f/yL//y8d4Cu1TeJ2OBc/78+dl//OMfr//4448nl5aWDu/o6IgQxGTiDqweuGmPP/54Z8qUKc5BBx3kCgEGm2uO6JtnIByfzMBlQFsmD8nkIsk6+R0DRFcG6iY4m9yDmjV4uRu9XIWmiaGVrxegy2u9XIlhXaZe7QtyXdrlKLtYk5YPU59Kt7ZlnN2fcYZ10XuNfRjDQRvokk0S5FBGs0oAWV1dnXs5XKxglwBNSSJIMMjMJXkgmOIcCMnq1at35pOgbrnED9d1rotvq6iowDZ7P/nFL37xu1SC2d6sK2OBE5300ksvDX7sscem19TUjMvLy+uPAcTAY/0m/PJM8oEgIRloxIgRLnged9xxruWDOCY+ucaI37muk/54unQhRDiHepl9S+ExCS+u4yYKJoCjgOpzUjlKYTCBkAXOHQxFArCfsgoCcj2OQf2vgT+Z+k11W8a5fzHOZIHTa46bjG7qJRlqou4w5WBAz0FHkjhAl/Xt29f1wAE44Z5FXQA5JlhyXaYMY7GNqAcMdcuWLW4yEAgKjjGDlmAN5kp92d7eXhmLxf40c+bMGSeeeOKmvQl2qbxXRgMnOmLBggUj7r///gdLS0u/5jhOT4Ab3LQARS49oc9+06ZNTr9+/ZyLLrrIufrqq10hQiyz0+++M/aJ31SI8uWtFASu/8QnXLlejM6kVLVi9MuqlcDqxegscFrg7ApYB3klwp4PYslechtkHJru72XUBNVluo7XpDvGGRY4g/pbznO2HZ86618/K70S0GN0uQIomfAD3Yjf1JWSoaJ+ruHEfehqBTjSK7dy5UqXqAA0cS+UoecN3/EH0MS5vLy8mvLy8g/vu+++KZdeeul7qQSyvV1XxgMnOuz+++8f/fzzz+Mdnce3tbWVInsWg840aHxnYBqAioE966yznGuvvdY5+OCD3XNclsJ0a/xmQJuCShcwAZRJRGSiAFLujiEtNAqvBFJahHJbP6kA/NxwJmXkpTzlRDIJl5yEfgzIT2mZ7uGnCPRzmhSfSeH4PaNlnDtGQfa7n9IOUtRhz1vg7FpsUc+ZsP2t56sMT0n9xHGBTsIfgA4ACfaHf9CR3MSA+pGgScaI47heZMK6wIhrAZYrVqxwXbS8L8NTku3yvsiiraurW3b55Zc/MmPGjJf2NtCl+n77BXCiUyZNmnT5e++9N6Vnz57H1dbWRrnLBSwhuCAAoly3CYFAyjTcEzfddBM2VHD9+8gEYxo2l7egLNO0aeFJUOMejXTfMjlJgrEfsGiFzwlkgfPLWacWOHdsRh9GRoKMkWQUtZ/8WuD0B04vxi0ZpMlg9etXOQ9M+kNuYgCdB+BDCAv/8J15G9xOj3FMGvvyeuhR7vMNwEXIC7FM7EHL/cHJehm2IntlYlFJSUnTpk2bPv/GN77x0OzZs38fiUR2JH5k8N9+A5yJRCLnhz/84c8++eSTK6PRaBmECxm1EBYCH3fA4GbvXJd0wgknOFdeeaVz+umnu+wT7lfNNjnGBDQKF90RFHRYbRA0CBXuh3+8P+MGFFCvzRXQdgucFji9PAsWOL/8NiDNrnXfaaCiYZFuV20QszQZgxJP9JI3/ZyMWTIuCb0B3QWAxCf2lcUntyalQQ9wo1uV98C1XE1A1yxXK0CPIZa5YcOGneEpbnwg9RraLpOG8Lu2trZ61KhRv3v88cdviUQiX97DMAMBdL8BznffffeIn/zkJ09UV1ef5jhOlIKDAYd7Fus3IXQENQoTBIMWF3YZwjZ9xxxzjAu6AD/pZjVNAlxLVwWEkYJMawt1ML7AtwfoJSxhrPZkLNcgNqEtXD92EtZl6tU+L5YolX8QOzJZ5/oZrat2x6jKfjGNnZciT2b8gsqGva8f2JlkWLZdy9X+CpxybpjmCfQMQY6ACWYIwsANX6iL0H90p1In0fAnEUAZ6fLFeeSGADDhpSPLJOjSyIfu4762bBPaA/2aSCSae/fu/efbbrvt+6NHj16fgTj5pSbvF8C5aNGik2bNmnV3TU3N16LRaCmEAsCJxB8OMAcRQgHBImCS9aFnIBRw6+LtKuPGjXOzcFGHZIy0zgiSuF5moZFNciLz/jojlyDqpWSCFIGf4rDAaV8rFmSMBMlI2PNhjL4g40kbcqY6TcaeF5Bq48BUrrsxTtN81+1mm2VZ6DLoLAIl9RGNcy4DkctJyAjJMPnJLFm6Z+F5g1sWcUzoQYIu7s/kICYKyTGTXjnoP1zrOE5lv379/jRp0qT7zznnnC8yHTwzHjhfe+21Y/793//9nqqqqtFFRUW9MUgQFggSLR+5JR93+ddBdQ48yoJtIuZ5xhlnOBdeeKEzfPhw1+WB4/gn3Rx0V6BeujUA2hAurmOSVhyESiYTYTcjbgNI642sVWav4Zx29erJRlDH/WhBasasGQknDe8tmRsTpvwUmUkp+jGSIIVsUqJ+ypntlqw0WSbjBzJBzyf7K8xz+yn1IBDSitPPnb83gVP2ven5vNriBRayfFD/JwOesv9Yr+5Dk3zqZ9L1yDayPhPoUQ/o/pLPqw1vZsIS7EAAmOADPcMlJFIOqdvks0gvl2wjj0Pn0J0LoFyzZo0bx2RyENso45dkqyQOaBf+pHsXvzuvaY/H45v69u079+abb549duzYbZkMnhkNnIlEIjJp0qQ733///R8WFxcPoXDRyiHrxKADSDHAYJVwYXDxL4QF5ejSxeBjoAFoECYsbTnxxBOdsWPHOiNHjnQBFeAMAEW9cp0mN5KXmytI4aDFJicOrTu4kxkXlbt1kNniXgRGGRvlhssUbEwKvY5KT3QNptpN46cItbILo9g0WGuAMf32AyENMFL5mZR0WEAygXbQ81ng3NFrXmBnkiWvYyYQDOr/rgIn2yBBxASa0hiV8uElc6a5poGRc5n6QyblSO8V7gc9BR0FgMQ/hqAk+0M56RUjWHW+ust1vcr2siw+oQtxDjqrvLzcdcnipRhMHMJ9uB8tyuKPy0u4jA96C3oRiUPczJ2eNnxCt3Xu1tbU2Ni4csyYMfc89thjf4hEIvFMBc+MBs7f/e53o2bOnDm7V69eJ7a1teVDwLhTEDJmMfgYbAwohZRZsNy0WAbL6acne0QZbrkHATj88MPdDFwkEWE9KASOmyhAAOgOoWBB0PldTnBpEZJVEuzwm5sscJ0o4xGMpxJMeU8qAV0vrqMVaQIUKn15nVYIst1BgGdScvqYl0WvATkZ4ERZvxinBc5d4OY3nmHGT18fBHapBE7TOHYFOGWbwjJOL4OMc0d7sAhs9OhQz3DO0tUJI1y3AXOWLljoL3q4aJgT+NAm7TGiUU2dQdDU5fiqL7BLJv1AT6Ic7s/y+OS6dgAkdSraAt1H1gkiwTWhaLPe15Y7CTU0NGyPRqNvXXHFFXf+v5UQyy1w7uUeWL9+fdlNN930yJYtWy4uLi5238uJweLaJDIvukuxbnPVqlXuO+KwZy2EQMYp8Z1CzD0aGfOEgDJbFoLTp08f1407ZswY5+ijj975Tjpcj7J0teI7Fw3jek4u3hdtZPtkrFVOUplkxLgsj+GToCEtaE5E7a41KRnNmLwUURjAC6N4dRm/+0uR0vfXv/2AM4i1mJSi6XlN9VjGuXtCkpdxpQ0jLyDSQGu6zgTeXvX5GW5BbeJclrKg76Mz401uUoIkwYi6ioYt11eSTUJnQI/JBBzOZTJgAqLMqmU7tS6hwc21mwA5JPxg+R1Ak3WZZF6ub2e9fEkGl/mhviOPPNJ9C9U777zj6lX8o5sZz4K6O71zicbGxnW9e/d+9qabbpr5zW9+s3YvQ0dKbpexjPM//uM/zv2/7P0JuGVVda6Pn6IX6lQBigIKiooaMZpciTFejdIJiooRKA2gIBpEsKGrhipALaSqqJJIosF489ebPCoWhWIXlVIa+9jgtYstxt5gR1M90sjv/2544WMw194HORs4ZJ/nOc/eezVzzjXnGOMb35hjzvW2t71t6Q477LDbDTfcsGlmtyJwDO4tk9Jjc+fOHTvooIN6WWHvete7xv793/+9t4AXAEUYfHu5gm0cnx5OAdC7goXqebF9Hwz0KU95Sm/7KgREgON+GWWGhFKBUsir0gn+OdK53IV6aDv3OU+qR6t3WhW9tkPwrSBV77urwNkFRMMGzn6GN41013WDQHcEnP0zee8q4+yKPLSYcx3D1r0TcYhazl2XE+drCeuUigBHWckQ3cXMt48IkH5qGwRKHevUW9tixMt7qUuwMtPW+yiHNe0AJbaPPWo5Jjt0owTaV20HbcXmET0j14M/cz2IymH/nvOc5/SicOeff/7Ye97znh7wUzbtkJnCZG95tdj6VatWfX3//fefc/rpp39+UpDsbi5kSgLnj3/84y2OOuqoZWvXrj1w00033YHBYVCZjxRYBJPjjjtu7PnPf35vfsAMWfZVPO+889jr9lYARAAQHsph0FU6fjvpbdzfsIMbv1M/y11YxkJGLhvKP+ABD+gxUcIfGWIRSAVVPTq9Uo8LXC6VUREMBwuyKgqfufmCWbs6AXUe01AS9U/ECE0WcN5ZRjIolDYR1tAyepVZj4Cz+002XQxvInIzGcCZMtNvnPoBZxfznIh8tRinx3x1lvbGBD71Gf3L0Kvb21kvtsR5Te/NPsuQr7ZBXaYNvunJe3Mah+sAOICSN5YQlsVO5DUm8mR4VpujU8inKxX4zhwoAEruxz777DP2yEc+sgfELoeBmHzkIx+5NQIoo/U5b5nCumL69On/97jjjlu077773rxv6RT6m5LA+b73vW/X00477e3bb7/9X/zhD3+YDiBuu+22t843IhgMJEtKTjzxxJ7XA9vkGuP0CBxhBRgoKddcD0ACoJmFy6DLIJ2HdC0T1yK8Jh15HM8LoWJjhSc/+cm3bm+FIBv7V0ZUnLrWKsO5NWGAOmmXbDWV37kNN1/QWXCOpZZVQ01pYFSciRiuLmYwyMMfZFgHGTb6NL1xHQ77aMQ4b7NGLfY8iFEPOl/Hrwu8Bjk41bnpN25dz/HHAGfLqWqBbI0GcR9yZ+a+85AAEEyLf76j3xmqlYHKSGV66rM6p76mfrbCtEaMrJ/ySWwkIxaA41OgpawKrLeET3t2zGfk2dKx5jmoBxvJ8Uc96lG9XA+mq7gPYIa0YGsMB7/1rW8d+/KXv9zrXvbF1Ya6fd/1119PotDnDznkkFefdNJJ35tCmNlr6pQEzpe//OUv/MpXvrJw5syZj9Kb4WEYHMMBO+yww9g555zTy/YyQYfBJ7vWTQn4zmB/+tOfHvvQhz40dtlll/WEx80SFCTnKRESwVOmlkqmkFOmy17wzJgHJZzx+Mc/fmz77be/NYvXbfpUwnwWAUDDpPIJ1AKGdeZ8ZiurVkCtb3e5ZYHyrcqVoGzYaAScN6t1y2D/Tw/VVsfo3gacgk0XMHe13+MZchVQnMPjU5DE6QYU0Eed04wupd6qY07FGMqtwFj1T5uQIKu9gxiQFcu8JVEup3BoVzLUtDXKtI5n2h+/Yx8ATFgiyZHYMf4BSjJwqV9A5rl9JsKzZ555Zg+8dTDckMHpr+uvv/7yhz/84fPf8573vG8EnEPugZtuumnjPffcc+n111//4ptuumk7BsUt9BAWQI+QBC+u3n///W8XBsk3kiNMmRzEAH/+85/vhW+/+93v3gp8ZpQBnrJPBDi32hPEBNjMKONak4YAcdaEAqDMje688849b4xrBDS7j2OGZQd5xQmiKpuhG5VMDzK9Ss4B3oaoM/mIYxqAZBUVWKvhyfa3jGirrPp86d1nH7SYQGXFtT2VsSY7rW1JZyX7KduXQFnHKO9vAW0/RtTlnLTakeXU9tT+7xqDibZPB7Gy+i5HotaX42H/DOoHnyGBo9bnNQmMWX7W22/MU9ZStnU+TdTJxJ1M3qEdJv4JSh7juNM0tr8yV87bxyb6yCJz8xTux35xPXoKMKG7JPn87ne/u0MYVgBzy0/u95my/9Uv+05HPKetCMWyqxpTUNhXl9uZ9EP7AVZXI5A78qMf/WhsxYoVYz/4wQ96z+dUWa5x33TTTX87bdq0d8+ePfvkZz/72b8fMnRMavFTjnGee+65D3rzm9989pZbbvnczTfffCti+E5wK7A77bTT2Jve9KZb30JuSrcAJWAaJnFukMFlkL/whS+MfeITnxj72c9+1vOY+HPSPOcSFE7KTcaX4KWXikBSH+DO9QggAgaAwkj5J8TrRvQqhl5cznVkfRrvnPtMr9KkqQSYPK+yVqOjMcgtAzOb17lV72t5y3qaLcOlIcnkpPR8q2HUqFWQzTnalmYksCR7qCCXxnoi4OP9CcxZpsYpga/lZGQoLoE821C/Vwci76sMuPZXC4Ba7eq6r4JfC1iTuVTGlvV3Marsx9ZUQtf5bLPjYv+rn/Ua2ZJL2QyvCjI6zlWG1SFATMaornuv8u+1LWBPOU8d8rnd8Qw95J8wLKFRmCXJPpaNfcoMfoFSu1Hrzj6knYK0b4/CySdqx/p17Cm2KjeXoVyulbQgB7BbjrN5wje/+c0eA/7+97/fm2flOuyshOOW3I61GzZs+NiiRYuO2XvvvW82tFPkb8oB57Jly3ZZsWLF27faaqtnbLLJJpsiTA46AkBY4YUvfOHYnDlzeiELBpIBFbAER0OpCB/Cr7BzPSFchILX5lx88cW9EC7zoAy+m8Yzvgi1Gbn8dlI9M9PyuICNggg8tMP1TwAnbJT5Ubw8hNd1mAiaAH+L0N36Dr0MH6eh4ntdx1m9/fR2E7i8To84gdKwL8fou5xXzblUjVYLENWPGgWohlYgqMxAxVcRW8ZfB6MayzSCrZB7AlEFigpi1WOv7cg5pEGglffWceo6V8G6MvBBwNkC+7xnkGMyCNj69aXPlPJRAUrn1jbV8+pchiOz75xjNEnHDU9kb+pk5hQoNzprlp1OkN8zkZA2eq36onxWBy7lWbBOgBUoBUgceOwZNoB2Cfjekw4c353a4fqc5vGZvN6wqevRmUoiN+OJT3zi2EMf+tBbs/XVc8pyHpdnN+sXGwuwApgs+UNuyCn5xje+0ZtnVc+zncyurVq16lPHHXfcMUccccR/TRHMvNlZmUqNpa2nnnrqbh//+Mf/5X73u9+Tb7zxxmlQf4HE8ML8+fN7W+UhfO6sw70CFN8BWJerOPktiLk4WC+OsAPg+aUvfannQZGaLThmNlp6jAgo7cpXmemJ53V+12uVYZKV+5CHPKS3PopPgBQPkOf1WupwD0kNoArFNabKa7zS6FTWUgFC5aueafVgE0g0GjyDISI9WMO+slaZu4yzy4im4W4BsOUkKLVAJ58j25zAV8vgngS+bGOr/xIkrKPFOFtg1mp/raNVfoux9gPoqu8VkLvkosv5wDBXUEvGmf3bAqAWk0tQ6QfMtBVd5RrDpwJj6rDgUp0eASj7oDpogmHVA8tK+fNYjQ4p++q6c6QCGudlk4Aj85UAJezSHATKVrezfyuzTvCVBQp61qttoj2+PpH3ErMz2mMe85geOdB5MPlJB0T95be7DrGunejcf/zHf/TCxoanueanP/1pj4B4v33Ns9x4441/2LBhw5dnzZr1itmzZ39zKmHRlAPOBQsW7L5y5cp/4aXVGYbRWGCoFy1a1IvJcx5PiFCBniGA6QYIslC9Vtgog871GH73u+VeY/Tf/va3e3OhX/3qV8dY1qJxNdRDO1QmQzUKbCphHhNkDAvxDG7mwDMgZGTw7rjjjr2Mtsc+9rFjj3jEI3pLXjhunc49pIFIRtYy4jWrLkGd9lfGUQGO61XkNHIaSRlvgqphYMrSgxZszQbW2GSf5Xir2NXjr4Y/GVhLMbNPNDp5TzWk1dC3+jTbUDzsOzTB/m6BfQvk0si3jHqCq+yiAkYCa7avOk8a6zxe29kC/Gx3ZpG37tUwCyIJCpQjE9SJRZ4ERdlP1lf7R0aU4JkgmP1fZbtf/1cn2GtTzgV2r1Wfcmcwwq6AJYBj9Iv7tCeDGL+RM/rJurMvzfTXwXAKCNBjusipIhJ/uCYTKd2eVLBUnhL4sZHf+c53xrCLbhhjrgTnSCCCgXKPoWTlimdjPeeLX/zio0466aSvjIBziD0we/bsp3384x9/+7bbbvsnCjoDggABbgggwLnffvv1vuvxIlQOOALCYD/84Q+/NRThshAYHGCL4CLICLtrrxhoBZpJeZKIPvvZz/a8Lf4ROtrgwl8VIN/EIjgijIahnGQXJPVYaRNKRf18NymF1sAMAAAgAElEQVSA8wg9/7vssksvyQgwxWsk2UgFlXWmV6qhV5llfGmw0vh0JTck+0tD1DLsKQ5pRDjuHGyXYdOpMBwsoAq+Oj/JZnRcBNdsXwWRyjgr8Kjsg4Ct1QcJbAkw2R8a7i5w6zqfst/1fNWJ6GpjPnNtp05lbZ/jXxlhvV/HTZmurMkXK6cxzjnCVig+ZazKWwV5x0/58Hxtf/ZB17XVsejSK59FxxkZJkqF0w6b9B9bg83QNpmh6nSHDpxAWOUGOTfZpuX0cD32yH2w6Quy/LETTAdhM8iOdQoo5YW6DeM6dunIuPkKETg2VaAtXM8z8RwSDZgzwJmhZepR76666qpvv/zlLz/qta997ReGCBuTXvSUY5ynnHLKnhdeeOE54+Pjj2YAHDCFiIGqwAmQ6XkhaMwbnHbaab3BZS6UuUTKcocLBJny3GvWULCGHgFxnRZCR3kAMeHcb33rWz1Bojzq0jBU8FAYBeMEORXGMhBSw656joalBR7f8g4LZW4CD5JJfYBVsKdc6tEY2n9VYRJw0nBXtuV1Gp0KiipaLS8NeJbZMoi1TutogYJgmoZP8Mq51wydCbJ5T4Jw9lUFVdqQjK3FPjUQ9V7lIb3wavRte9X6fPYaKqwMt/ZTllWdAc+lU+RURI5tOlmZG6BxzPnCdIi4LwE0wbhLRlIXav/wuwJrlZccP5832+H2cS3HrfZPa6wFGNrBd+wBzi52CKDE+cau8OmOY7Iv+y71odoJIzoJ+Hmfsmo7uN+MeL7zfDjYkATyJwjFYiO4T8B0GU06+Okw64jTBuwPEbmvfe1rPXvHNJJ5H5Rpdi1lEw1j4wUIhn2etoLv69at+/6BBx549Mknn/ypSUe3IRY45YBz3rx5z7zkkkveusUWW+yqYUY59I4Y/DPOOKO31kil4TMzzhjcF7/4xWMXXXRRb7cf5kPZko9QqBPwhgAZcJXLYw4+RsvtrjgGOBN6wQsjlMsnE+NcI9OsIKVx1OvkOtkVRiZZqNdqsPX2ZWVen0wWoWYOAsUBRNlPkt8wU8DffXkFFhU0wz6ptBoPwScVTDlN4KnAmEa5Gs4uQ5Wg03VPGvOsowtYuox2Pn8F8jTc+Yz1nnqd7RdY01C2wCAB2DHusgEVKOr1/s4+yXuqgazOj45TyylKYO8CYY/XZ8++tX/yM8enn/2z3OyzdACq/NX+tn+yfdmOnMoQ9CkDHUNnYFgAJNEtwZJjzitm/wmYtEn50YbxafRHYMx7E3B0xpBtHQvOazewdZABAJIkH8ANvce22Db7H8fIXA9XH5gpbNIlZQuIAOanPvWp3rMy5QUQ016d1ipbAOcPf/jDW4fQZ6d+nmPNmjU/PPDAA49ZsGDBJ4eIc5Ne9JQDzrlz5x5wySWX/P3WW2/98NydXyVGCGCcbMDupu3OAzhY/D7iiCN6a4wEV9ZXzpo1qweihDMAUAGZATbOrzdNfQkiAlwKH+374he/2Mss45/1pd7n5LqbNqiMlGnCE+1PYHa+xnnDW/Z9vFVoaaceuKFgBVWlon7AlOw5ABR2CjPlE0XIULNsPtlaNTyp0NknHle5K/hpiGsoMg1gevgtyactlp/AWdlLGn0NTTW0XYY/29C6JkOV9Rlb4NBVzyCgqCCe/dHvnHNk9TkSvGvf5hgLHC1gaTkWLRlIPdHpS7lJEEkg47jGO6/J8TQalHKunutMy3aUiyzLZxAUW3JkWBLG6Hwk4Vb0m2MyvAqMlJ1hZ/uhOkY6vMku6R8TagznJjNUN01+pB7sFs4xZIBkQrJaM/lOcHOM1IXaB/aTgMlzYivJ7SCvw/lmPmGxLUeQsmmTU1pOR1m39vKqq6768RFHHHHMCSeccOGko9sQC5xywHnSSSfNuvjii5dtu+22O+fE/yDgVEgAHYTt6KOP7oEa4QTi/IZVWE958MEH99YvwUBhkG4TlUBK3ZRjokIqRRpBwAiBBTTxvIj3E9blTS2sczIhyQXW1IGiGA528wSFFYFz+QwgjVAL5inAhs1MznCeRICWpZqE5BsaaC+gioeK4vFJ/+DBArjpgfPMltMCwAxxJ2CkwaW8ykaSHaXsp6J7T85RtthReueyTw1pK4ya4FcNQhqcCkQVWCoQtp6/BVj1WPZrC4j7AWKCQLYngTEZSy2fe4xeVOcjxyINbX3uFmhlmy0/ATfP6xgl28v25/h7PFmou9U49s4/ZojZaQ/0Cn0jmxV9dU4SB9X5SPXJcsxyFwgqGKXjYd+kfKdTz3kjAIK//aNDQRv5xx5gOwBKHF8cf5gl4Mm1PpOAVZ0cI0b0D+eyf4ysYYuYeiJ6hu2ibdgCbRR1MU96V4Bz9erVP5s1a9ar5s2b95Eh4tykFz3lgHPx4sUHvv/97z97fHz8IS1jXRkn1yiMChyf7GGLBwVwuhbT/RaJ4TNHCGtlg3gABMA1I01mh/CasSvT0/vkNwIoKxa43JSZRcKA59e//vXeLhukbXMvgux8icqJoPocnuNa/nOdZgWZCgLJtjhHm2iPoRmZtfv5Ct4AJoBKP/APUwVcmTtBaXlOsx1bhh+lFGCrAU8gbkl3GknZShrxTC5q3Z+GWQOf5SQDqmyptjWZQnrp9nO/zy6Q7Aeoea5Vdh3fvMb6qo602pGGL417BcfsD/siGWEdq2Rc2ffZNuXZ87JBxyWTs/JcOjGCAPLr+kzO++zp1CDr6CzMkU/nHgFL372LTDnfp9OsIyroqT/Kl7qafcZ3l+voQFRHR2Zm31GPz+O1ghrPhv4RHQIocezRP3XIqFg68doN22VZ2iOjWi7j4bkgCzj43/ve93qbGTAGRsGM0HE/+g+zvSvAuWbNml8ecMABc0477bRzJx3dhljglAPOpUuXvvA973nPWePj4w9WGFMRK3Cm58Z35vQQniOPPLK3ybsvpFYp9WBNyAEgAFCydAFTBEjvk/rd7xaw4bfJOwqTisFnKoSKhteGdwt4ykYBUeZMUGTKMRHJ51To03Aa5tEz13BU9ma7DCvpPXK/Rsc+c05E4EulQZn02gFV+hFAFWCZX2EeFUVX8dIpMGxEv6VBNiyssbOOvCb1oQJDNd72hx57BZsE7nqvxrEymay/MiL7vYYWBwFnF4AmI2yBp89fQTaNZwtQsz9bz12BNwHDZ6yAmw5N3p8OW7Jg7s911rWPuDbZo7qUsidbynwGk3EARo7zSWgVsNT5FRh1eNNhUDf4TMaX4KNsGGat4JFA2+qn6qA4tcLzCm7OVWKDAEqWoLGWG5vDH9fxHOl02EfpOLRkT3mBteo8Y3dgmDj02CTXeGoPck6VdnLvbrvtdpeA85prrvn1vvvue/rBBx/8f3bffffrh4h1k1r0lAPOZcuWHbZ8+fKlM2bM6L1OzBi+glKBk8FGAA2xuGj38MMP7wGVHq0grMBrUN2wHWbKXo28FYAJd0KXXINCCoLpLdIeQ6gmEnBMAyQjdQNll7AgkHi/CDHzCSQY4fXx280OLNtUdOvhXg1IBWy9f0OjAlQmQeX8UoZubLcgRj0+k/1G+bJgjplR7C4jOAiAKP3GJ94qz4z3LGP1Oewbx83n0qOWjdjeZDOes82eyzBtgmcXICczSI1LcOC70wWVSSQ7TSOpwRr02QLJiQBgl3Wo4FiBNvskGZp9nIBXr61tTUdD+UpHQueUY8kodQizL52jVb/dKAC9c701DibMEV2C4emUUT5AaduVr3QunfbQ4W05BdWpEUgoz3WPfDcBUAc5nfF0dtMZ4BnsY/SBd/qiEyTzwShxSNEld94x6Sgdcx2JBF3lIB3GHAPnT6mfpXSwSz7pR5Mp7RPq1C5SrtEjHGPIRHUa1EH6ZNAc54YNG3695557Lnr1q1/9/9txxx3XTyq6DbGwKQecixYteul55513xvj4+A4TYZwKgYyMQUXYX/GKV/TSqRFUs2b1PgUd7+EzU7cRbLJ2n/SkJ/VeGyaQGOL0foTN/RlzriONmKEulZPrcpE3ZSLMLHkBSPEG2YlDIVeJE2z0grP9esgpSzoeGjKdEMNnGpEKIva7IJxJB2kgUskEWo2lxoD28x3HBE+acDkKyT/RAT45B9ACvnzXQNEO2mydaZA1EhmqTZD0vIY7+yUNZYKIIJxAofOS13WV1QLDapQrOLbOVyCvjkPXPZU1Uo6GvxWZ4HwmF1W2mOdzDJIl55jYrmRu6hYAV/9d2mHmKp86hupQzsEKiCmvqdNp4H0WZKk6ZJUhCxrKivKu7Ob96WSmzssoZW0m/TFHCUA6V0mkRpug/vlpvbY9wbM1fjrLbjICMLu+EkDDpnzlK1+5NVyt7cl6zevgHPVLEpQbtue7K8C5evXq3+65555LXvrSl/6f3Xbbbe0QsW5Si55ywHnmmWe+bMWKFW+cMWPG9jnAfu/KqkVB3UiAa5YuXdp7WzmD7h60lOF6T4TX+TPv41oU1YQdjpPBxmJi3k2H8Lv7hm8dcQ6yzi3IojLbTMaqMaAN/gsSfhLKRfBhpKZ8s37U9muwzMSTLdIOAdJjflZgkK2rqIKNHqXtTWORICwb45hescY2520pL1lCGljGRjChHPoL8AREMQIYGtewcgzg5bhJW/zmu2NYGZSGLI1Rfc5+bC23nKuaSZk1lJpGpgWwPnuCXwJ+rSOvr3W1nKVq5HKJVQvYHc/anvytTOGA0h/+CxZ8AoqwGz7RH6c7iK7IlFqf6SQJjDkeyK7tTrlJkK/RAOWX4xmJUE49rpOXjmH2P9eb3KO86QjIynh2bIDOHwzSLHaXhdnHyqJOmCBlWJl2yRSVUcrWKRUodZz5nWu4WUKC0826SiJYOOS+U1jd0r7YBrcj9XhGqtA9bN5dAc4NGzb8bq+99lp6/PHH//N22223ZlLRbYiFTTngXLRo0d+df/75CwFOFcD+YbBbc5wKlIMOi2ErKN7Dyatv2MCdcA+sxuQdwUBDq+ft7h4KlooHO2Ki/GlPe1pvuz/mJQQik29sp54byia4VG84nykNQg1nUS+GivYTvmLdKPOlZMEBpEz0A6YaeNeUqoBphKxTAyUwtjx12ySrTRahwa6GTqaaxtj+y3vSw04vV9D1HtogAxE0NADO11InY+o8sfOtGAw9cPqEfuTf6zTIjrdGVaZg/2kwdQyUF+UjjXqrr5OdtUDT50pQa9mDCmwVLAQl2ZGOSxp4Q+2GGilTo+2m4wl6lOF7H72HMsz8dA4u+8BwqWMpMNpv6p3Ap/NqP/mcgkrLMWk5JF3OR7LUdJjUM3WYT49ZlgCbbBI5wIEDVJjvZ5cepiZglUxTmGxku53j9bcsNZl+6oZOiiBqBr7yajm0A9kFLA3FApY4L/w5DtpGxyP1SAB2TBhbI1vUb1bvXQHONWvWXLnXXnst+7u/+7u37brrrquHiHWTWvSUA84lS5a84rzzznvDzJkzH1SNRRdwqrgCAYNOogCfeF2f/OQnxz760Y/2vDAEAwOawKJXyTGNtqFGs2b1trkGRWFzdtgoQIoCYai5BoATDLI9aTgqK5EV6FmmAhuK1gCgLLJljBxLXvhHeXAWCNEAqEz+55sTZLYqoOBVw3Mtr16D47UZ6kqGN8j4Z10CT5ZZwcA2phGoYWMNXwJ0apCGuYKW9WIcEvD57pysobsEVQ26bVWOknXbXq+pRj3lusp47cN04ASvBD77Q8DMMCNluUbQCIiGOUEkwSyBxv73fJ7z2XL8quXKa6qDkdemLKQzlk5F6oTXp4Mm8GV0hWMJUC1ZT5nTsRBsKIvpBQCRZVv84zADmoCn0R7r0XHX4U+mafu9Juf7dbw9pizn/LAOMc+OA43zzLQO+RGye+qwTY6z0zKps9mvjovX6SByvftn30XgvOqZz3zmsiOPPPKcEXBOKrbfvrAEzpYRaTFOBhlhyBAGwKGCAZSEPQFQ38OJkHIcgfRelU6BNSNUYVT4AFM3NiBUyFon3jzARDprrWC2lAmIVgORTEWv0mMpoDxLJiekc2D4F+XIdHoNJc9OqBfvk1Av35k/hZ3SfxpNPn1m66thXa5RmTQQaaSSHSYIaADTKPsM2Qcal2okNWgcrwCUfZp1tq6rwFSvT8PZAhMZr3VqfJN55rkqs13g6T3pULXUqhq5ek0FjxagdYGc8twFeBy3fdXZq86A49xyBOq12Yf5fFX+laEEVvu3gmDVqwRqr+WadLw4zvg6FUCkivAqma38o8fkSLgGWzuT+pNz8Fmnzyzz13H1ee17HWPnGGWoOHTu5oO9gQg4ZcMnuo1T5FSH+msbs34dw1b7BHkjL+o/7aR+7NldAc5169Zdvffeey8dAecQQZOilyxZ8nfLly9/4/j4+ANTcfnej3EKAioQYGGYFGUxTAczA0AvvfTSHgNF8AAihIQ/BddQoJPnGnCTEbjW5BmEmPtQPEI3pHAzqU5oF0VUYV0CgyCqSJm9alhLY43AG9rJkJLCThucN9HIyIgEOdqEggGYKiCsFE8VpgpLNZ2fT8pLJaxMVUOgMRo0h6a4JCjRRsu1v1VuDYoGTiemGk+NgIqe9bTANAEyRbgyEgHAa9LrbxnnBMbKanUwsr5BQFqBJ4E17/W77a/A7nPU8y2QrO1uqXg/h6PWnX2d39MA57Okk5WgZP8p70ZLatShstQEY5P3DG2i50SI0EtYIzqK88sx58vVHe1NOo72Qx13ny3ZZjp/9pH6yu+0Lfx2kxLqxfklDMs0E3YKPfXdxMkqtUvqjf1nBMR8h5YjwT3aM+xd2jTuo6+Yr70rwHnllVeuetaznrXspJNO+ocHPvCBo+SgYeEnjPOCCy54w/Tp0x8kMKRRbG2AIKgKMggE7CrnBwyRuDsOoQ5eynrhhRf25g0BDUIT/HO/IOccl3UobIKLoUA3yyYZAoACsJj3QDERPsCUFHSOcw+p9VxHfbK2ZDECSQJGZWeCl56zSmI4lza7LaGAamhRRaJulwCgrDBzPFrAlZCQm1jr4XKfoFfBKMEvnyXDbGmU+C57TmD1eo2BbRUMfG7L8ngatWQrFQwrM07D73eNRRq6Fkh2AZbH03C1QGsQ4+wHzF3P1WJ99lneIzupwNm6NscgDWk6dllvyq1ykew1ddqx11FslZngmI4lOqS8CI7ouNna6CDfSdoh5Iq+ySAzomNfVH2TUar/lSGno1nZuSBqmToC2grnFLU36B+RIZx7pluwES6z0w7x26kg7jO5pwJkjnN1WLQFfLoMxud3nGWcdxU416xZc80BBxxwxqmnnnr2tGnTbhgWbkx2uVNqjvOyyy7b9IILLnjNv//7v8+dOXPmdnRGGpZ+jFMDp5IKnOlppefqkhAEkVeHXXzxxb39GhFWw7gKuIpte/R89RgFNM6bXALwurky52G2eLUsdWFulD0geV2YysM1JiGoaJVFJ2CoGO6WJPtNg2QYKj1fy9bYpMda5+boL3deIVTkWyEAV4EVr5h6zDLOUBT1umWZRiPnUDRGlXFUAEwwS9YniNcxrsCRQFBBooY6K3BWEEkgs/39gDkjFC3l7mKEOWa1zmoUKxjm83eBaKst6keWl5nTtR1eXx2RvE75qmNk/anfOkJGNbiX/kuZMuuaMCoM0W3omHck98CsazfjyIhFJkflOGszqD913bGvgK9Dl8BYoxHp1Go3sl/c4QigxHHnE/0ymcs2OZVk2/jU+dVpV4bUX9piHzqW6ZSog+qd9/sp0BKlm4xQ7fOe97yTTz311LdPNrgNs7wpBZyXX3755v/6r//6ipUrV84fHx9/EIOdhqUFnHZeXodAEKrFmOd8oECnMrosxJRt5gPJxOUNAYQxYWJ4qwKYgJnhUMqgDupUeRRsFUWDkJP+Jh+RoYtwwkZJPDBcRFlmPKbSqAgqsx5xKmXWm3N0KmNeq8ecxiANFeGayh7SCBoG9q32OCyAKb9xHPCcucYdXTKZRWfH/kwAzTZ6vD4jx3OdXzoWGkDHLPskgTkZhNfYTxq87P+8N69PQ9z63nXM9nUZgQSlVn0CWwXvLmDq17bWOeUs+17DqjNUnQ0BRf1N+U/ZclwzgsF3dAAgBBwx3vwmtGp41SUYXCt4VB1TFpLtVTCj3elwJzPLiEXKjs9KudwrY3OcjERVhsw4oQPoB04noVd0w8gWdQj2thnZMDyrzUoGbBg6+1tZVXZ1kJNl6vDZZurTfvmsTm9NAnBeM2vWrDmzZ8/+l2EC3WSXPaWAE8b5wQ9+8OiPf/zjC7baaqsecOZfF+Nk0NNb4j6BE4EFpBAcvTlZhozM0AfXcS+Gnz1m+WcBsaxO9qT3Rns45gJk1xIaXtEo1tBjGkPaSWgJI0EoiaQE5klZP4WhwIAYeuU+2iwzFbRTaVUKlY828Xw5l5fKr9LVkKGKr6Km160DoPdrf+gwZDvd6UUG7gbbhKXcS9S5V9mtDoPtToOm8fMZci9fjZb9nve1QCEBUmegBaTpKKQ8cn9l2F0ANhFgrGVbbx5P2eF4Pmu9Po2oz5pOCMcq8GafZV0JlnkN9ydIpDwZCnQ5UG5+gcwDFMwz8m9mujIkmApMOkLKv0w2HQ/bm45OOhsJppYn+DtXns8psKbsqMvqmbKv84zM4jCSGAjowSZxwvl0m03u0SYZlk72l6wTx7U60DJL+kJGqhza//Sf0S/bnw6ADqwOc05z6YRMBuO88sorr3nRi1504oIFC9452eA2zPKmFHBeeumlm1x00UVHXXjhhacxx6kXlIa+znHKIlNpEjgVrBZwaPj0WgWHTAbAM4SB8gYBJukx/Jx3LlTDnaGaDHl2zdckmAoQfMoQURjqAEiZp4GR4v25qNodbbgnE4xUaD3OFvBpHHz+NC7VcCaTFhRUNn9rhDRMCbIZqkzj7TWGlZyD1vA4B8ynO8vwHYPEvwyWcxgofruzk2yAsjJ5qQXAettp/H0ujmX/JSNOkKpMMB2+BNZqwFrAWJ3FCpTVAUiD2VVegoFyWgG/OiSeF8jcZAKw418n0WUZAKE5AgCkIVPfDpRJZgnegpyGPB0Xn8ewo45R9ncCoPLl+dTJ2q+tfq7XJ9DYLvQ5HUTaiOwRYYFNApJ8+loypzC4x1cSppOm/UrnLPVH8Lbequupw87xZpSA+2rftsY6y3FMJgM4yao96KCDjp87d+6/DRPoJrvsKQWcN91008bz5s17+SWXXPL6LbfccnuZYD/gTKMg80QIXMeYxirBNY2oDFTFyTANgoeRQGDJRGUbP5goCTQYarNyzYi1DD1RAUzF4LhgkoBtnQKqgOIn7fXtCQAorNSN1/XYXZOY8xvuf6tnXg2NISBZZIJDAmwamjTmev7pzef5BF6Pp+JWENb4OW60r9adjMK9hjUoLtDPnWv4DrtlvJzn4nsu5Pf+dGISZGQ6CfB65tUIC7ypzNknFWgroKcRrX2WzoflKDM6fLInziuXApfrAQ3dITsaXDeSQI4wmvx26kD2ogHPjSISCGxvOlMJSAn8jqPy4O90XCoDzGuzn1vXqXu2Jcu1HU5VCFB85lxhOl6Ug9wIkkRIcKbTccvphwRyZcU2KfcZKavG32uqM5vX2dac7qjOVev+dAo4n7aT+3lWbNtdTQ5atWrVVYcddthrTzzxxHdPNrgNs7wpB5wnn3zy31166aWnbbXVVjvkvKWD2bVzUB38iQJnl9LqgWFU3D0FI4JXjREmkYjMXBKLqAsmivC5HVx6vRqyalBlOwkkGkGNiCAruGO43Qia8jB8ePuEdH0dmCyV8C/tTbC0HzMMms5FVSgZczV+KnUqdwswco7RZ6phsi4FoOycg6pGk/tM/qDsdFY0VPn8Gi37kmvMUkxATA+dvq6sKEPVRghq1KD2eTXsrWdOUPR87rwj40rGpmPhOQ2ofVV3RqrML0O1LfaWe93ap8lW8/50DtK5sU3ez6ftsC9TvpIxOa7pTHit56rMKoccN/lOHeRe6+Q6p2dSBzmvUwV7BCBhkoRa0XMdMPU325FON+czBJxOtXqYjlF1KqojYRtz/JWPqnuWW+Wu1uf5YQEnOwcddNBBrz355JPfM0ygm+yypxRwEqpduXLlkRdddBGMcwcFz07h9x8DnMlqUgETMKqQel0aboUOIVPxCRuSEQeQsg0eqeTMkfKH116TBxR+PcUsX+HXcGT7BFTbpZGtr+3iOteD4TGScES2IWDKYm6SnQBaGYXAoAIlKFBXhpqzPX7P5JwEfcPOAn96vQIcZbsBfzV+9lMa6TQsLSPTal+XcbU+n897k3Hbx/Z5yo6ykM+Xyuv5Gqqv4JK/W8avMvrsJ64flBzkOtku4Laf1ZHqIGX7qh61+ttnUJ8w7LJ87ncu0Hl6pzq8z/7SEclQf7JYwTid63xGn0tGqb7V/narQacAAElDroCk0RvrSdCq46W86HTrKHQ5lwluVbZSvtKhyjrSkeznmKXu3d3AuW7duisPPPDA4+bNmzdinJON7pYHcH7iE594KcA5Pj6+Y4IZ1/wxwFkNTTWCaQwGGek0Liqx4VGZD0rHJsvf/va3ewkBLN1A+fgzvGWbqpHOfvUay02POMHAhcv2VRo+7sFwJguhDYAnIAqgss4UEPXtJDyPczi0B4OSClrDXpSXbCsdAz3+VHzHUYCuwFqVXMZax83fnk8jlGCQyynsozQeyT4rqKWT0gK1bFM93wL5lt4kY24Bc72nPoOhxDSc2YfZfy2gq/P7eS/XZ/9UGbQtymqWn/KYDpV97LFkfzXawrkqH8k2bZ99n4xc55PreUY3pjcRDecWYEQ/3ZzeqSH1hbrRnyzXMTIqUeW/Sw5ybLO/KuDZx/aFS+K65E+b1QqHV2c05bWeGxbj/M1vfnPloYceetyCBQtGwDks4GSOc+7cua9cuXLlgvHx8e0TWIYBnGncqvenoKaiqizJOPWczXBzH1w3ZmculAQj9pXkOx6tyojSwQpbrEMFSjA3LJeGv3rC9niSbxkAACAASURBVJmGo+WF6xFrVCgXlkpYE1Alu5fQr8sAfFsJz5bzZ9SRoTzLq8bQNqS37LEaossxT4bRcio4puGvDlKGzCpgVMNVAavKgte37usqqwVSLaOajL2lVwJXPWe9yke//mmdq2BXdSFlLOtIQEoHrhrldHqT7aUO5RilzKScqPc5d+hmAMqxjht9SUQKQPR9nnz3fZ7uI506kRsAGPZ0Ppu6dWxst2NoGx2/2sfpIKSzk7pu+9OxFLRzeif7tpZV5b62ozoadzfj5LVis2bNgnGeOyzcGEa5UypUSwecccYZR3z4wx9edL/73a/3IusMxUwG46yCq2K22IbgpdLwW4EWMHP+xmUohnEp08QigRRGyjZaACneLoue+eNZa/o496PYWX+GimxPCk4F4Qx1qaAqIv2ZcyQt4HMpDJ+AvGBKCFiWKui6Ds0EEj7dZNxnsH0qdIYyqxdcQ/Vp3FvfEwA9b/JTKwSZRqSCY3VcqnLmcyQgJivjeMpvVxn1nizPOdRqEFtsooI11ySjTSNa5aR1L8eMliij6dhQhlnH9n0+i89uvTqcXCPYVYZVneWcA6Uc5MllTL4xiE8B0tCqdRqqrQ6Zz4v8ZRTF4zK+CowJunzXkUhwy7GqDoHjZvn5mWBZmWg6c57rBxhd19/dwLl+/frf7bfffvMWLlz4jmEA3LDKnHLAeeaZZ774/PPPX7L55pvvWL2uyQTO9LhVMo6lp4xQJ6PhnIogCLW8bgGIezPTMcNTLqPwbSZk7MJIMQCGqAzTWIdlVbC33JYBpi01BMZ1gnRlbBpty8JwyBgEgjTm7ulL2wBO30voujwYLOFfk5hMyc/+T+ZBexNsbF8CZTUqafRbfZBGPUGpAptjnwyraw4zDWwCdgI05dWs4DSwPkdlrVWm6j3ZFwmMLTAU+NIxyD5KA9tqWw2F57O2ZN+y1RWdKPshQUrHuIZSAUazoH2/J3rhntAZhXEdqfXI0E32ctpB3a5Apnznczougm4FqhwvdVG5tT+rg6HTYD3qpL9tn3VVm5RjnmBhX9Sxz9/Z/rsbONetW/ebpz/96acsW7bsndOmTbtxWEA32eVOReB86YoVK86AcboG0065J4AzBTmNbhXGajBUFF/tpYLpuWu0CX+ioCgw1+Z+lczDwEjdXYR7KhB3GeJUzDTQGcKV0clca3iXsmvyTAJrqz8qs6O9uQSC3wCpCUp8umaVT5mtm/JrgJJpp/FOw1UZVT53i6FxTMeiglcyzgou1XC2lNZrWo5Jjhn1W5fGM/vYEGWX7CXIC2R1jGp/tQA221BlKs8lANv3HktjL5C4EYDLhugPEnJck+u7ZD1vGQKf+sL460jr4PApUOaxlGedvAoYCeCCl32pHlTgTBny+WrfVAclgVIQT+C3HSm7LXnochbr2CqLdUy6ZNhydWLyvslYjrJmzZpf77PPPvMPOuigd+2+++7XTzbADau8KQecixYtAjjfOHPmzB3TkKikdzarNoW91cktb6zLW0uDkmVVjzSFNJ+hCq9GQSVEeH3RMkCKUQE4fS0YjBQw9bVmKLZZioaM08D2U2rb38UakqX6vSppNRJd1wl61KUh416O+wJu2u9WanwXbE1WcuE9gMoxN+p2z2EX5ed6Q0G/MqwcrwqYGuA0QMkGqmOQfdIa3wo02e9Vhiogt9pSQ4P5u+XUVOBt6ZTPYD+lkRbAXB9rko272wh4Zqd63h2jHF+nNirQy0SrLGU/tUAjHZsuvdZm1POp39meOh71vi5wsy2Cezp5LftT7UW1K10gWe1SdXD69cMg4B0WcK5evfqKAw44YO7++++/fAScw4L5sbGxM8888/BbXiv2kASB+ypw6tVWtqGg+749np9rAU1YqevLWIDtzjp8GubNDN40wHrjGQYXxBIg0hPVK/beDH+17qlA1QLwDGWlB55GRWXuMmiU69ZlMnGfRRB35xqBWHA2wYTQsgYvEzMyocWy6qd1Zfvy2RMIKyh6Tw21VUcrjXULTDyfzKXFvE14MXrhXCCAZ8RDcPTTeUjlx985X11BoDoKGcUwBJ+OVKtf0gHJ/rGu7GPLrA5QPwel5eBUEPKaTEpKQKyh1pbTksDdzxm/LwPn2rVrr9hrr73m7bfffufuscceo7ejDAs7ly5d+pLzzjvvjOnTp/eAM/8mI1Tb8j6rIk0241QxWgqbyQtcp4ePIQAM9OxVTBOPBD6ZKXNAsFN3NQFYCYeZnOP9NQEhQ6GCRQVx+yyNUxrnTAaqHnYm/1BOstI0LJ6z7gq2aQjTOGvYEsCzrGxPZZqcc7mKz94FjtlPXsP9Lgep7RUw/Exj35LB6hwkQ2h9t//dJ7kFnJRpcksto4YlM/JgW1vMqMsBqKBe5cCxtp4KFhXoUleyHXl/ldMWI6uOiE6AZSo/Ob45Vi2nKc9XBl2fqzpG1Ra0AP6+xDg3bNhwxdOf/vS5Z5555rmjOc5hoebNjPPFK1asWLTVVlvdZxhnKksqt2BWPXE9+mRldnmdE9FAca2sK5MtAFPmmWCpfHcPWAyu82/pybcSspynpK5kn/xOYMxyZHGZ6CNDuzOsLIHH/moBYzVY1lXnGBPgKohPBChy/CirMp76bK1QaT5HNexVVqpDUM/nBgKtPqihyAp89IHPXZlqq7zqRKXjomxkHyXjTEDIkHc6Qi3T0gUkLfCtzmlmBddn51rlPcOs6RhVfc06W/JSr285y4Puuy8B55o1a6545jOfOXfRokUj4BwibgKchy5fvnzxjBkzdkqjosc6Fec4+wEnSiqrrJmHXWypAochtGQRdZ7FsqiLcK8v3HbOVFClf9PY1KxKDUyCdAJilQ2zUhMAqmFNg5bfuS6X06TBSYehBcSe76q/AmA1qpZZgdv7vN7+aelEld8uh6Ea0mRF1t8FKJXBtAx9lb9WfRUQbWvKQgsEkLl8rkGORT9daD1jDdVWsGxlDddylM8ERPu1OopVDmpyURcwdtnE/+nASah2zz33hHG+Z9q0aX8YJnZMZtlTLjlo2bJlL1q+fPnS8fHxHnCmx3xfCNWm4vG9GleNpuBoun2yT4DSOaoMr+pcVG9eBktdzuNpOCyfe7kO4GSTBv4BWJcFmARC+5LRutdneuyVJbWYs8aWtta5ozRmydgqU8u+S+OdCpShWK+pAFbvzeu8v4K713QBVQJ7tifL7gKRZBzVkFtWC/xaTKaLcVputj/nS+3rZIxZd/1u3Sl7lqGcW2e9pj5TBZuqMykHNRRe+7fuvFP7s4ZaK9tLWW6NdStUm+P9Px04169ff8UznvGM2UuXLh3tVTuZyF7LWrJkyYvOP//8M6dPn76zRtVrpiJwZigsDVtlXQl6aRhcd5ZMJ5Vfj78a4TTsGYKrSt0yjIIgAOY+o74eyfdquk2Zyw18rVcFuvqcCdw+RxpUHQYNVjV0ldEkI81+8zkrY6wglvdUI6ej0QVeMpkK6P7mvONnvRW0Hbc6LspKdaxa41xBrNXedMiyDzPUmuVYRjLOVlu76rbd1Ymj7nTk+jkGKQtdfZxzzK3x7+rXFkB2PV/2XQX5lgPSAtgK/v2Ya21b7eNsZwuYu4C75VhZFnqSusu4TcZylFWrVv33c57znONPP/30FcPEjckue8oxznnz5h35sY997PXbbrvtTlWQ74vAqTeuQRG0+O2uLCnwCTIt0KwGunr3VWGT0XIv12fWpIy2LhBPzz6zLd32zPdo+t5MX+Nl8pP3aBwda8FKhyMXiGedglZlVMleKbPFWL2XzxpqTDD3vAY5jZTX1VBtdQb6AUvL6FbD3DKaCZ71fJdBrkYz665OVvZpdaxa5eTcZpZV22lZOhOOcY5HnWJoTTlU2atAkm1MHWmBdM7BtwAp+yKfTTDtB4Ct8lpjV+3cfQ04DzvssFeeeOKJH55scBtmeVMKOG+66aaN5syZc9jnPve5hZttttlDa8fcF4Gz5R12KVI/I9nyclNJWwre5YEKFAJpl/Gu5/uxB8HYZRGGmg0Bu5OSSUte79s9Ws9C+xO40gBXAKug2wVayQhbilnr0LBm+V1jmv2T7ausoeUodTGLvLZVTit5qzW+/WQhy61yZFZ47bcEmQqMGbqv49fS+S6wqfLXAirqbj1bFzi1yqhssaUP/djcIH2+jwPnFQcffPAx8+fP/+AwgW6yy55qwDltzpw5h///33H5+s0333wEnLdIQ1XKlhGdbOBUECujaxnOLqCowpxgJRPWiCazSXCVnfAJm/WcwArgJkv2eIan00hWg1nnyEwg6ZeU43MlWLQAl7qynBZwds2RtYx11xj36/+MOHB/ZdQ1lNw1ZtXxEHydj66OiL/7hcopQ8ZXn7fL0esC1gSz1I+cKqn9NFGwGwHnTbe+iMI+Y3wZe7YM5W1QhMztJ845zcYGCAcddNAIOCcb2Wt5c+bMefFnPvOZN2622WY7VwYzYpw399ZkAmeX0bWOCpwt77i2KQ2NHn9lgCqgjDJZieeoOxlJBT2BwFBhgmULOGsYmvtdB5mA670qfzXK2Y76XLV/+ulLBdt+wNga84nUlQatAn4F/lZbu6II2Sd5TQWj6hjUMWzdm8+agNzqn5ZjNwLO20Yy+6KfozCsOU6A84UvfOHRc+fOHYVqhwmeMM7PfOYzhGpHwHk3ME6BrQuQBzHOen8XqFevXXAiK5fvhm5lMhr1mpzSYhwVqCuzSyegGu4ayqwg6fPXMurxLlZS59Bq+wcl33T1r+XU5Tr9+qcf8FSAbF2bfZdMtsXksh9bsjURJ6GfQ2b5I+C86XbOdB3/exo4Wcc5a9asEXAOEzRvuummaXPnzn3JCDhvY5Uaj5Zh7jLWLUNWDZVGsIbY0ivtKr9fW7qAs0uhW6ypxehquf4WWFohz4kY53xtVIYjq+HvYp0tgOg3LrVNlXHV/qiGr56voc7aTxkCb/VhC9irc6EzU+Wq63eXDLWuz/pb7DYdlC4wbwGs145CtbcBa45LHYthMU6A85BDDjl6lBw0ROQEOOfPn/+SSy+9dOGmm266s2wgvcuptgHCRJajtIx0Nb53B3B2gVO/9g1ipFVZK1B0MTLuMwSbhruGRjMk2zLM/QCVOnwDj/Wlo8Kxfkysa4zyeMsxyXa2gK/LyWk5UTmH2gKsiToyLccg29kCeM635iiznV3yMRGnpgWI/RhVHTt+j4DzngVOQrWHHHLIMSeddNIoOWhY2HnppZdusnLlyiMuueSS0zbbbLOdaqr/aI7z5p6/M8awxR7SwAwK1Xaxp0FtqIywAqi/64umK1jZPq+vQJntF2C7WFyLvVXD3zVf13refkynn4G/M8BaAS3rnIgs3Jk56hZgZ//WRKMuxslxr61JVhXcu1hkP+ehVW8dW3+PgPOeBc5Vq1b96tBDD331SSed9L5h4cYwyp1SWbWXXXbZpu973/tedskll5yy2WabPXgEnLcB5bAYZz8jNBHD3MVSq+G6M8xD9tfFSvK4UYlWMlCCcJcD0GJx+dxdEYPabxMF1on0adeY9GOUFVAtows4+41ba464Oj5dz5/1turuev4uEG45O/2urY7iCDjvWeC85pprfnPYYYedcNJJJ412DhoGwlvmwoULj7zgggsWbr311g9GgVP5Roxzchlny9i2mGGynvq9C9BbjLMfQ+mqdxBz7WJg1UBPhMG0nqVfck4/o96qrwUatc7shxrmncgzTWR8JgLe/Ry1rmcb1L5Bz59tb/VLtTv9xtR+HAHnPQuca9as+e3f/M3fnLZgwYK3T5s27ebGTIG/KcU46c+lS5cewWvFxsfHd6xGcQScI+BsMZ8uNjkI2CYCACPgvOPUwET6rYuhdjHdfgx2UFktwB0B5x1tRb9+HFZy0FVXXXXl/vvvv/Soo476x1122eXaKYCZvSZOOeA888wzX7Z8+fLTp0+fvgMDneHaEXCOgHMEnLdnEF0svgJUFzMf5HRMhCUOijq02thq34hx3qbfE5Xzfv3YigBUp8drhgWcGzZsuHKvvfZa9prXvOat22+//boRcA6pB5YuXXokwDljxowR47yljweFMatRbHnvg0KH/YxWnqvfBxnNTO7pMvK2v194sCYJDQKMltHox2q6gGXEOEeMc6LORRcotWRrEGu/rwDn2rVrAc6/f+lLX/qWxzzmMWuGBBuTXuyUZJznnXfeQkO12SMjxjlinBM1KCPgvOPC+H6OSZfjMGKcd1xT3eVIjoDzZpkzNwUWu2bNmiuf+cxnnn3kkUf+46677rp60hFuSAVOOeBctGjRywBOGKcL0u2bEXCOgHMEnKNQbQu4atRiNMd5R1txT8xxXnfddb/bc889//7www//pxFwDgnlKZbkoOXLl79x5syZvazaXCA/As4RcI6AcwScI+AcHD5vTancE8C5du3aHnAeeeSRbx2FaocInIsXLyar9o0zZszoAecoVHuzktyZMFtrLm80x3n7TPiJAvBojnOwkR40z92ajx4lB91RHhPsJiqf9/bkoHXr1v1u7733PvO1r33t20bJQUMEziVLlrzk/PPPP2OLLbZ4SH2zw4hxjhjnRA3KZM9x9stSHdSmfvOEFXSyrNE6ztvkvd/8YQWcDNuO1nHes+s4169f/7u//uu/XnzssceeM1qOMkTgfNOb3nToBRdcsHjzzTffCaHPt0eMgHMEnINAaqLsZ6Ll1KzgO1P+RJjWCDjvuCa+FWEZAWc7SenezjhXrVr12+c+97mnv+ENb3jraAOEIQEnm7zPmzfv5StXrjxt+vTpD8Fo5V6XI+AcAedEAW/EOEdZtcjKiHHes4xzzZo1vzrooINOOvnkk0db7g0JN8fY5P0Tn/jE4RdffPFpW2211c7UM9pybzTHiRzc0+s4R6Ha9ssF0kEZ5Kz0C1m35uVbIdgWix+Fam/PRrsiHfdEctBVV131q0MOOeTEefPmnTss3BhGuVNqOcpNN9208dy5c3tvRwE4GehMEBoxzhHjHDHOUVZtAmUX4I6Wo9zRVtwTwHnNNddcceihh54we/bs5cMAuGGVOdWAc6O5c+e+9NJLLyVU2wPOnNsYAecIOEfAOQLOEXAOznSufaTedM0VD2vLvauvvvqKWbNmHbdgwYIVwwK5YZQ75YDz5JNPPuKiiy563ZZbbrkzazh5X6N/I+AcAecIOEfAOQLOqQOc69at++XBBx98/Jw5c84fBsANq8ypBpzT5s+ff8TFF1/8eoFzlBw0muMczXHelnmac62VPXRl/LaApt+cbb95y3puNMd5mzPbL/O3lT3dNV/bxQ77jW+r7jqnfE+Eaq+++upfHnLIIcfNnTt39CLrYaH8TTfdtNGCBQuOWLly5etnzJix0yhU21bKQUavNe/TZWRbx1sKOsiYtpS0Al6XofDefoZhlBzUnrPqZ3y7xqyOVT9gbV07UcCeCJB0XTMIaLoAvDoWo6za4WbVXnHFFWPf/e53e5FB+969avncsGHDL573vOcdd8opp7x/WLgxjHKnGuPceP78+S8BOMfHx3cmNDtinCPGOWKcI8bZD4QT+EfAeXsYqf0x2XOcg4Bz1apVv/jbv/3b40eMcxjwfkuZMs4LL7zw9VtvvfVOAOcoOWgEnCPgHAHnCDjvnRsgDALOdevW/WLWrFknjOY4hwicFP3GN77x0A984AOLCdWSHDRajjICzhFwjoBzBJz3TuD87//+716oNrdHzVDt+vXrr3jWs561YOHChf93yNAxqcVPqVAtT7506dIXLl++fOkoVHt7Y3lnEj9Gc5wTmw+cyFzdaMu9wRmcXbI5muNsbxrRStJpzelORD5b+Q6tee+uhCPniidjOQoRQl8F6fe1a9f+es899zxj6dKlb5s2bdoNk4puQyxsygHnGWec8aLzzjvvzG233ba3jjP/RstR7ggIrcSOEXCOgHNQAtlEz4+Sg0Yvsk6g9zsAufHGG4/JOE0OqsC5evXqX++7775vPOigg96+++67Xz9ErJvUoqcccC5atOig8847b9k222zzML0We2QEnCPgnIi3Xp2Jrnsm4tGPGOeIcU40y3wiDFtHZJDsTVTO7y2Msws42at2n332WbhkyZJ/GTHOScX22xe2aNGi569YseKsbbfd9uH5EmuuGgHnCDgnalAqU2oZqkHGq86tZpkTKb8rZNZicWlQbdfotWK3yftojvPeOcf5y1/+8nZznJVxrl+//r+f/vSnn7Zs2bJ/nTZt2o1DhI5JLXoqMs5nr1ix4uyZM2fuirL4ajEmnwHSa6+9dux1r3vd2LOf/eyxK6+8cmzLLbccW7du3dj97ne/3jkGDu/nN7/5za0bxHNfbhZPuQ5wy2B5XrDu8jiT2XTN8+Q6shryqCPdz7PtKn8Uqh0cShsxzts7XP2AuyVPldVMxOFo9flEwr4tRjaorJYees9oHefN25Zq0/yubcU20kcm9GgnPfawhz2sd57rsMG///3vx66//vqx6dOn9175iJ391re+NbbZZpv1yuA6Qrh8v+6661jH+fN99tln/pIlS94zeq3YpGL77Qs744wz9rrgggv+ccaMGY/ljAPLQDOoa9euHVu0aNHYHnvs0RtEzjOAgKWvIeNz9erVY6tWreoNosCJAKhIlJXrRFOgZBoj4JwYKPULjdZQZxfQV+NYjfVoA4Q7RhsmCmATAcMuNj0RsOty6vqxxH4hxpYsjBjnH884+wEneoX9lHDwHcADCLfaaquxBz3oQT3xoQxXOWBTBd6f//znY9///vd79lfbmvZz3bp13997773nL168+IIhwsakFz3lGOdb3vKW3f/t3/7tbVtuueWfbbTRRpswQAwUA8p3APH4448fO+yww3rA6F62gmBmdl1zzTU9oM2BFIA5lgNdgdN76lrSLgUeMc7bz4XZHyPgvCPg9WN8CRqjUO1tfTcCzuEAp/YNG8sfoElfb7PNNmPbbbddz/bCMLGznOM3/0T3ANYf/OAHYz/72c96x5LF3mK3b9qwYcNX99133zkLFy68dNLRbYgFTjngfN/73rfrkiVL/mnLLbd82kYbbbRFDcNs2LBh7C//8i/Hzj777DGAEc8ojTQsFIND6Baw/d3vftcbeIHX8mSnhiZawNkVNqrj1Y8tjUK1024NFWW/tdhSl/OhE9NvjAaxqkH1dTGuUXLQKDmoJZcteZkIw27ZlK6y7kxEoVV31sX5GrXRNhliNXI3Y8aMHnACjIAlNnXzzTfvqRi2lD/sJqHbb37zmz0CQ1mc45hgPG3atOvWr1//uSOOOOLEY4899utDxLlJL3rKAecXv/jFGSeccMI/j42NPWfTTTcd11gac2dw+f4P//APY49//ON7DNSBdT5UTx0vicFcs2ZN758BxTNSYAwDVwGrBr5LcSqoV+OtB5YG37IGedC1zn6gUhWv1f4uJRwEKIOMRle7Rozz9kup6ri35KA6BiPGOWKcXc5mlzx1OfVdwCmjxK4CeltvvXXvX9vp3KdME+LCdfyza9B3vvOdnmPM9bDQLbbY4laAvuGGG1Zv2LDh08uWLTtmjz32+MWko9sQC5xywHnppZductZZZ8377W9/e8z06dN3ABT5S8CDaT73uc8dmzdvXm/A1q9ffyvrzJCDcXe8JgaVsvgXfLlW76gL0LrY5ETAdQScY7fzckeMsz97GwFnGyirDraiC5XJpcPdur/2dUs2u5ybrujGVGScEAvAkSRLABOWKaP0EzvqCgc+uQYb+rWvfa2XoMl5/gVVHb7169f/6mEPe9g5K1asOH2IGDeUoqcccNILs2fPfvpFF13099OnT/8z9q8V4PxksAnRvupVr+pl1+L9kFnLYBJSMPEnvSWzvGCeAq0CMUiJRozzNoPWYtWtYyPGOWKcEwGSrmv6RVxGwDk4fF6jYV2ME1sJEBqa5Tqnu7ClkA5DuTJL7vnVr3419sMf/vBW0EqGegsxuZHEoJe85CWvPO644z4zFHQbYqFTEjjf+9737nj22We/aXx8fL/rr79+G+PnDg7hAMIEj3vc48ZOP/30sZ133rkHnPwx2LBLgJUBdNKacwoAwEnSEALiwt1+Xu0IOEfA2Y99dDGaibCYFkCk0yGT6uecdDGgrnvzeJdst473i8pMpH2tekfA2datQTJVx6LVj8nCu4DzAQ94QI9tSjhyf3C+mxRkTgh2lSUo7E+r/TR5SKbJ8U033XTVtdde+5mzzz77lU95ylN+OUSMG0rRUxI46Ym//du/ffkPfvCDOePj47syIIAda4duGZQeIF511VVjj3rUo8be8IY3jO26665jv/71r3veE9cbNgB0AVKuh5kCpvzxyaS2iUPOf3IOgTHMmvNMrVBa3d2oX7htkLD3M2L9DFk1kNVg91PCqnD12kGGtatdI8Y5Ypz/ExhnS39aDlOX0yCgtRhi6mLXcqy0P2mrnIIyiceIG7YNkJw5c2bPngKa1MN12r2aEOerHbmGabIf//jHPdsLgeEPG+pSP8rYbLPNbrz66qt//pSnPOWNb33rW98xFGQbcqFTFjjf+c53Pvycc85ZttVWWz3jxhtv3JaBAfhgigw6wAgYkhwEaM6fP7+XLAR4Ihhcb8hWr4nfZNvyCXDiPQGezn2msDEuLoNpefQIl2ug6hgmeCp0qQR3xnNPr7Hl1bfaNgLO23vxXY5DP6PXBfyDHIWu8ehymmp51Vh2scY7y0j6ldNqcz9HbSL91mrffZFx3lng7HJEa9/Yf7m8TkBLm2BOhzbNuUjsjuewdYAbv8mYdS6T3xAS32xiiNbNDMyg1VYS1WP5CYyTe0ws8ntE+q7+/e9//7nFixcfv9dee/3XkDFuKMVPWeCkN175ylce/MUvfnHO1ltv/biNN954CweWgQI4AUgEDPDcaaedeslCT37yk3tekSDL4OJVIVDE690FQxDlfsriXwGThdIG14kmGLYMQAusl6FsZQAAIABJREFUOFaFvd+9/dhdP0M2Ypx3fO1WyxB1jVE/4BgtRxk8nzZRZ+J/MnC2nOUu0E1b028dtGwVe2VYVdLgMhKugRnCLmWY5na4ZlM753HsrBE4QRFC8r3vfa9HNCAfruU0aZOybqn72l/96lc/nDVr1qmvf/3rPzgUVLsbCp3SwLly5cqt/vmf//m4n/zkJy/feuutH3ZLGKAnJIYHBDa8HQTjqKOOGjvwwAN7A2yKNZ4SXpRrO/XKKAOh4jrXefJJWXhi1tFilC2w6mIVXUxxIp77iHHeDIpdoaouJjUCzpv7rZ8zNpHzEwG7EXDeZiH6gWG//k49TztiQmSGUQ3Jco95HC7Fw2YBema6MnXFP7bRXdRyTTvXOX3Fd+6VYACE1Es+yeWXX94jKJRj2DcTMSmDc1dcccUVu+yyy7lnnXXWwl133XX13YBxQ6liSgMnPfKRj3zkwYsXL37zhg0b9tx6663vn3smAoaCmx4QQrf//vuPvexlLxvbfvvte6FbzjHIDK5M1SQiDTKfGdoAPF0DashXD881pbQvN1DoZ2TujMfZUrAR47xtI4U743C0HI9+x6qTM2KcI8Z5V5yPQbLaCr+mrajyl6CZ9gc7hL2SYTKdBWBCFixD8E1HlO/YMxkqDJP7KA/C8ZOf/GTsF7/4Re+8x3M/WtfCA7qrV6++6n73u9+n5s+fv2Dffff93lAQ7W4qdMoDJ/309re//S/f+c53nr7RRhs9aZNNNpnpvCHnBE8AkZAsf1dfffXYE5/4xLGXvOQlY3/xF3/REwLCD9zH9VzrYt0EKectU1i5T6HiE/DNtZ81lFsNbz8WOkipsqwRcI6AcyIsukv+utjOIFAYMc7BrH0iDnPt/2r/MzxbxyTBUie+7njmlJRJP64mMEu22hrnRGkH11oH37FzLDfhXZu//e1ve9NeslFB0ykvc0muu+661TfccMNXjjvuuFMOO+ywL95N+Da0au4TwEnvnHLKKS/4/Oc/v+DGG2/80xtvvHFTGKNzngy6b09RYJjnBORgnvvuu+/YYx7zmF6oAS+Ke3PzAz03hTEB1ExchIl/vDrBNJe7KPh1JC2zGrSWIo3mOO84V2mfjEK1N0tQOmITcbwGAeOg8yPgHC5wplzrkKcNMcqljarJPwImST/u2pNvg9KWCZR8mgHLOcsTPLGRMEzCs4ZmAU03oqEOo3Hj4+O+6vH3G2+88Tee+tSnnrxkyZJLhoZmd2PB9xngvPzyy2ecfvrpZ11++eWzNt100xl6QACZc5fuCCQjRSgASpasPP/5zx/be++9e1llZOYaYvBTj6sKr4KbOxfd8rqcHpBSVnqLLU+yKkILRLsYgcdHjHPEOEfAeXvtajkO1bHIvaKrHnY5uxONEvXTyX5lZDsmApy2UyecqBnRNUAM8HLqiOu0X5Tb2ic7gVT2iG0jCgdY8rYTANPpLTNrXWGAjaVefmNbb7HDVz760Y9++6mnnnr6Lrvscu3diG9Dq+o+AZw///nP7/fRj3706R/60IfOuPLKK5+w5ZZbbmzWLAPnZgcKqxlmxu5NJtptt916b1X53//7f/dCEyQAIQAyV9OrKYfyFTI9uPTUFGbZJ4Lndn6OpmBclTl/5xtaElBVgqr4qayDWNidYRO17gru1Uh5Phl1iw31ywpsORRdBmfQs/Zj9C0D2XWsljOa45z4HGeVt5bMTARQWuX0K6vKbo5tnUNszSm2rK8AZCjS+lOndarV1dT7Qc9pGw2ldsm3DBE7B2ABmG5Y4DZ32qkETtrCcTdu57dJQdg5p5gARpaXAJi8EAMyQD3YP0ETYuJ7OKnb+VSTg6699tprN9lkky8deeSRJx5xxBFfHRqa3Y0FT3ngvOyyyzb9z//8z79697vf/fprrrlm9/vf//7jeEQIhWnRZNAy2BpxsrtYoGtI1pAE7BBF+PM///OxF7zgBWN//dd/3RsKhIit+BAOJsARQIDQjDPZpuES11ZRVsb+XfLCvYAyIY0Koipenbdw4p66E6Dd8irnIag/N2mYCDBMBEQnym4nArJpaAaBVGVSrd8j4Ly511vOySCn4a6c7zc2/Zyr1phPpKyua+4scFrOZABnP/0yIzWnd9JOCGB+WlbreTIJ0euJkGHnsEuGYl0FwPWQBmyB7ZB9JvB73iktPmGL2NEf/ehHPVtpVqyA6XIU2uk6TvsUm+TSFV9uvckmm6zeaKONPnvEEUfMP/zww795N2LcUKqa8sD5oQ996M/f8pa3vPF3v/vdU2bOnLk1YITXI5t0TpMBRogQCASNAQUMTQgyxZoBx7MCVNkwgRAuCUS8sFWwMwGIMrgOz8s1T9SXE+8JjAqtAGoWL5/Oj+r1qWiZ6FSBq8VYW8aqKvYgoOoC0X7AmQatZdy6jPqIcd4R8Pr1X2VL/fq9Gt/WuA5ymAadnwjYVXbVkqMukJ3oM9wZ4Mz6hwGcOUY6zhX0Wo5jhlG5z0QcHWHaig0j/CpgJvB6nY67jDKRo9VPOuKcww5h/3iHJqFZmSxlYVtdwpdLVwBsbBrEgnZpD2WtbjCzdu3aa7bbbrtPnHjiicftt99+VwwF0e6mQqc0cBKiPfnkk8/67ne/+4JtttnmQYYI8L5yIS6JQIKl1/DpxgcKjOtAEQQEiDJgpw95yEPG9tprr7F99tmn9921nK6Jqopo+FSvLLNsBc+cZxU4EUwBVMZoqMbr6xyroSIVU7lJwO0CTo5X8O0yxGnY/hhjOgLO9hZ7gwCj9vUIONvrT+8p4EzgbelO6r4gxz3aAecBARcjX0798Ew4585VYosATv64xqV3GWFKfRZAlZkasuW8U060gyxZQrK+P5O6XMbHtZCE3GWN80bxZJhE05zjJILnLkPuPrRmzZpf7bbbbv8we/bsv99tt92uu5twbtKrmdLA+da3vvWAd7zjHac/4AEP+FPYIIMHGDLw/CFosEpAk0HkGjYtBqh8CSvXMfguCBa8+G3GLCELvj/iEY/ovSSbOVC28aNcyuR+yhTkuFfwzOQiBLh6nipTslE9NhmpYJ916CVyTEUULFUUhboFnP0A8q4yzkHAWo3/IAbcj9W0PPeJsJQuIO9yELr6azTHeffOcf4x7LU1pl3s+87OcVaLXGUv2Z8ylDaA+vI3QIVdwXbxmXvFqs8JwOq/oJh10JZ0uI2UyVyxaSwr4Z9MWYEO4ONel+glozSiZjjYN6Twm/Zib2l72jP7gM/x8fHrf/rTn37ryCOPfO1JJ530uUlHtLupwCkLnN/85je3mTNnzr+uW7dujxtvvHGcAWWAGXz+eA0O3wE9Njo4/PDDe1tCffSjH+0JKsCJd4QQsTcjYOVaT9OrVSKFg/IUEOZBYaHMg1KvCUgImynchjcUtlZoNRllnhdMnH/I5S4CKNc4Qa8y5adOQRdLGQRwFSz8Pei+iZxvAV7KfBf4VcM5As72cohBzkgXAHUx4Ik4Wq0yW05PS4666m3JQdbTFeof1N7JAk7KyXyEZHfqog5zLgMRWLgX+wLo8C+r0zEWVGukKXXF+rELbnIgEcgwL3aKciEWhmIlGTrfucmLQCuz5Dn4zqdJRTBV7n3KU54y9rCHPWzsYx/7WG9TmW233bbXRG0h7ZBM3HDDDVdvuummHz/hhBNmH3DAAf99N2HdpFYzZYFz4cKFL3n/+99/6tZbb/1IBhKhAPj4bpYX3wHI17zmNb21mgDfxz/+8bHly5f3dvAHMFkQzMtWneukDL4brkVA8PoALoSA7xxD4BCGXXbZZex//a//1QPQP/mTP+nNP+QcputBVZrqGXo+QzoZysnkIp7HDGDXSrkPpR6ggppeaRqJlpIPMjIV0CYKal3lViAfZORbxrca6TSgXe2bSHvSgE+knBHjvPsYZ475IMdrkExPFnCmoypAZtt0bAVC9Blw5B/G5xZ1nq+MsepznpeBai8Eqpy2MQSMQ8/c5S9/+cuevfMF1Wl/tEEmNXIvdgYbyv18N6GSSBs28ZGPfOTYX/3VX/WmsbB9n/rUp8bOO++8XsgX++qGMsx9arM222yzP1x11VU/2nvvvU8766yz3jupiHY3FTYlgfN73/ve+Cte8Yp/u+666/acNm3aTAaFEAEC5KvFGGgEeM6cOWMHHHBAT1gASYT1pz/9KVv1jX3gAx/opVpzHKAUhPS6ECSOuyxF5sl1lINQwGi5ju8PfehDx570pCf1BImwLm1x/tLkoZYn6bEMtabwqyAKdJ0LMVRsiNfUcOdBWt6pxzKcW73+iTDOfqA2EaDqYgwTBecR4/yfwzj/GOCsctRiuy0G248Vcy5BJnUp9VZ7hG3AjsgmzcLnvAyxtjPLr0516qlzjk4JuYm77BOw5J9wLM4+9eRUEr+xK7kOvbJbty2FNEAssJm8NOMZz3hGb9pqhx126PUHdhKm+eEPf7hnX6nPaJ5ZvfQFtvAPf/jDqi233PJjc+bMOemZz3zmlGOdUxI4Fy5c+IQPfvCD/3ebbbZ5wvXXX7+RCTKGAhAsAO3oo4/uberukg2TfQTG73//+2Pvfe97xz73uc/13pjCIPMnkOlh+UJWU7E9z3En6w2lyn7xxP7sz/6sJ1g77rhjD5xli4ZPDF+opHqOnve5kqWmEuntZthHpbY9OQfrW10yZJRZx5UN60G3kgqybtuUczAagnQGUuG9J+eUWs5iF5OUpTp/0gJ9+yLL7WIaLZBvGd1qUAfNidnOfuy1n/NR29vFtFtldDkud8bZyTHNPk6HJYGk1lkjHP0AKRlbPndLLrv6tcpTyk8FBM45R6g81/5N+Wq1z9dxYQdkkn4aLhWo1P9kkXz3fLbPulJ2cypHgOYTu8Q/ugawsQ0eGbFsLYodtD7zNihbW+AUl0RDW8K1hGFx/rkfO2JuCNNUMEzyPCjLiB2ME5sJkSGqB3gCto4fNkmGi++xevXqbx111FHHHHvssV9o6f69+diUBM5DDz301T/84Q/nbrbZZg9GSGWEvsmEgdxjjz3G5s6d2/OAfA8cA+EmBgymmV4//OEPe+GFiy+++NbJbQSGgfatKibqKKSUxXfqFjw1MtzjpgmEjR/+8If3QBSBe/SjH92bf82QqxlpHNPzU4lSyRSkDOV6PkEu13RmqFhGmpm7tFVmWhVXY9IFaBqebJffLUtP07LSkKaxagFEGg++p+HQcLZCz2nsK3BXw9gy5F3XVHDWW7ctFTSy7MkGTsuuwD0RsJzoNf0cjwTO2l/5rC35zfoNGSY4pqzktpktwG/JRI5HymbrWh1HgagCdgVooz7oPHqLQ5wRI59DAMI+eCxDqkaJaJ8OfzqTta060+qBr/OiDRACGCVMEAIAeBo90zbV8mSZJgC57AR9BTA57xpMyiJcy5TU0572tJ4Nw9ZSb+ZzUBflcY4yzjrrrF7IlrpdT2p/87l27dornvjEJ775bW9727J7M0g27d9Ua/CFF1647eLFixffcMMNL9xoo41mMuAMrGuGECwG83Wve11vCz2EKDNbHWjAAw+JeU88JH5/+ctfHvvsZz879oUvfGHsv/7rv8Ye+MAH9srVQzM1HGWgXEBRpcmJdI5lBpvv88T72nnnncce+9jH9oAUjw1QpVzqJ9xcPeBkhCpxAhxCKVCmkmsIUmlbIMM9hpP1Qp0vpQxDzIJrNSQmC1TwsI2eT6Zc29kybhrJjCKkrPYLX1UQTsCrRj4ZSZZfn7Oe6wKfFkC2DHkXkHaBUBeY31XgnGg7qtOQDlK/vulqXwJvlqXc2r/oRr/z1X6lvHMuDbt1puzo2GV7MoLjlnVuZO6n6ywT2FM/dd589ZZARpuqvnZFVSjDHAfus06cXTYlALh4O4kOfm5/pwNutE0H0miTwGn5OsH2g0vtsHG77757bzUB9sq9aHMaCFClPpKCWLVAGWTpMhX27W9/uzcGbkBDPT7Xtddeu3azzTb70D/90z8dvdtuu92c1TlF/qYc43znO9/58HPOOecfp0+fvtfY2NgWCL5rkUzgAZiWLl3a83IYJMHNRbuZcMM9lIEC3P/+9+8xzP/8z//sgeill17aC3twv29WMXybadiGcwy5CJoqiIqRLJM2o5SEdNlgHiBlXhQ2yvU+i7sL1XCs8lUZpx6sIFnDUxWkWgChd0vZgmgmH6k0Pk8CQ7Jhvtc5nMosNJAVeNPI5TUtEGw5BFxXj3cZ/y5gax3vB5gVhFrP1q8NWXYXgNb6+93T1daJ1NMFqLX9d9ZRaDkuXeNEXehB/iXAKWscS8bYcpyqjCofglGGWmVzySSd3lEnBEKBvYv5Gp7MyE+2rzpu6Qg7TtSJ8w1YYo+YszTDX8eSMlO37BOjWfw2uz/lkntce8k1MmQ2fGELUjZ/YVUC9QjCslPZN+Fg5zJpK1NgX/ziF3vE4utf/3qPELj9nu26JfJ3/XXXXXfJ0qVLj95jjz1+MkUws9fMKQecy5Yte/y73/3ucx7wgAc8+frrr99YoFAR8MJe9KIXjc2ePbs3YCoUAs5AMviAJEBIOAFgQggBLEOYCA3fEVLmPwHQb37zm7e+y05lM7QqS5T1+lvmqXDr5QlMAouMGG+NMMif/umf9lgpyUa+YcDJfhVWjzZDkQilyq6AJuNrGZfqaVue1+pkpJfuORmpAJpLZmxnvsw2jWbW2wW8KlLWXQExw7LpBLRArAU63j/I2LaM9yAQmUrAOQiAW31XDV06O4OA13tlfF2sKyMOLTlA9lKuaoRFcEWO0QUB0sX9Ot05VrKyjNrU57dc60/Zy7JkfhxLlqYjzDHBUnDFPgFgfJIFi00DNDkmANpfkgP7xnLV42pjKvN09QDlorMk/bC0BNBksxfmSbGV7rnt81Cv4Vzsp1uRErEj+RK9p26WADLfqoPhWFHOLdNflx199NEvf9nLXvaNEXAOsQfmzp3715/61Kf+cYsttnhCelnSfwb61FNPHfubv/mbXrxfj6uGcBh05kLNQgNAHUzKMjuXTwQD4AREYaPssIHAE+K1XEESAaMc508VVEMfTuKrcHx6zLWkfFI2AE54hOQiWCmMFFZseFqgT0abxjzDXtWgqNzOPdQQmeeTDVSPlv5X8T3nMY0E/UHZyVhdh+rxBOIKUAncLbGS7VcQy98tEO0CyomAYRrRCtwtMEnHoF87u8BrEAglcFQD33rOLhDMdg7qn4xotPqsOkYa9hoBSYOqs5fX2L9VDgUIgU82ZQKMBh6DrrOV4GYdOQfvc1hXZbQCatod5bMFnJaXDmtmrxrC1HnHzmCzsEsCpRn8ThnRXurSEUhGXlmvzygw64Sos/xGP5mnNerFm6LoM0iH+Rtcxz0+q/OYbs7AlNY3vvGNHrs0j8KQNqHkyy+//Hbv9NRW0L61a9d+/8ADD3zZ/PnzPz9E2Jj0oqcc4zz++OOf+5WvfIXJ5EczOLI+hElWtnjx4t4kNiCasXUGFaAEDInHc4/CwXFCFvw556igOJdJXZT5pS99aeyTn/zk2A9+8INbGa2ZdJQpWN6Sdt3zcj2m56nBpw7bzXcZmllumfiEgOMFsl5Uj3C77ba7VSgtJw2PoNpllDmeoCljVQkNBXcZ/Aqc3JdAqMJX469BNCSdjLpm/1aD6u80zl1AmcYkmYDfM9RVQbsFuPWaFmNtlfPHgl8C850F3YmAaAXICsKtPktgqfJRLVSyxFZ/Mv4ZEk3GRD06tgAOsiQwOi2SepXtsh1uiJKOY3Vk+o1zvhkpwdvynVdMMM0+4/lTp7iOe9zJDCecUCdASQTM6JPAk7JuH8giBVWvSeC3XxIsud4sYEAPgCQ7lukilpTwZ56FmyX4fJyThNBGI1m087vf/W5vTtPNFDLfBCeAec50GOwrPtetW/fj5z//+ceceuqpF046ug2xwCkHnPPnz5+1cuXKRePj44/IfkFA3LxgwYIFvQ0JEDAGGeWUAcqEYJCEQ4nNM+B6UZSpcPE9GaRgJxtl9w0ycSmLZCKNgJm3CaIaGIGFT7PQzHxzblTB0jFQ+BV82uW6MELM7NhBeBdvEe8PhUiDIrNrecwCa2UIGpcW4KeR8P408AlWreMJAJVJeC699ARO55hkrYyPhspz+Zz2u8+ThrwFChWAW8ay1f4u41uZyJ0Fv2EDZwJfAkoF0DzXAqiUn4xMaEQFD42/8/+G9BJcZHrZ9/3GL8cx+5vv1l/H3XHIaZWW7HGsMrnsiwrcdaqD+2GUMEmyXpmfBCjdDIDzskjtRupkOqIJjOqEz9flGGSiHzaD+Uqng7AbttdMWm0mNskombkh1M93X2wB6DOfybO465pygC0EnAHUb33rWz1bZ6JjPsfq1at//oIXvOC1p5xyygeGiHOTXvSUA87Zs2cf8clPfvIN22677c4MbAUIBnDRokW9xblm1CKQfGfgABVi7uwmxGC+8pWv7G1aQDl4fQiiwqpwKjh6wDIivTZYKLH8//iP/+iFKyjfEAp16D1mGENQHJSOL1irTIKC4WCE1gl9GCnLb2ChzI+SwYtyEPYFYF1TJejwfNyfhq5lMDU69JEGT5AyaaIaL39n+z2mMXLsEhg9p4eac0gV1NIxScNaWU4y4Dp/ZfIS1+hUpQef91YQ5HcF5go+ldHm+eyPBN7W93pfWoIcswr09b4uRyANr8BFHY5fAl+CnCFSjzl+lufzczzvazlG3pvyoNxnuZ732aqjplykHqexTlmlTdmWbIPAq2zoxKS+pEOOXqFPOOIwLVgleRLqqCCdOpP9kvKUiTwCmIzb3wAY9xhuVp8ES8rG/uBMm4TIdA9kwSx+WST3CsLqhOOlXmA7eXYIw6c//ekeKBLiTXmp8kZkD0ZqP9m/MvHVq1dfMWvWrBPmzZu3fNLRbYgFTjngXLhw4REf+tCH3jhz5swH59INlbwCJ0JAqPWWiehb31t3yCGHjH3iE5/oAQvb8T3nOc8Ze8ITntATAoBQQWLAnZTnmOERjrsvLQIMKCF4KAshXJa04Gm5eTKC4htacjwFUA1UGlO9c5moCpuKbLq7ZSLkrs007AWYEuIFSPnnO/OnAC3/KqxzppRv3SppGo0EsDQiGjAVjXvSI04wFdzSYNfz1VAl0/G+nKNKwLEsvdwKaP6uc2xV8WUDXYCng5Tgldfavlq/fegzTgQ4UzYSCLLsytIybNbq62rEs4+pw/P5fDn+ZlpW8KrA7v1eJ1jlM9W6s84KbpYv8HGtBlx5NuzZsp/2mXLYAtbqNGTkx9253GQAJmm41Ska22QyoYBvv9K3rqNMx6M6FQnOtqFGcihbwCOhUB1n7SXfyY2gLkKxtov+Uf4dBx1V+1L7yXU8H9myl112Wc8hePCDH9wDzjrW2ZesLx0AnL95/vOff+ppp532f4aIc5Ne9JQDzqVLl75kxYoVi6dPn75jVQyEqQInPZbCyW/uO+aYY8a+9rWv9cIO3AOA7L///mMHH3xwj63pPcpQAD0UgJAG9Rjj1zAnKxOwqIsQLvV89atf7YEoguscgaFa53FkL5ZpZipCrAeaXrZGI9ko3zWWlMd313lp5AB5nhcPEuEnfMN6UkAVkHU/SstNY5esjOeryRU+e4JoGox63jrSgOk5c8451GQhFXRTK6rxFfiqYUxHg+8JOFleNazVSFTG3QI3j3WBT8vwVCcgy60g2w84u4AhDWWrfRXorCM/BYAKmlln6zkSeB3/Wn6OT4JKrV8dSIOf5TvHns+YZdSIQOou96g76C3hVoASAOE7DrURI6MxGUVRZtVfy/Y4nzq+yqmAZZ+al0FbBMYcG20G9gk9ZroGMAMsAVD3705HJevwjSgyT5mg44KtgDX+v//3/8a+8pWv3LpW0yU75FvYtwnmPivRtwHAeeW+++679Mgjj/yHXXfd9eZ5lynwN+WAc/HixUetWLFi4fj4+IOqwWsBJ0LGICqYCBiM7Mgjj+xNWiu4zoUS0nzWs541NmvWrF5Gq0k6CBjX+IqdnDelHRnqMIxJ3QAUQojQI0TMhxLOJbRLqjl/hnMTMPzuXAPt14Ak40xAVXA15pl0pKBzjXOlyaZ8BsAUNgqgsjyGEA8KyHdCPDJrQ7ZukGCbZMeOTQWW6k23Qr35fDoBOdYJcpVx5jmBN4EljWqVnwSACoB66RXk6hxhq/wEzEFAUu/vAtBaZgW6asxqH/g7Q2hd4NivTa2s1FpXq19lv139l8CRId4KnLlOknMZnUk2mjqa4CY71FFm/lFwROdhkk6xyEAzjGoCYTqUgqjXeU7A4rzHEqizXU6neExnRN3AbqGXbqICgKG31OmyMMrAfgCe3Iftor1ONVG29k89Rr+xkdxDP7CeHeBjfpYpH/4ol+uxlQC1Y5IOrWPGPGg/4Fy/fv1VT3va0846+uij37rrrruungKY2WvilAPOM88885jly5e/bsaMGQ/UK7KzW8ApuxNEEAru4zVjhB0AA8CC62R4eJJkmbHP7H777Tf2uMc9rgeAKJH70+qp6glyv+HNqrAqjOe5hzkQhAogJV2bf9+4wnNkhq1Ghk+BRy/WhCSBTIOpIeV4glWWVb1b+8BMV8pyXgWlo5/oBxSU/qHv8GxJlrIfE+i431BmAivH06jwO1lKtkvG38WABilaMpoWAKSXnOerga7A6fk0dhVUuwCngmH+rt8HAWfr+VIvKqNL+RhUtk5nOhEJijInn7Oy/Xre39mXCaq1bB0b71OGsj7lXt2wbPMKcjkU+u0cJKAAi+STY0SS3KrOMigTe1GjIdlml7GZ5assVxDJexJAfbWheumzCai+tovnBCjRPaaXACzezITuUZdgSdvND0gbwHenltRp6qR++srMf/oIu4Rz/53vfKc39cS9Ji753mPupT0kGlWHSyeFawYxzmuvvfbqpz71qW8+9thj37LLLrtcM0if7y3n7/PAyeC55ASBkUGecMIJvRCq4VKVVGbma3MAC7xllr1rAAAgAElEQVQ51oWy/y2C6jm97WR9zgkqPAKXBgwh55iePorJPQAp4AkL5hM2ivdrprCLtzO0RJkZYtF4GMI20SkFWwVWAJ0nroDqdYZ39eb1hL0ej5W2Cax4oSg3a0/5zideLN6qb4ZPEEzGIlOXhaQxTGOWxj+BL5/NOtIYp8FtgUYCRBdYVDCswFvLTYNZy28Bbb2/q/x+4JvlGsK07gpUyn1XW1qORVf51ahV4KwAW8cowSPvTaCx/Rma5VplB31xeQdG3/WIHAOEjLIIbBnlEXCsQ6BORy71WAe3Olz2KdcaKfLZ0nnguxn1tl99EKjYkACgJKkHZ5W5SrNazdsQtNPBcLyrQ29f6Uxjf2gDNg27w3rMH/3oRz1ngnJd5+2USRIR9JmVCa3ntw8GzXGuW7fu6j333PMtxxxzzNkPfehDr763AOOgdkw54FyyZMmxy5cvP03GmQ/YYpwIrMKjsCAQvDXlkksu6c0LcI1JOpRnVhrsCmUDbBFWwpfs2fjsZz+7t44SIfR1ZpStUqbH55pQDX8CgGCE8Bqy5HrKYl6BDZLx+nh3KAlHTMjzxzWCSqb7q0BdLC2Npoaj7iyU7Uswrcqh0TN8pUJmWIr7ZdkmUMFMyfLjn/4FXHFG+MSDNW3dUE8mp8iIc95Sha6gmUa5BVjZ/gqGLQMvAHfVU4HWMgSe2p4uEOkH3l3PUZ0DjbvXt5yE2p4WwCuf2dZ8fnUr6+9yXhJMbBd9o7xTRs5lKkfqIw6cO+oIiG5Dh47qZCqP1mFExgQd8wcs33XeGTLOvqgRlOxLp4Cq/NgffFq++pb38z0dY5xL7BHTI/zz3Rdce63ypI47h5vjmXpH2wxHZ3SEfqdsMmRZUsLGLtgcHXsZL7rGtf4GULWjTN8QKk45sx3ajkGMc+3atdfsueee//TqV7/673faaaerBgHWveX8lATO8847j1Dtdmkg6NAWcDq5nktIGHxCtQgLg89EP8ZbRoqRV+AQfP4M4/IdgXv84x/fWyvKshcTh9yWimsU0jo3mb8RfoTSBAPBG0GnLe56wm8MAyEU3uTC/CgCT2iX4wquICXT7McW0quunn41DtX7T+NYDU6es11Zl4xVQ2KYKF/J5PIZxoTxoX/5zifjAYP1t89amVQaqjRk1eNPg5PP3SpP45+fXQBdDWQL9LrAtgJdq40toOsyKglsXc+b92bf1VB0bZtAxPFkZvlsGlrboZOJ7ACCyDcAgv7wz3dDpzimeV7AUI50Ip1XrM5hOl4ZPjVKZNt8/pxzpL1GbxLs1e/WlEwySx2PzAdA1w27IsMk5bl8DMccZ5Lz2iv7OyMH6rVOr/O6tt3zAruOvO2gz3HG+Qc0TXg0IqSty4xs6ki7gg1FN1tznPYPfTEIODds2HDNHnvs8bZXvepVZz3kIQ+58t4CjIPaMeWA801vetMx7373u18/c+bM7VRWH7IFnAqRCuXE/Lve9a6xN7/5zT3WCNORrSmEJgGl0TeMi2L7qjJCKWw+wHwoy1l8jZlzFwKLCmxoVCGmfQmyet568xoGftNGwRXABDgJq7A3JIDq292dl8j9JHNOVgWwbdlH2S6ZegWUBKIWwxBYZMVplOyHZMVZng6QjCDDzoaODFtTFiDLb8CUccTwcIzfHMf5MJQMOAvUJmSlc9FiBY6Pz5lMyLb6WZ/D507ASECpjl8L4CzDa/Maj9nudNi8zv5OQ5DOg4Y+Pz3vs1tWCxjdU9UF/c61OZ/mm4QAQKM3AqRJNwJUyoTtEQx81gRIdSXBz+trX6ZzKCsVoKrj6HNqK/L5KzDzW2BKh8Ax4VmRQUKsJt2RvQ5ImsGesp4giLxnAp+MXF1Wdk1QklnKECnXDHnOCWJGr+h/iUHKWcqKdkgZT8eA58o5TmVbe0G/DALO1atXr9p3333fduyxx75pBJyD4PounD/rrLNeee65574B4KSYZDwt4GTwTFDhegTRTRDYR/Ed73hHb10SQsRxvS4Unu9pMA0tKaj8Flyoh9AKmyk89alP7c1JYMhVCg2L85vc6zIZgSY9xjSGgpkGLRU7w7MYJ8K5hHhZBgNDBVQBWHcGMbSTCl+NSgJIep0JgLY10/HrsKaSpcesAUilrG3QiMr+VUr7U6NRWbXjlY6SyRCG6/gURBlzfxsW49PzsAKZvCwlf2u8rUMjms6cxj6fWyCoWaldbDONUsuRsb8EEccwf3ONTE0DTXs1+AKZaxS5xnlBjiHDvmsWnTK7MuvOOmin5adzlmPtOsI8VkE+9SIZswCYRj8dAB2JdGhsq45odayr8c85UPsygdR+FuCwGTBI5iOZfmBpiMlz2AND0/a/rJRPE5ooU8bp1IVOqPepvyYnaSOUQ8tgjhE752brZiFrN1oOWdVjnVfH07rQHeZfq5MioaHvBgHn+vXrVz3jGc8459hjj102muO8C8A46NY3velNRwOcW2211QMRjpyDaAGn3iyD6HwjdQCMHANUSMjhjeVsWGD4FNaCUCrQTuIj0Pwlg5TBaUi4low3kooAUb6jTJSl4bHter2WiSCrhIaCqqevsqZXrlI7d0GbeBaej2xglAcQRZCZy0ChyChMIZfRJksRGAX3lleZAJnGRcdGhkhdGlzBR8cnmYWgp6NTGUEazwT2VGDlyOezLdl3GWrz3mQvetkJeH7POTOB0WMZ7hNIky3k86X85vFsf36vz6hDkiwxnYncwELQSOfDZQiOq5/ZT+nYVfBPZ8r2JxilfGXblWnlqwJnjnELOLPeKpO2N3VJoKlAkfVWpysdOx0Cp1pMiiNciW7DIkmE4zdRD6dvBLpklT67odR8PtdqOnXh0rGczlFuKVvGKJgR6cJhJtGHT8KxjoERM/sg+6fL7qqfAq2fXE9UB+acjlw6FRMBThjnPvvs85bjjz9+yfbbb79ukP2/t5yfUqHab3/725ude+65r/noRz86d5tttnlANSIt4ORYFVA6n3VJJv1oJFie8v73v7+XiIMgutOPKeEISoY8ZaBcq1HSgzZkhaAx0U9Igww0lraQGKPyML9ajYuetN6uZWuENZKCre2v1ytkKFcmAdE2AJW6US5AFIbqK4xkHCirhl3Dk2Ep+1ZDpQLltXrUMqv6DJafzCiVQ4OQhj0Nj3vVprFMY6i3rFHMvktnoKWQPkeCahqGNKzJatIAV2/cerwmIyYt4OxyWLKc6lgk0GkkuwyOMsP5FigKglXXHGvPe6/OhmOkbNsOZTXrawGfz5BOQH0uyhRQUk4EOe5117A6ReLzcJ8ywTWZFU/5zqmT1Ea4Fd2FTcooTexLMMs2W286hinr2pOU6erEpc7oKKXjhh6juzjH5D5g25xLdTmNNiUdLMcg5S4dFr7br0772F+0g75hqip1wu/Kw6B1nBs2bFj1vOc97/QFCxacdW8BxYm0Y0oB52WXXbbl+eeff8xFF100e3x8/IEaRR+0BZzG8fXcnCdzD0kV3TAcoMIapg9/+MM9JspvlYf6XMfJMbNvBaUM29omwcdlHa7DAkQJ4wCoCiXlOTeUg5fesp4rAqrRU1FlvmnMOOa6TJkkZXCcZ0iDz30wcRgpCsgnLJX5VJbL8Om6OMHctqcnSjkJ9hr2loFPdtK6LhlVZSxcb+i5y/imE5LgWYG4KottSWBr3aPhy36sIJ73JRAOArUKsq020j7bmk5B9mUygjoGtj8BbSJ9k89RIyDpQFXHIJ0Kda+r7wWT2rYEHpzZTDiT/QtUAhd1ZBjZMmmrURqzuwFHpl0AS1gk4EMEyrckGdLm03pq3/ts5iSoDxwXCB2LbEs6VLQd/VKG3cAAVumG8eQ2oKf8FswyHKxzIQimo6oNqbKbcudUSYbUaY9sF6Z9V4Bz9erVaw4++OA3nHzyySPgnAhi/zHXCJyXXnrpSdOnT39QKoWC2tqr1ld1KYBci7AZNnT3DDdHQBkACNZ5rly5spd9S7iTMIzbWAnIGgnuUWDddN05TurLSX8n8amPMC6MlAQj37dpCjt15DxoGqQ0un7PsCfXalT1+lueaxrYDCdqELiHNsC6XTBOuBcPl63H6EfO4fVynmsFep0Ry03gs/xk8AlsGpq8LtmR8lOBrRpmmcD/x967gNtVVWf/O8QkQJITQKsICKWARanaWr9WURQSrioIghBQMEAuXOQayJ0IScgNE0QRC9Z+1gskJwERP4tILmIt1WrFO1psEXsBDSQn5+SchFvz/787/MKbwZxr7ZOcTbJhnec5z957Xeaca84x3neMMcecq4wYvG7vk0jsEAZjQR87WTrxOLF5HT6WrgtOcpTjz8RYpgjY+5fz7jH6Pbn66W/a5DoTCdVBnna595IiPid5B1wndK/HSdnl170y7z9I1UOkvElI+ildV1KOiFFzkCJJ6am+k2iGl6U2UQ7GIH2ITJM/kdJN3YuxSl/wbBAtxjY6DJkRVlV7pVOKELFETTkM0kEZso5ZzCejE3iHPg4Y+z5V4uOg52KelGdEBhxPdI/q1gYoLrOxrLI5zq6urs4PfvCDs6ZOnapXRbbMX0t5nA899NCgz33uc+d/+9vfnjR48OA6cTqYpjxOwqhYhxoZ3cNWWhISCaY+lY2q6zXpLYWQBar7FMbU2wC0cbuEF2+N+UkJkP50rSxE38bKQzQQCUqjT5GOjpMBqhCQ5kZFpLLmpNBYiXiOTpSucDybH1OfcL/Pk6hu3oziVjOCH9uKpUyyAgCgMnkRL3t5qm95fRKbX8tjZZkNhokMDIwLlBOl5RncY0SrIrmUHXfw9XBkJJocMfhxBz5AjvrdmHGDygmL+2kTG2HkyDNFSF4e8+HeBicvgNvP+zPEZ/N7I7l6f7m3lCobWYzeVNTXVCieevQpeXAPk6USqt9lhd/yQKUzMnJFhCJJwqzSZ5K+yDx1AvaEHeQEw5VoDrrLtYxfJHiXBZfPKLs8H89KboJ0SWSpaSMMVP0WeZFEpDqKIiIQpnu7KVnmOnSe6JH6wO91I1HtVV9DnDzXVhDnug9+8INXV6HaJtoMIs6bb775/O985zuTSQ6K1mb0ON3iRhD0KSAX4CNIEh4pFXOTIgiIWQKiP4VDtEXed77znXoYV/cL+CEe5h1cqQgnA2AoCG1BcVS+riWbTsohS5kXV2upiybipfy+A4/KYx9drE82dsZzBXzxvvDU2Qc3DlkKPFMko/u8Dj0Ly2eYL+I+9avaqX4nzKTfmgPBY9VvARWhtxjmgzDcM04Rg3toeLTRKibk7R5BJJ9olKQIkigD4J4iMAcV72vv5xxx+rM4AKc8N8jK2+3P7fUB9BhVEdAdAON9jEPsZ4AcgHXjywkK780NSO8/gJxnxFCVQUuGqhJyRIgsPxJBshbbvSaAH5mi7ega0yyuI7qG9kD0TuY6j/frUS+PTriBFGWC9lG2dEPRGhmZ0g2P6CDrHt51w0l1IuPRQNR15BYwVvS9G5AqGw8XjKDfkCW8WTfahTceqo0Gme4p8zg7Ojq6zjzzzKvHjx+/sInU0edFt5THqeSgL3zhC+evXLlSxPkahJ1eSXmcLvCQlQZfVhxhRQekaJHhqeIVStEk5Fo4rP9/+qd/2vzOPdYOokAIZwRLAAEhVRsJnbgViUcLEKl8JShIWLXwWKQqABFo6JwUEK9S97DW1AnTQzQk1ng7I9BC/BHk+e3Xx3AoXoB7X7FPmHciLC0vVJa1Mn5FpLK8eZ8hi+R1jcJU+tT5WK8DXwRGrOnU8zAuOXLzegAyZMiByAEkgqmDKO2M9TqhQGxRLt0bjKTnz+aA6XVj7Kn/4/0OzJFQvG+JBtAv0XigzR7RUHuIrrChBbtKsRxIBClvUZ/yHskx0CeeokdyMILcSKYtMRTquo4Ry3NgRNEn7nEhy7rfpxG8r3zc6XfaibzoXjcUldAjY1I5F5JndB0jFOMxErePa5Sf6OUjTxhWGPhqGx5zzrijXsdOZCAmB8Xn1zOXJQcpVHvKKadcPXny5Ov7nN2aWGDLEecXv/jFcStXrpwyePDgPVGUZhInFp0+sS6l6CSlCMDlheqVO5qoF+DrWkI7Un4nUoQLq9pBBQXWMfekJLxcR2ICxxSSUgKD5kdFqAr1ikwFPFIKkZADgluoAIQDLUDJMSxNvGgnfX1nSzNCbjrmiouSOdC7ovtxSN3JTdcyLwNAEhVQX0CmzMHKqNE/3quen3Byah2i6qdcJxaeIQILQOn9EMHTSS56xDlSdu/Ny4syHrEgno/l0BYnNwfhlAHk9WPI+Rw90xFsJoFRCcFBiBpHRWTYnMJ3f2KPVDaiwONxYtZ3Xw6FDkZDyb1jJ9ScUQeJIeuMP+Xw/CpLuo63Gg11N3L13b1CylL7hREiRk3ziCR5hydTJeikv17QydvlydsIETrpRYKlzakwbCw3GmdOhM0izu7ubs1xVsTZRJLX2iTNcY5bsWLFFCUH4Q01kzilNJ6t6taphEnnJfBSHCmG1oKyv6yUBcElMQEiUJvxKL18QAhBdVCIYTUnUyxVgZc8UAhUiUciUdaX+ZyRyiaUEy1xVxonU8JLhHx8r0/3rlLkmCIYXccz4iU4OBD6jR4iYOEeGcaIkwGgSFY1Hi5EAJmKeGXxs85Wnyzb8RA64A2YptZJuuHAOkmsfj/nIJciM/omEpn/9lCzh/Xof/rEjRIHeAAVEiSRhrlskR1ZpzICITzKQPa9HDwaHWO6A7mh/+mHGI7nmZEFX0blchEJkv71T/VT9NijbEBalBcNWYxl70d0U2Ov/nGDzqcjFA3RUi/fMpD66D+iQYwphhwebtTPInJzo9wNO5cLfz7vTydfx3CuaRZxah3nyJEjPz5hwoQbmskdfV12S3mcDz/88M433XTTuGXLlk0eNmxY/X2c0aqMc5wOSD74jYZq3YNCGN3yZTJfZQM2UijNVShMoRdYKwtOL7FWWI9dafDQIDz3QLG6dY51WFiXLgAAEyTsCq3nVtvUFoGb5oJEnsoilIcq71TfRbIRLOhTtUn3RyvX+zR6VAAfFnM87yTpSgmQRMIGuABebxsWfzzmhKP73PhwQlddLBfwqID3h2dku9fG80GcgGf0XqJRED0/2hcJFSDNeaJuSKRA0p+TCAbk5tEBlhlEcqZ8PV8E0uiJxDGlLzG4ooHgddH/JDnhudF+jrvx5uQXoznebxi2Pp5uILruYQhCWLpO51lu5c+sa2Vk6d+Xa/nLrQnnYvg50Ufy5tlc7+kHJ7QyooMg/RP9cx3wPojfHU/jONNftLMvQrUdHR1rR40aNf3SSy/9VF+TWzPLayni3LhxY7+ZM2deeOedd16lt6O8GMSJkLgQQVRSCk+C4RrmJ1BieZ7awUO7eSicK0IVwUuo5Q0CvoSrEF6dzwEGRAuhOrG4spHhiwXviUsSfF5QrfR8rTHVHKpIliQkETdKR8hUv1FOEqzcw+E71j8CHL0gAATQcgKMfZAjb547KomTcgQDB654zoFX1xGK9meK1+SIhbGJbXPSS9WfKs+PxfuLANWNiDLgdQCnPjwiiIBnx9CJxBoJHYPAxx6dQo5yz6vzTBW4bHC/ysYIcP30PvU60AFkV/cQUYJgOKfjJO1IxkWKSt5h2ZWmAMjCd3mAIHkm9xjdgKC9RLAgSj8OzqBHMUTNeTec3JPV8RjFSY1DxLaIq/RhM4hz9erV8jhna46zX79+W1ppzWS+bSy7pYhTz7pw4cJzv/KVr8zSHCcCSx9ISPra40SwPdQEiEBeJBDhfXKP2sWWWMzbSdm0MbvWhmqTAYVyZLmqDNLMATBPbHHQo15XdsgHz5c5WAc8t7wJ3ZGBC9ioDZqXkieqT2UuKkFDxMqaN6xwB0mUzecj1SY2WUCBvT9pD22PRgDj64DhZOug7ODlOhFDgVFm3DBxgOI6gDSCkLctVTf9iUcUCcVllu8pkot9HPXdPeoUMHPe74tGjhNZrgwnKMZLn6nkpWgMOOlFA88jCrGP9Dt6nO65qVwH89g3jCeh49i/yA9z5bw4QXOQJKfp08PLeO/IA212uYyy47KPvPEcRIl4zvgMjiXoB/qvT/o/EiLlEBlxGcsRJeOUGj/a6c/ZFx7n2rVrO4499thPXXLJJfOrLfe2kc2Lbv/EJz4x9stf/vIMhWpdEVD+viZOLF6frHcrXG1grpXjLoAemtO1zCVxrbxREeiDDz5Y3zJLVq2/ow9rD6IDwNx6dsBxaxqLPKc0lB3JAbLlPM+jupXoIVJlMwh5qey4Ik9V5z21neQOANlDmYxZBB8HbycGwMEV3589gr6uy4WKHRwcdCJoxHR+J17A0495G/QdA4YxcAMIIIzn/JqcR+33RH2JBOTlxeeG2HNluEfp/c/3lGHgdbiuOIHSRqIqkbwpvwjM41igI+71YcjxqjLe5ckLrqV/OsfL6amPMsgJQBfcgHL5ikYXOgVuxH6mHoxuJ0P6QvfQDjxJn592vfE+Txk/Pr5+njJyMoKuNYs4N2zYsObwww//1KhRoxYcfPDBXU2kjj4tuuU8zuuuu27Ml770pZkizggqzfA4PQEJ74V6sQZjCANyw4oEvAFhfus+PFKVpTlQZd2JQBXS1RooLF7qkCJjZWLxQ85uDQMqkViigrrx4aTr1rqDmAMEiq37MAiUQOILzvVdzyjvleQSiFXlsnm+yiXsHeee/BkiYXioq0gzorfhxkQkSydmDxXqOicMwLSo3hwx5e6JpJdKDokgmCorBaqp5ywDzpxRQx9FoyyOleuGn0tFEbxvMQx9+Un0Vnkekm+Yd1Sil/51XPqjUKuIkugKxKS+ZY4VWXSi5xnRe9dbxt7lDxlzYkJ+ooHhOuvyhjEFhqCTrpt+fYowUyTp9bsB5ONQZKQ0izi7urpWH3PMMZ+89NJLr3/1q1+9rk/ZrYmFtRxxzp8/f/SiRYtmDh06dE8HQ5Rhaz3OFKhEgU4JVvQgYjlFwggQY5WKEAmDEh4SkSpbV7sXiVBlIfu2dng0Emyycz08o/K8fDw49Z2UM4a6UFAIUqTH/dEL0G/fOcVDUh5GJaNYn/qXVyrvVETKfKo+Ra6s5eM9gp7VqDbFuTY3EDyEyHEUHuDAgmfcInFEr8h/u4fD96I5vkb0NmUUuHGQk8sUeUZZdID0c348J+OREGN9Pr7IMaCfapt7gbRFZTAdkSN/SJEXW7OmV54jhKhP6T3rmN1gheDcU3Ni84hGbAM6kBtHPx/HMRIauuH96kZsJEjGyMk4ygX97hhThDep54j3puSNPmzGHGd3d/cThx9++CevvPLKT1bE2QhibOU1c+bMGb148eIZQ4cOfW0EgG3xOLcXcbrl7soCCWDlck4AISLVPKnmR7VnLEsoJNiEqyAplBuijKEzARdK7x419fm8rZOR6tE/W5JhITsRRSD1MC1AprbjRUP+vIZMx+WxikxFqkqkYi0ga2khWAdGPG99srm+g473uc+BpogndZ9f56HgHGiliIRjKY/Uy49RlSKA9nq4LuWxuhfpxOGEQh/5HKYbKTyry6c/EwZOXP6kazAK1TZ5gr5towhRJCm50Hl5kW4QIc/IEjs3uXy7nLKXrPebP2fK43ZjImXYuJeWk6s4vq7bGBEYnj4etD1Fki9R4nz8iCOOWHjOOefcWIVqt5IUG7lt3rx5Z7e3t89qa2vbSwLowNCqxIniuMeGApEVi7UHYaHcAhiFo0SiCu3KI2WfWN7kAsipv1hwjiXL/rF4q5AdgM0cJfUCXA74MUQcvTYH3EgivtlB9GIc4KIBgGGg51EZ6id5x/yzNEiEy4J9riXr2T38aISlADNFjE68KeJqxGMs8gR6E+pNtdnnEGP7vU99jGI5TlyRxHhbDmF2NqfgBQoiQXaFwiPEi+RlB5F83LBxgwyZ9bb6HLRPoRAlic+f86hog9eha5F/vEPqphzq93KdJPnuxlw0XPx5o8z31uOMZaX6NmXIRaMpXtOsUG1PT8/jw4cPX3jmmWd++pBDDqlCtY2Q4NZcM2fOnFGLFi26VsT5UvE4I3ESgtFxB073RHh2nRc4QBRSZGUHikwFWgrv6lMhX61dZXkFnqeIJs4duRXOHGS0zB1I4two53Tct6SDfL0stTd1HK+EBfbRY3AAi54ihADwMf8KSatdPs+q+p2I+U6/4glTDtnPbjD4M7tH4UZE9CZcfh1sUwTsXpA/b2qdpYMgxogbPBhoOoZnCPFpvCA4xsA9RL5TBpuux+NurPl3nwpAzmO/xOfPGZYYeanx92Mpg8fJq4w0/P5IbDGrledjPGMkJhIS+p2qw/vFidnbEIneiTNHojsScXZ3dz9++OGHLxg1atSNFXFuDSM2eM/s2bM/2t7efu2wYcP2jre0oscZCSkCrZ5RoIbHCeBj+aM4PocCEWElqkwBosJiWofGRuts/aV7qQOSoNxcFp9b6E5qTvQ6HpcrRIufBfgOrni/gH0kFQcZD2U6mdM+DyU6obrXAsDEEJzK8w0CIsDqN+chS5+rUrm8zzA+g/dZikBpP55TBGza7M/PNU6Wfr9HNLgW4o1GKH2MxxbJifZhgLncRvJwryf2sW+p533iz58Dei+X9rkBg+74dREzaL/3UxEU+TirLidGN5hiGXH8UmReRHQ54mykbyKZ7kjEuX79es1xfuKyyy77dLUcpUES3JrLrrvuujPa29vnDh48+HV4K5TTisTJHJOHKRH0aIVGANI9KC8AEEN7AgQHc5Qb4pUXSpKFSJW1bFrgLU81Eh1zqJSD15ACS84Byk6EeGv+rPF5dM6fi/LcMOB53YNwucIAcGB3EnPC8PbyPD5HFgkuym8kQ50nlBvrhLhj/7oHoWs81JgC1hiRiLKD4RDrSdWb6sO4jjKSW5HHxDmPaLicx75PEb8Td+p6NzxjqF+/o2Gh/nHyjt6bE6++I5PIg8u/jpG85rIQjYOU0ePtjkSWItVGiDMlHzqFjpsAACAASURBVDmCjsZENApjmzDCabeesY/WcSqrduG4ceMW7L///pteV9UCfy2XVTt58uRz77nnnmt23333vd1aRSFaLasW4nSL3r/rGX0JihTVCcYV17NfoxJF8oIk2BKM6/E+STgSsSpBQ5/6F5mSmIEX7IDlHirkUEZOTsLROIA8KZdxJsTIcoXoMaW8VJ7Z25Xy2Py8J/+k9NnvT513MorElPKwIqCV/fYyIhnSV15GJPfo0Ua5SW3CgQGEHFJ+itjoS65JkUoEafeYUx4v9evTZccNHyfIon72tjs5ck8u4oCOulGQIsjU+LkcYFhFgotEGfvIMSKe8zp3dOLs6elZfeKJJ06bMmXKZ1uALzc3saWIc+XKla+4++67P7pixYrpw4YN25eMTFfKViPOCHxRIbB6AZMIFJ4i7sCh75xDeTwspXIFSnFLMCzuCLCAlcpU2FfZj7zeS33ubyTxeS/ALXq9EbDc06IN3EvdgLB7t3jU0bOijOiRUq973pFkvW30nV/jwOcAF4kxkkbZ7xTAR88kegZ+PkWcMaIRr6Hfi4A43sO16luWQ8UQveukk7Ef97GJz04dsa9jOzEcCUOrfMhMx2JyEZEOxj9mBcf+8OVQsa/dEEvprdoSs7YjOcQIUSTa1LhEGcgRpxtOKdmIRlKRDDTL4+zo6OgYOXLklEmTJlXE2SzLYePGjf0nT5780eXLl1+tUG0Uhh0xVItwpixIJ4aoDClBz1mhUeBzVmbquCu/W/oQhSt+9J6ih6H7FdrkFV8iVDxX1uH5WjuALXqszHGqfJEw4TEHNQAyEkuK4CJhOUhH8PZncgKlDD/vZJ8ixRxRpuqIOpMikhQB5Y5FryNFfinZjM8cgT3KWgzVxvb4zjsufxhDEK/LfxGAx36CJN3gc8PKiTFl2CB70ROOspYip5w+RfIr6udcGbnx8rLKronEmMLlOCY53GkWcXZ1da099dRTp02cOPHGZvFGM8ptKY9Tm7xPnDhx1LJly66BOD2UVhHnJhHZWuIEzCBTJ4ackmLpx7mgaJ07QLE8Qda8EpX4TUYnSxo8DE39kRhjqDSed8MAL4PPFOlGgHQCS4FKXOcYlTQX6s2RZxlhFhlURV5Fbw03J9B4r5NcarmL9wGh4EjIOXJMGTn0VWr8UpEGryu1jtXrRsadOMu8+KhfRQZtNGCifLzciXPNmjVdZ5xxxvSJEyd+shkE16wyW4o41QlTpkwZde+9984YMmTI6/TbLeKKOLeOOAErB8ScwDm56pq4wN2JS9c6cHKOMjRevM9Q331pBFm+IlV/n6F+6xzrBEW2tDt6DzrOzkY5YwLizYWSI+BHYG90jjOWk/J+YtkpIyiSY6PrFFNE5UZFHFfq8Tm8FAkUbbDgcsX32F85jzD2T4x2eFvop5T8RhKM13goO0VqjRgqFXFu3MJYR640tnoTlPbhRg+RA+mq+r6zs7Pr9NNPn66dg5pFcs0ot+WIc9KkSfI4Z8jjjB1SEefWE2cKFAGZlBcUgTiGPz15B1JEoTyUJuJDmQi3AYSEcilLxwFeEpTI+qQOjuMJK0Ts59xDxvByMHXypf4i8kx5lA6kfj5FBk5euXpyHo7KiwvwI9CXhRxjuDnez+8oA7TVPe4UucXzXo6+5+b4csToJOn6X+QFFpXl/ZN69oo4N0WwmhWqFXGefPLJH58yZcon+/Xrt7EZJNeMMluROM/RHOeuu+76OqwWOqYizm0nzpz1HkOWTqpOPJEcikJlui8V6vPy3ENx78GJOQKoz9V68op7VQCiE6+TKt/xaFMkq2O+AUEKeH0ONQX0KaWO5JLzlt2QSAE8BkmKTBnnlMfs15NVmvOQfQ48Er/uiclr8XnLskpTc6w5IEw9Z6Oh2mgI5gia46lPP5b63ggJlxkGUT9zMtWIIRGfIdUHLic+lhqXPlqOsvZDH/rQ9ClTplQvsm4Gwz83gDtNmTLl7BUrVnxcHmec0K+Is/fEWaSoOUV3BcOjimFSN2Z8Ps9JsQicuD8FzBCCyvW9aJ1Yy0CM8v0ZY5g5XuNt9/tS3zkWsypTz9+IvuRALUUMKTCNz0n/RIMojkmOeJwki54p9/zcH0PBRUZCHFP9dgzIGQ8+jt6P+h5lJkUmcXyKSKlILiri3ORQEmnQ2Hd1dXWcccYZ08aPH/+ZRvRgR7mmpTxOLUf55je/ee6yZcumDR48eB8GwUF6R1uOkiIHVzzmWBoB1EaVMgc+RcejUtOenKfJc2GFxmUyOTLhuM935oCN8aUt7kk6cEeiiM+ZewaAM9X30SjLKSweUQ5MY/JKJN+iUGkRQKdIPdXGVJ/F/k71P+2MHmlsU0p+nZyi0VTUrzn5dh1Kja0fKyOnONYp4kzVV2SMFOllrq+Lxs/7L15X1LaczqUMjlT9qXq5t1mh2rVr16459dRTp0yePPlvdhRSbKQdLUWceqDp06eP+cY3viGPc+8471J5nJuGvDfEifUXiTJFpCkF9LoARffcfB0c9xMG9TpS5BbBKnWNh/Jyzx0NLF2XI5QyDyQHQjnw9sxgJ8kcwBeRZaPj6mUXGWax/+NY+rOmPNMoa6n2cYxnjzKSe16Ox4hDSueLZD5HeDn5ThkREUgbGaMoJ0Wk1Mi1kRQbIddG+iXKbU4um0Wc3d3dq0844YRZ06ZNu6lfv36bEh5a4K/liFNvR1m8eLHex9kSe9W6hZiy8l4sjzOlEI1YrymAadTCTgFC7A9PzkiBXKrPUoBQluQRyylqW6r8XP/lyCMCcKMgFgGxrP9z5fYWWMv6I3e+kb7KEWoOpMv6KtVHRWXlxkL3uP5F+WuU7BrVh0aeN4UXOWItIv8ick/pGc/6YhPnunXrVo8YMeLG8ePHX1e9j7OJFsP8+fPHLlq06ONDhw7dK1ZTeZybeqTI8o99llOYVBlFRkBvgNcBqZWJU88Rvcgiosv1aQT2HBDrulQWaqPElCq3DPTLzlfE+by+lRkXFXG+cI5TxHnkkUd+ZsyYMQsOOOCAtU2kjj4tuuU8zrlz545rb2+fLuKM80MVcVbE2ainVUb0ZcYH5/uKOHMeQgTbijg3EVUk9MrjTBN4I8aaG8QvtsfZ1dW15qijjrpx3LhxC/fff/+OPmW3JhZWEWe/TV2QEpjoYTVi2ecEL2ftV6Hafi8AwtR4lBFLs0O1OaJ9MYkzZRQURRhS3q97t2UeUiPnK4+z8jhdLvkuvWhkAwQR55FHHvnpsWPHLqw8ziYyfeVxbulVFoVPi0J+ReHBHBi/nEO1uT7ZHsTp3m5FnC/0QKNxEGXd5bia49wUPoXwXmyPs7u7e80RRxxxw7hx4z5ZEWdFnFv0QCq0hLBWHmfreZwOLn1BnEXziKmQZEWcVai20SmJHT1UK+IcPnz4wtGjR3/qoIMO6mwidfRp0a0Yqh3T3t5+dZUc9PzuVEXEnLO+K4+z8TmhXJhYfbitxFkUTlX5cecdH+u4dKZs3i83XZCSkdy0RCPX5p6prH2NhH1zUY9qjrNxeXYG8XEumgpo1nKUnp4eEed1o0aNuvHggw/u6lN2a2JhLUec8+fPP2fRokUzquUoFXE60DZrjrMMzLcncaaIOxWWbITs/DmLwr+NlFUR56Ze2hpDIWUY5MrqzRx2yrCI47y9iHPEiBGzL7vssr+plqM0kem1jvP222+fsfPOO+9DmJPqqqzaLRX2pTbHWeQxbQtx5sJejQBTXE6Ta2OZZ5nzansTqk0BYcq76A0xFoWRI4nmwoKN9kmZkZIzCooAPz5/9LCqOc7tO8epnYOOP/74mWeeeeZNBx10ULUBQjO4U+/jnDZt2rh/+Id/0JZ7e7PNW0WcL5zzyXkQcVwAnUa8hFyYrBEvJAfqvVnHWRHnpnGmH8p2OWqE+MuIsex8I2RXEWd5AlOZd1pkQDWifzuqx9nZ2fnEhz/84SvGjx//hWZwRrPKbKlQ7Q9/+MMBS5cuHbN8+fJJ1fs4X36h2oo4K+LMGW8pYkgZDpXHuSWVxP7I9WOz5jjXrFmz+sMf/vD4CRMmVMTZLJbfuHFj/0mTJo1esWLF1Oq1YhVxurdThWpfGKavPM4tX+/o3jrfq1Dt9g3V9vT0rP7ABz4wfurUqRVxNpE49Vqxc++9996rRJwSfn97QzXHWc1xpua7ysKNuXsaIZ5qjvOFWzw20m9l85K5+dLK48yvuSyKyOyoodru7u4nTjrppMumTJnypWbxRjPKbalQreY4p0yZMnrZsmVX6X2ccR6vIs6KOCvi3NKDqJKDnu+ByuN8IYVs71BtR0fH46effvqlEydO/EozCK5ZZbYace40adKkMXof56677lp/H2flcab37qySg7YEzLIEiqL5sKJ7K4+z8jjLIhopLznK1Ms1Oainp2fVqaeeetkVV1xREWezWF5znM95nFPlcUawqzzOyuOsPM7K40wZOpG8qjnO9Jz4i50c1NHRseq00067bPLkyRVxNos4lVXb3t4+ZsWKFZOHDh26z9NPP13fSJi/HHHyRgkyw/T5xBNP1DZs2LDZYy2aA4jzLUXWYU7wcvMP1ZZ7jW+5VzSHUyUHVclBEXeKoggVcb44xPnoo4/WHnzwwdorXvGKLZZRCZOls+vWrfv96aefLo/ztmbxRjPKbalQrS1HmdzW1raPhN/fEF8RZ+VxVh5n5XFWHmd5+DwVKi5K2Nra5ShlxNnR0fH7s84665Lx48cvbgbBNavMliJOdcL06dPPv+uuu6axV20jc5w5j/PJJ5+sWz1xPtA7OyYUpOYOc3McLpyVx7mlMtMf1QYIaWMnlVWKLHrf5eayGzUgyubnys57/ak296Z9jZSVmi8sAvwiXdZ91XKU5i5HKSPO1atX/37kyJFXTJ069cvNIrlmlNtyxLlw4cKzb7vttpnaOUig6y/27Y3HuXr16nqoFuJMKW3KKquIM71LURFA5qxbHa+IsyLOSG5FulgR50tnOYp0f/369auOOuqoGbNmzbqpX79+/9sMkmtGmS1HnHPmzBm1aNGiWW1tbfUt9/yvEeIktg5x+n63ZRZzkRcQySFn6UZQqOY4qznOIk8rNZ9eeZzVa8V6G1EoyuFwY6SZyUFgLw7Pc3Ocqw477LDZY8aMuemQQw55qhkk14wyW5E4z2lvb5+x++67760O6e0cpwYvJgcVJf+UhY+iAFfJQWkPKvZjFap94a42jcpaRZwVcbYacZIcJLJ04uzp6fnDiBEjtMn7LRVxNoPinytz5syZZy9dunTGbrvtts8zzzxTz9bir8zjVAauiBbiZI6zIs4tgagsbL01814VcaaJsmw6oPI4t+y3KlTbmqHaHHF2dnb+/r3vfe/Vs2bN+tt+/fo900Tq6NOiW87jnDt37llLly6dudtuu+371FNPbTFH2RvijHOcMfGi0XmXyuPccs/cHBFUxFkRZ04GGtU1l62UQRGRMUZ/XFf5XiUHNTc56L//+7/ry1EGDBhQX46S8DgfHTFixLQ5c+Z8oZrj7FNu37KwuXPnnrF48eLZgwcP3o8UaQ2K/pTsI49yzpw5tcMOO2zzb08A0ndds27duvo/A0mSisg3F0as5jjzuxQ5KOY8Vu+/KlRbhWpz0xpFEY/K4+ydx9lIX3qfxjERHhKp03X6rvXz+tt1111rr3vd62pyYAYOHFhTBFD3C4/1XZj6P//zP7WHHnqofr3ODRo0SAlBtZ133rmOwz09Pf89fPjwK+bNm7eoibTR50W3osd56u233z536NCh+9MbGiSRqD41qFdffXXtqKOOqnV0dGzeIAGBgGy7urpqa9eurQ+ghEOD6BZRSuAq4qyIM3rU1ZZ75WsGU6H91Bxdkc5Fr7TyOPPTK40YsanIUGpMhI0iRX1ChvS9sHOvvfaqnxNZCnvJIdE1Ov9f//VftV/+8pebl/2IOEW0Ct0Kczds2PC7ESNGXDRnzpy7+pzdmlhgyxHnrFmzPrBkyZJPDB069EB1vAZCA8oOQvI6r7322tq73vWuumXjwKbvECzEKaHQIEdPs9HwURWqrUK1MQSYA6WUTKWuLfLYva7qRdabeq+MhL2PY9TjpR6q3VaPk/4RxuJxgpXC3n333bfe/+Aq9emaXXbZpfbYY4/VfvKTn2wO1Qqnya4Vfq9fv/7fjz766PNnz559bxN5rs+LbjniXLBgwRHt7e2fHjJkyCEaAFk5PvHc2dlZmzt3bu2d73xn3aJxQlTv4XH29PQoTFAnVw2m/iFQBjYqVeVxVh5n5XE+T1ZlpB/PRxCvQrUv9NZzhkDKw07N4Zb1eWSQaEjEMoWB8hD1B87qt0hz2LBhtT/6oz+qYyzr6QnrgsurVq2q/exnP6t7n+Cr42pHR8cvTjnllAunT59+X5+zWxMLbDninDdv3l/ddtttn2pra3vbTjvt1F8DpgGVRaRwgQbqwgsvrI0dO7YmEhV5Mo/pQqXr9a8koSJPIGWxFYWJcmCQC1dV6zirdZxFMlYEmJXHWXmcOezK4U1viRMnAsdCKxGEWa985Strr3rVqzY7JuBsXBf/29/+tvbwww/XvU+1iWk1ZLezs/N755577vkXXnjhj5vIc31edMsR5y233PL6z3/+858cMGDAEa94xSt2Vo8wRymrRkT4l3/5l7Wbb765nvwTidMFSoOnkK3CuxIIJsI1+JRZtkFCFaqtQrVVqPb5zEw3Asq8n8rj3PE9Th8jYakIdI899qjtvvvu9e8QqcZaeMo8qDxSnXvggQfqDoycGhIzmTLbuHHjMz09PSsmT558wUknnfTvfc5uTSyw5Yjz61//+quuv/76hevXr//AgAED2lhMqwEm40vzllOnTq294x3vqA9kSpnxQnVexKmwLSEJykRQYoi28jiLyTLlQeXCdNWWe1uGPhuRNa6pPM7K42y2x6loHluTymscOnRoPUQrImSaC3nUtSJL4bAcjt///vf1xCDCtzrP1JmOPfXUU+sGDhz4DzfccMN5b37zm9c0kef6vOiWI071wAknnHD56tWrLx8wYMDeEKaOi/zkdcqLlNe5YMGCzfF339MWsMZKEkGKNCUIEhLI1iyjLci3Is6KOJ28Ko+z8jiLvGuMxkY87Ny122uOUwQnXBRh7rnnnpuXnfC8zxHg5qUmmtsUaQpHtX7z8ccfrw0ZMqT+W8QpTOV1kD09Pf/z+te/fvZXvvKVz/Q5szW5wJYkzquuuur/fP3rX7+pra3tLwYOHNjfE4REgBpMLTW57LLLameddVZtzZo19QHTcd7BSTq0SFPfNdiylhTelaCQKeaE25v5TvcGYjjXlcw9rtR1qbmK6EHnwsW5e6OVWlRvVPai0HTZvIp7UzniSQFQCkyiZxb7sbeWeNlzpvocw6sizoo4d1TiRDbBIz7x/AifsoxEOEjIlbCrEoAUniWi58mTJGByH9E6bXzw61//un4PeSiKBLIGVJsdPP744z+78MILR5933nk/bDLP9XnxLUmcd9xxx6sXLlx4w8CBA4959tlnd/c1RgonPJfmXNttt91qEyZMqB1++OH1wVNqtMIMhB8gR4RJvRtDtyx1YXJcv11wHNQRUn16mTlion6/LwXgvVXKSCoR9CvifGF4tCLO5+fbUgZiznAoMyZz9xUZk7n6XQ+Koj6NGF/U/1JfjuKrBSA59Y8wUOcUpVPYldUGTFeJ5DRPqXWavEyDPicHRFioCB/ROl2v+7R28z/+4z82r3hgYwTVK3xWHsqgQYM6d9ppp//32c9+9qJDDjlkywzNPqe5vi+wJYlT3XDuueeO/tnPfjZxwIABBzLwJPcwUBIK7WxxySWX1Oc75U1qYCUwmrBm9wo8B2LzEK88UP3LSsJS4hoJkadhOxC4dZfzWLH4XCiLvLky4GrU24si5KSd8tLKCKXMI861q/I4q52Domw1QsK56ENRWSnCfbkQZ8rIB7fUB3iEHNNv4aLCq/rU7kAkSoJleJfqV2Gl8BZclXMi0tR0GTu66TpCus9dt3H16tUPHnPMMRfPnj17ed/TWvNLbFnivPXWWw+++eab561fv/7w3Xffvc0HirCsuk8h24MOOqh23nnn1bfh02+RoYSCgfdudtLTd10rAhbpEpvHSiVj1z089zRVbiROFD9HnEXWdhFJVcT5/LKW3nrtRRGBlDHhYxSTm8oMhSJvqIw4opFTJQdt6s0y7/XlTJwk5vAWKUgPMtR5cjrkMWouU6Sp7+Cf7sHAh2BJrmSaTOX84Q9/qG+v193dvXm3IfqeDWp0/bPPPrt6l112WTpz5szJhx56aMt5m3VHq/nc3LwaJk6c+IF77713xh577PHG9evXv0JhAM1hanAHDx68OUtWE9SK0ytse9xxx9XnMD3kCsHFhbxujRGO0L36jiXHouAI1hCjK60DnRNnLuzUGwKoiLMizki8jcjP1kQMctEPNyDLDI4yssuVVXmcvdur1scXsoM0MfyFmyJLYaY8Qjf+3TAEs1QmYV/dp++PPPJIfb2m55tA0ryMQ97r+vXrn3r88cf/5WMf+9j4888//1+axw7NLbmlifMXv/jFwNmzZ0//6U9/evZrXvOavTRQsnbYZFhCQPKPBlukevrpp9fOOeecOvnxWjKfKEdoEAxCs3in8kBZ90lI2EkS4XTPMjWERcDRGwDKAUkO3GJbqlBt2mPJeaHRY6w8zmqv2jLjoxGvOGc8pyIUZTrruk+Ohs9L6rwMfv0TkhV5CjdjWFZ1EWHz6SrhomRf0Tht5P6f//mfdVyEeD3ZSJj5XO7Jxo6Ojv9405vedMMXv/jFTzeX2ppbeksTp7qmvb39TbfccsvMjo6OwwcOHDhMg9zW1sYEdJ0g8UR1vQb/7W9/e+3iiy+u7b///vW5TsKpvvxExBnXcfocqIQBL5Q4v88BMGyESFCMGF7LeQWNAndFnJvmCqus2k0S50ZX5XG+cB459s9LPTmI1QPslKbnleenJEl5mArJ+pyn44n6ivlLMm3BSJIoFZpViFbXCmfZ6J163Ynp6ur6r7a2tjvHjBlz3amnnvq75lJbc0tveeJU93z2s589/POf//z0YcOG/fWGDRt21TEJBWuH9Fskp8HVgCqra++99657nu973/s276EIWWJlkVrtZKdzzKFKCBW6dS+Ut6wUAVgsr7deYMqbrEK1Vai2Is4tNSllOLzciJMlJSIwYaI8TBEn2bYY9pEw6SemoojAQYTKnFV4Vo4H2+npGt8hiDpUVk9Pzx922WWXu0eOHDnnggsu+HVzaa35pb8kiPPhhx/e+Y477jheL7ju37//nyrxR2TGGiVIVNYQadZPPPFEnUSVbTtmzJjaG9/4xvp6Tw0y6z1ZsOtCQ3aYjnkoWHWJnBUqFpn6K3YIf+AZ6RMrj0l3D8lEbzOGZjwcjJebAwmIPoIqv2OoMYaGisAnReBF96eMibL6Y7/kyq88zsrjTBmgfsz1iu9b63HmDFXkMBUJyhnMvdF3XRs9RJ+7jMk7wj79K+nH3wTlWbTxzSfsJytvVKFY/YGFwsjf/e53dS+TJEswU/jHSgWWtzyXC/JkrVa7/wMf+MD48ePHP9B8Wmt+DS8J4lQ3/frXv37V3Llzb/r5z39+8oABA3YiK0xCxaYHGlQRm85psEVuemenQrbDhw+vJw4pA5dMWgkaL2mVAOh6D7lKONivUedJySaEq09l4zph5BQ5JhO5MhAeQRl9HiKusSojmkh2KQVPkWxvy009c0Wcz49+Lowa+y0CtINslVX7vLEQ+7NMzl8s4iwzRCFaz7PAwNY55hVT+KDrICjPyZAHKLIU3oFJRM9IavTsWt+bG0Nb5QkH5Z2SO6J5TP2zrE/ls3EMoVlCurzDU23s7u7ufOtb3/o3l1xyyVWHHHLIplettPjfS4I4H3roobbbbrvtnJUrV17av3///bQ0RQNO8g6eIS9bJZtMv3VO3qeEQaR54okn1kn01a9+dZ3wFIqAhBE6jbkvJobY8HB1TgLF3owSflluIm2ROPWT5h0tUaxBfZLGnSKzlNUbCa4oeSVHhhVx5hOGIhBWyUEvz+SgRj3OIh0jShVxgCkjz7z3JEUMZ7WBV3wJ7/QPWbLBgedYOGZRBrv5qC2su4SsdU6YpbCsvExF0kgq4n7eSsUKBGGlrtOfCFzfd9ppp//duHHjr0aOHDnh/PPPv1u7BrU4b7b2chR1/kMPPTTo7rvvft/SpUundXV1vbmtra2/h180wIrry7PUICtkoT8d1yBrXSfZZSJPkeif/dmf1U455ZTaX/zFX9QOPPDAutWnc76BMVYh2WMSYuYTVB7kCinyW4LOnKiu13fK8s9IXh6u9VBtDONGYKecGA6KZF3mAeUAIEfelcfZeKJOkVFUeZxbJvi4PBeRkvdp6roXy+PMRZvQP38JBd4eREo0SdewCoCwKMSoV3vpu0iOrUNd1yFf3xrPSVjl8lpGfRd5ChflfGiTdiX/sMRPdeiP/Wh1ndpI4pHOsT4eXCTs29PT89RTTz3147Fjx15+/vnn/1NFnNu5B2699dZ33HzzzXP79+//1meeeWaImkPoAW8Arw0hxqLSb2XgkiGG4Cl5SPf88R//ce39739/7a//+q9rBx988GYC1X3U4Rm5EBqep8rF+1R5lK9jElK1gzWl7E7k21OhXO7Rqm73SIvmaCJgOAhXxFlObDljwkG58jgrj9PJsWiOM0XgHlFyveZa3kyi60RUIiaFYVk+IqKLmJAL6/px7oGcwSZF2BSO1V6zvtMaz8X0lPCK5SfCM0hUhKu2ql06T6atnJfVq1f3DBs2bOXZZ599xRlnnPGr7Uwd21R9S4dqf/WrXw297LLLblm1atWI/v37/xEhVchKPaNjCjcQ02fyml2AmEfAkoOkJGQiN4VY9VYALWFRBu5b3vKWeofLU0Vg8DQJV7Dgl/bovCcLsQYK8lJdWJVs84eFCTGntO+IAgAAIABJREFURhkLNXqT0euMVi/35bzRlAdUeZzpvVwr4qyIs4g4o95CWOgsnlk0ZIk+kdQjAhJ2keWKUc79eKnoricJpaJQHqpVWdokRhsY6FN/YBmOiD6deHESmJIicqb72K1I+MdmMexr29XVtWafffa5c8KECZe+/e1v79wm9tqON7c0cd54443vv/XWW+cPGDDgDSy8VahVa5RIjeZVYXrxqqwpCayEEIIUoWmAmVfwcATvl9M9EgwJsV5XNmLEiNqf//mf1+dBRaA+54BF5sdQAsjbhRvvFTKFRNUuCZuIW23jd/RwEeboHeXILxVaTRFvLsQUr02VV1a3lxGJJ6XkTvA5o8DLacRTjG1M3dNIORVxVsTZKHEi9y7/hGrBI182IqIkr8KjTy67MbGHtnA954lkQWy6Trii+UtlyIowPaeCuVFeiKFzEDfn2K6P/bzZ11btw6nAUCBD97nP3xx66KFTr7/++vbtyH3bVHXLEue9996779SpU28cNGjQe3baaac2iE+h1+f2Q6yTo7xNhVn1erHf/OY3tS9/+cv1EIS24OMVZOwgpJ5kHlMCTPyfHobIJIyvf/3ra29961vrJKqN5EXWKldERyYbZeW8NbUPIoyE5IoCcTI/iqDiWW9LqChFSpXHWSUHpQynRo2kRgyO3kZJHOVSxluR4ZjSP8p4sZajRGMRY1o4w2bqMuhZ9kGbY3jVy4GUHCsw5LiPeUswSdioqSgIU6FVvEpfGocHyxwlRKvySXrEmxQZKhqnqa3bbrutnkikuVeShCBvhZiFj08//XTXoEGDvj1lypTzjj766P/ZJgbbTje3LHGeeeaZY379619PGDx48IGsz9SgEvKUEMr73HfffWvz58+vE50G8uc//3ntlltuqf3sZz+rh29ZvCvBICMMr1PHVCbLWdhlQ8TFZLti90ogeve731175zvfWfdCCbOqHEIYKAoCyG+sNggUr5RQSNxYHlKDRGUYMGdK+AZZoowyIoyy56AJOQMwrsikwqfupww3DFBwJ+sU4EWQzF3v9/a1x9mIR+pjWkQ08VwZAeXGK0UYZX3qEYpoJDVKcE48Rd9TfZB6ltzz96ZsynC5TJGrEyP9F0ks126mcTwMGmWRsvAM0V9yFrgXT0+kIxxhjhL8yeED3l3sm5TeEJ51IiRqJsKSVynCFHG6XrsM0Q70nAiarledPh2lY8LVD37wg3UMVFRPuPqZz3ymviaeBCb6Rr/VL6qvs7PzkeHDh8/8xCc+8fntxH3bVG1LEmd7e/sen/vc5z7T3d19dP/+/feQ8IlImFuU96fJ7f322682efLkumcIgSncqgzb+++/v/alL32p/rJV3a8wAxsUs3mCelZCzvpNLDI+qVO/CfkqlPve97639qY3vWmzgpA9S1KSvwYNoYogDAl6llokVwQ5eqS0C0J1IqUejkViw4rFMIB8U8TkxFxENCmAzh2LIJaa+/F7vf/UBn8e79MyUE4BkbclRzKNhmqLyLCsbX4+ko73TyRGrzMHvGUkXna+jBjLzuf6PRpeMVTJ86CbXB8NiWg45MbB74vTH97Hfk51uofHfCOEobqERWSqoveujzFUqzLdAAZrnPSRa8K7wivdI0OdaShFv/Qvkly1alWdNJn2YRmeytG9eKNE7fAqybZV3bRD012q6w1veEN985hjjjmm7liQKKSI3wMPPFC78cYb63jMTkKqS2Ol38/hVZcShebMmTP6rW9966ptYrHtcHNLEueECRP+9N577/2/Q4cOfduzzz47wPdbxOKT0Fx++eW1kSNH1geM7fcgRxGl0q3vvPPO2je/+c36O+R4rQ4hWtKuNdASIrabInwhAdM9EK3qVuhDdWlThTe/+c21d73rXfVQ7j777FMXUMKsKDTK5tYi4RoJrGfVeXawK60roo6jAPpUfcyb4o1jDes4goxli4VJP0agiFZ7BL4IcJ5uHwmAZ3C5T5XnHoJ/dxB8KXmcRWTVW+LMEWY0nCLJRgMmd76MGMvO5wySVP0p+fFt3XLPGo0vdA35ix5XJCnvK4+46Lj0RnrN+knhgf6lV77sQ2VSL4Tn0aZYLp6qomTRQHV9J9rGGnV5eiJKEaaIUr+JWqldLJUDE3mLlNrHzkI4IPrN2k2WpPzJn/xJ7dBDD6297W1vq2MaOR7PvfmkTpbyPO+5557arbfeWm+76gUHSG7S861ateoX55577gWXXnrpd7YD921TlS1JnCeeeOJH/v+U6auHDBlygAbGt36SAIkQjz766NqMGTPqlhKC4KnfCKMG9dFHH6197Wtfqy1fvryeWUZqte/BiBIwfwogQDQQFuWy/Z7a89rXvrY+zyov9JBDDqkTKRPpInjaJeFigh4iIEMNolW9HhbyUE7KAwQUdI+uZc0VdZHxGwk9RZAqy8EgAlkkWZ0H2CI5Ro8iB6BlwJ+6j7ZHb7CIHHKeD/fk2tcMj7O3xBlJJvcsqeMuV6l6i9qSG5vekGFZW4vGF+Lz54/t5Xf0RDnOcg6MTe8PvCTpOAv//VPHyXrFs0LPKA+iQo6ctF0nXHeJ9uhaVgEQKoV08QB1XOQlzNO/iBKS07XCMDfOCZXiZcrQZwcgP6f+ESaoHmHEa17zmvpUlEhzjz322JxH4lE0sFhetghXU2S//e1vN79kQ9Nanveh/WsPPPDAG7/85S/P3CYW2w43txxxtre3D7nhhhtm9+/f/4x+/fq9kvVCEAwKsWDBgnoGLCEEXaf5QBKByPpSn+NBak709ttvr33729+uzwVIKBR6cBKRILHMRGXjsaHEWIoQqgQTUtWnCFNW21/91V/VSVS7FWGh4hk6wbk3HS1nlecWdxG4o5gRQJjgd4Vn/hQjARBwgAIAAIZYN/UQSnNPFLJR36eeif5OnY864qE4H6dI1BHkoye0vYizNx6Z90s0AlLlpDy02H9lxFh2vqz9jZxPEXA0BlLYmJN3rpVsQTg52fBpGXSWUKt+S/8hTuYpMR4xymP73Vj1UGxKBlVGjkzBDa9fzyNMkUepsKmIiSVsKl+EGPekVTlEkGiPrlVZELN+e9IPhKgkSoVkhVdK+PHsf7Vb96gMkbfwda+99qrj5i9/+cvaihUr6p88o+4livfc1Fb3008/fc/f//3fn3PAAQes3Q78t9VVthxx/u3f/u1+N9100/W77bbbsc8+++wuCKkEQiSj+UstFbnpppvqAsb+tLIMmZz2NUoiP1lHhGNlTSkrTHOgP/rRj2r/8i//UidW9n8UqRD2VZhDHiMKhzDiBaptCDHExT64CLnmYZXApLCu5g3knaou/UkwKT8SD4CEgOs3yuFklPIooiFA23w+xa1evFKIlN94r7RF5XrIKUWm1MU5V+QcOEYQ9XLLiNNJOpJNzlMpAvIUSDqhpYimqP2R3BohwBQA5+4rq7uMGMvON0KMZW3I9QHGaBwn/53yJDmvc9JX/XFdnIqQDrM5iYxgQqwQRHx+SA650/Vu8KKHkB7nU+FhtSlOZdA+ndM9wjQRpMKvMuz1XZggkhKWOMlTJ22A4KPxwD0+paN6db+wTXUqQiZM0i5q8hTVHoV+dY0wlX5SG3RMOPfKV76y/m5O4SaRO813qr3CNJErkTbV3b9//2fXrl373euuu+78o4466sGtZrHtcGPLEefcuXPfsnjx4s+0tbW9o1+/fjtJ8PC6NHgizo9+9KO1j33sY/WB0iDjdTLpLkGQUOpawhMQrASIDZK1vuknP/lJ7R//8R9rP/jBDza/JBulQsjJsiWMg7LhjREGZZ4UpVAbIG0dU7sI64r8DzjggPrmC3ourFs8OJTVyS4CkNrh4WmXL9rooV4nPUJCGBmRBLmWZycRSe3zzRsglRjG5Tftd8PAgY72OTn5cxC2dvL2tr5ciLM3BFdGsr05v63EGdsdSRJAZ/yjHKK/Hup0Q5BkGXSPxBiAP4ZmnRiRrUjOyB96HGUMTxdS9CgU5AYWgRnogY4LryBH5V7ot0iLfAXKUz1xKsQNU+rSMeYWpU/ubHA9EThFwORhijjlbMiz5XnwMDE0RLCqg6ib2vzd7363noike9VmEah2ItI46LdwVvcQAu7q6vrpeeedd+G4ceO+ux34b6urbDninDJlyjHLly+/ftCgQW8gBACBiSj1fdasWbXDDjts83weA0XIQwJA2BbFl8BqUEkM0jWEPfRdWboi0Pvuu6/ukSKA/vYBvERXYqxmlAxSAAh4BtpB2EWCLmETcSrlW9afiFRzDQofYU0zV4nCO+mg0NHij8SDp6rrCNk6OKS+034nZgc3vktZKBOwwFPVcSzW1L0Qf1H7vW0pcI2EmyKYHClHEE8ZHkV9HNtd9Bzehtx1jTyLE1n8nvPs/Hj83htCLmp3joxjRKSoz92Ygzx8mYcAHIKMRqwbVqk+ivIXERXdwOCLRB1lD9KKoVgPB+s7STqam5RHqU9FyvT/3AbpmyNabiRH/Yvyw288XnAB0lS9wkARnDBF+3Ir4UffPSqm+/WHAetEre+az1RdIng5F27oagzkgT744CZnknWc+k7CUHd390MnnnjipVddddU/bDWLbYcbW444J02adNrdd989d4899vhjiIp+k1DLOps9e3btPe95T93C0eAyj8Fu/TqmgRPRSjgJjWrQEfTnQgmbQ7gopMqUF6p5UG2ALGuKuQIJhoSI8JArjb77rkSQAnVG8kJBPRlJYQ4JttZM6f2hymoTsUp49QwqCyIC0N3Tc2Wn78i4o/4IDJ6UAHBFEHGydqCN9aXACeJXPWoL5Ioh4GTrCRyU5cTldaeAz9uZA/IU+TroAjwO8NFQAjT1GSMCZeRSRGLeDspJtcf7wSMKkfhTpBjLjR5ZHEP9jh4ZMoTH5qCekkE8JydBojqEG50QOafnQcdoh8smnhLXpcbc+yc+i+73qQT35pBP9zZTsq/rIEvVL2wQKSraJQ9NUS2FX4VFRM94ZvcGdS+JTHjZeJFRPpG5GI3RbyJWmrvUFJG8S81LKhNW9UPWPLvq8CxblpjoWeVo6B7NY2pzGZWPF4p3KodDxEnb0UH65cknn3zkfe9738Rp06Yt3g78t9VVthxxzp0799SlS5cuGDJkyD6QThFx6hzhRg06oduVK1fWvbi99967TrashdK1hBN4dydeKEoqAtOfhP5f//Vfaz/+8Y/rcX2FKHS/CFQCp/aJLJkTlLAwj4IQ+3IQQiqe8OPAQNIQCT26XsSpf5Gp/rUMRpsw0EYPzVAnyoPlB9BHkNR5T/7xJCEsfpQT4sU6ZY6UZ6FswMCvd+kFkABfCJ7jACNgDLHSN/7bAZz7fe4W5U1pTySVSCgOwtwfQdTBPEV6kSRzpBoBv+i6SI5eh9/nZJYiFK5lDh1ydJLkPh9TxpXrWFoFOXpoUscEtIAp5WCgMfaxrfGZIon5b5c/Nwqj/LlBoOswGHmvJHLjbYWQ3YiDtGi7DG0RpbBB/yJJ5iclq94v+k7bwS31FzKNPKUMFccOj+io/cI3HZOBrVCsjG5FsYR9Gl9eNEH0CGMWQwYDEN0TySqDV16mom84CiRNIjOqu4w4e3p6Hh0xYsTMOXPmfHarWWw73NhyxDl//vyzli5dOm/IkCF7Rms65XECABIC4vgS5I985CN1QZ4+fXo9TCGy4dVhlMvaJPcaUG4JtM89qix5ogrl/uIXv9js7ep6XUe6OgoIOEhImayHwHQMJVHdPIN7pcgKGztATBJeeaXa/kqE+qd/+qd1a1LHpDgYEYCIZ9WixBAA/YnFnAoVARoADYRKW32MUHiVCxhE0HSC0Xe3VCNgukI7iDsI0q5IvDy/zxljGDBG9LsTMGVzLAKu/44ElzqXIk8nipRHGfvIcSMSm8tPBH1+x+NeRo7YuIYoipfh5En9bpT5M3loL2UQ+P2x/9ARynYyRE/dY0yVz/i7jnn7RXLoBUQCKeJVIc/SJTYdgCTxJN3YdXKNkSbImOMs36DP0EXInbH360kaYimKyFJL4TxnAmcB417l+HIUlefJgKqPN0nJg9S0lYwAJTS6XmNIg2llxLlu3bpVRxxxxPxRo0Z9qpVect1yxKmdJpYuXXrt0KFDX80gITwp4vRzeG8SqLFjx9a+9a1v1T0zpVqfdtpp9W3zSBJCGWWNKWlHQiSB1L1SIF5IzWtz8FR1n+L6IlER6Pe+9726MklAda2ABmVlJxG8JaxMD7UQjgEkHDQhX/pB96ksNrZHKdR+ZQsrPKPkI2Xyilj1WwYD5WDxOoH4McBIbeAa5kAAHm8fbXYiAnz8GbFko2eh+gA+rzvnifg17gXQJicKB0onngiubkSkvF6AnWfwa+KYRcLzPov9ljKivW0pEvDn437aHwEWsCMi4d6eEyeGR4qcdR3ehY+dP5f3X+qZnESdGLkWbyaSO9eyhMINGf8ePUvakzKAonzoGqZxGF/mJEnWEUFKvzU3KZIEF+gDD6dSPsYlv/253eAkdAsJQdC6njL0XWOkdjHtouxWLXnTenElGUr3hXOsIFC5ut+9afULbVWfIxeKniGbWqKnKap/+7d/q3uZqkeEDInrM7ZL2cBFodqenp5VxxxzzMLzzz//U3vttVdPSkZ2xGMtR5xz584d197ePmPIkCGvRoCKiFOD6bv7ELq44IILat///vc3vy9OA65Xh2kzeK3/VNlYiSJMEg/YyYOt8CAQByZ26JCASqG0P66WtWhOVOFd5l5JzXZFiiAPMEXLFLITESHokBIWshRBFjNE4/OleMEiUimA5jukaPJM5aHKutQzinRRTJ9/BBgcOB2saW/K43DQSoXSIgEArg6yHnajzxzwAToHSgcq7nFiThFPJLtYRxnBeZtTBM2xHBHmyNXlJH6P9TgwRwMnPk/RtU6O7mXEPvBncRJL9W/KGIgkHfvAxwQDl2vi82D4xXZ4HR5R0fWSd+mUZBsyVJRK31kO8txm5VvsGuZzk9F4iHKIzovMuC/eozZipEtO0Vk9i2euS09FjjKI5QHKw+QF15pL5ZlUHqFz9/TdAwZTwRLhnTBLWPmrX/2qXi/GvwxvYUY0vN2Q1+YyRcS5du3aJ4477rgbzj777BsOOuiglnnNWMsR55w5c85bsmTJNfI4ozWd8jjZikrXStgVrhQRnn322XWPkLi8zrO9lDzQU045pb5Lhv6YI3BiQngltD5niOBhjat+XaN7pXxasKw5Uc2N/vu///vmyXidl1C7J0YoKIIdCqXrWVPKvVieWJBu8QN8CLrqUp84EKkckaXIVOQpz1TfNR8i71RZeOozKQ+JA95mvGfVpXrYIN8tfwdnB7ocyaRIgjJiKNhBAIPBAd/L0nH3mL1dAHIKmKOX5AaDl1FEaI0QX2x3jmRT8hGPpfpAx5jXioTpshL7zEknhmBjvXg10RP38ovIkygR90eSZrzj83E9iUQQFfrgUwXCA3mNIkb/dw9NegUhQHS0zQ2COP7osO8sxByi7lP/+Pwpfa12ImcQu65jv1kiSMrTUF6D/uUd61nYOUh1y2NEJ8EEDGHaLX3WMbCEJEpl+f7zP/9z3eCXAyBDX9eRqStc0zSXPw+OBFNZSp4sSQ5aM3z48E+PHj36+v33378jZYjuiMdajjjnzZt33qJFi64eOnToaxx0AcmYVQupyYtivkL3jRo1qk5geI4STpajSEh22223ehjihBNOqGeeab5Qa5qYP0DoCCU5cUl5sOw8nEw4lz0gpaTKSFPog0XDrDkF0FB8n19BOAF+QADFIGSr6yjHvTaUm7Z5P0aAU/8BOlIYKaIsTfWHlFfESigYLxXvnLYTYiJrFuJXuczRRvDkt4eqo+cB8OsTj8KNAMjbgT+Ssy+Q9z4qIkMnsNi+FHC64qeeIUeIDqIp8kqV5f2IjHIs6gv9VkTwToyxbG937hyhXh8LJwU3TIrKd3Ly9qp8J0VIhmcjdCo5k2EsDJDXqH/9lkckucSDiyToyXHebsp3w4BnTPWzGwq0l2iMJwnpOiJdOk+ES3qn6JBCsJqrVIRIBq2X4ZEnDAo9L4Y7/UaUBdLW8+u7jGLVJ0xShEyGvfoXEmQJidqo/pS+KyHRddUNHR2Xt1pEnJ2dnWuOPPLIGy+88MLr99tvvzU7Ikmm2tSyxNnW1vYat/hyxImFKaHSQMpq0qc8zp/+9Kf1354wgzUp4WJxv4Tj2GOPrQ0fPryeuq0/lSchI2tWbfH5FurNKRFeHx6v6nrsscfq4RB5wspYY94EUogZiSqDeZAosCine2Qp8PH7eAbKVdm8TNfnKZnTgJjVB3oOQrsiVHmnMj6k3Hiw8vbpb0AI4CETMAJtJPL4DCnQ9z6PRBYJKIap/HonJiefXPl+fcp7jsSQKp/6I2kWkWsRqSKH8RqAH8MqF8rMkbP3R6qPoyfoz+Vtyj0X5TMfxzyf7sWDYh5On9IfRXR4J64IQ6QpYxddJXMeWdYzs7MXxhz673KHzHnUxD1anzbAWFT7IXWuRef1yT1gj+OX7pXuyECVJ6llZyJMtrxzw9m9VXTKCZxjTNP4fCnPr7oV0tWbopSbIS9R90lv1T52L1NfqV/JzdBvbRsKedMWnlPlloVqOzs7O97//vd/+txzz62Is5lWg+Y4FardZZddXhMn3iUIIjOt4zz88MM3W2vujWCRnnnmmfXX3ygs4bv3szZJykZGIRloIgTNg4pEFaKQF8s5T9tHcPE6WRul31wXPRUJKHMYugYAkDDLI9U8qTLUFKpxMCFsQqjXn5XrYpiU8QHAADlIi+tjmJLj3Md57sejjMSqNvLWCPW3LFX1nSxcGSKypvVbYKFjjImeCfAB+J3AdQzwBIwAlehtRYDmt0cEUiSMYRGBH2LEMHGiTBFJirh0XcpjTelPjnSRNcr38XcAiwZBJETu93r0HVB0Is+V5W3x/gG8U30E0RQZO77uUfom8Fa0RjqicxoD6WvcsYp+9GgNBiVERXRGv6MHiP7mDAMnQJ4R2ddvvFXGATJ14qNs4Y48Si0T0RylvrODGW3EE6VcIk0Y1PQDdbts01Y9p3RRfSJDQl6ljHV5hfLCVRbEiJHikSueQZ/SY2Xtu+HgcqJ2swFCbh3nunXrOo488shPjhs37oYqVNtE5lywYME5S5YsuXbAgAF7IqwOgpE4HWh5b6eUb8KECbVly5bV5+5I+dZASzgJqQKKCKauk8Jiab3lLW+pHXnkkfUJckLBUmoUzsOAEJzIhbAucwpu0TppSSCZV9C18kC1bkpEqgXHyljTMQk84Rb6hPWikAvPAnCgsAC3W8VY3bqX9uJNe7iVslBKFNXvp14UzudDICWARfdJqQUYsnYFJvJYRaYQrfpD46h/nde1GEP0HUaEPlm8TRs9wQnwdJLFE6N/3HgA3B3kPZSZEvtIrPGa6GGmzqcIHYID7CPhucfG87nBxHdvX6oMN0ycdLjWpwIwoNxw8nAgfa9P5Ejkp++EUfEa9RsDkmudmIlQsBzGydkNBsaKNkGQ9Bu67wTunpvLg/efGwEuWypXbYJ09CkZlP6iS4q8yHvUp0KuIklNecgw1/1ML6lNql+/2diEaRBkV3Ux7+k5Ehi3yBd4oLKUCax5S5GmjHEImT1oIWAIU31H/6helsuJOLU1nxtrLqt6ljKPs6OjY+3RRx/9qcsvv3zennvuuSmTsQX+Wi5Ue80115x/1113Td95553rxIniIkiROHVcQsPuQRpkgfMXvvCF+ousRUQAMEoIiXCvhE11CawlDFICQr8Kp8jqUkKR5kQVVhGY6x4JNHWrLLXVFxdHS9yVG+V34JJi8MozLG+RpxKOpAh6Fll4Inff0AFvD8sVRfDkHsjOw2Bqc5zDATxRJIA3Kg99GK1uFNpDYQ7IHkaT0us5UmSvMVPbRKR4tBAq5KrzGh996nreQsNv3ceYuhHgyh89s0isALA/j5Ohl0UfuQcD2aSwwuuOpObGonv+sa8o3+t0Y4DzTgRuUOApIBckn+HdMZ0hudYx5hKlh2zdRsIKMol3SPgwenRuoETjGCOAa1L9533FHD3lYGRxP1MdEJQ+3fPk1YJuIHmbpAcQnWRd/eQvjVBZMvpEjsIGfSpzXcRJoh1zrCQguaFD39BuiCv2A6TJeCAHvF1JBv0jjzxSj1xp/1gZKKpPWOWGBnJMfe5BR2Mrepwuk5RZRpzd3d1rTjzxxGunTp26oAX4cnMTW4o4f/jDHw5YvHjxeStWrJjS1tZWJ06AO0ecGngmw8keE4iKcLT7xdKlS+ubFsjykiBg5UEYEi6ySAFN1YsXKpKCDKQIepuAtvtj/RTrQvE+3dMTKJGO7oQSAdMTjbC6uZ7QCqEXeZ/KhhOJ4p3ycltZ9xgDgAPE5ok86lMSAlBmAAVDBYvfAQllcRAm/Eu73XKlL6KF78TDHBD1u1ejsfV1fn4fZXq4GjCAaOk7T36AXHWN6taY4gljgBBSV3nRMIjeL14wQOYErTbG5TAOHvSZE0v8jty7wQH4AXrILSFCj8LgBeIVSR59cbzvNaz78P4gPQF1NPi8Ph8/DF1kgOdz4yLKE+OHTEFgDvaxT9wg5T7qiAaEjwftYcyQrzi/Sh+APeiLZEWREk05sLxLSXQiJ2GLDDq1B+MDYwMSJFKCgatydQ9LYzC+wb3YN7pe97LxgchRBrUIU8a1cIHIlMolikTfIBfRWKEedFDXqx49k+Zg3dFAHilDeRtFyUEK1X7oQx+6auLEiTdWxNmkHhBxLlmyZOzy5cunDh069LXRstcARo9TwoFVSYhI17FTvz6ViKMXWWtxL1mtEgwW/wL+bs0jZISiUC5ZdhJ0zd1pvkJzovrU5L6A1wFHbaUOFz4nB+b53EtAgQj/Skh1HuuaVyWxjEbtEaHKG5W1qeeVoSDSZz2a7ncQgRRQRpRL1zkAErZxYHJrGI/FvS23qN1gQGwgH3/lDBgeAAAgAElEQVR2BzV9B/CJEnBvlAmMpRiidUD1ZwP0XYRTXg/PEIkRUnBPD5B38qRMD3VSphtO9E9sI7+dUDxa4F5XJBaPDvh37qHMSE4+bvSPJ48BqLRZ5XlEyNtBHdFjjOPiERcfY/rPpwI478SZkktvJ8/vxhvGDGOLweCRJ+bjNZUgT5LpGsgT7xPswGjx+tQOn0d1Q8cNP7xJMADjnlAqRp70XUk+bIcnPZeOS/9VBtEVsILnIdrkcs4zUxfznrRF15KjsC3E2dnZufbkk0++aurUqZ9uEm00pdiW8jg3btzYf+LEieOWL18+bdddd32tBpd1eFg6kTj1m/i+SI3EE1lhEjJlfxJO1ST5PffcU99OSgInwYCk8ND0iaACsjqG8AjI9U+Wn9pIVpxCurzlhBfkskEBHpzKdA9TZRMKwtNRmSpfx0lmgmxSHileIyFKXSPvU//yvGUVyiIVsSoLUR6q+oY1ngA+xgGAEskFkHTyQTn9HicSPXckJgcQ+oLxhbh93jmCrQOsE4N7g4C4h+BywMvxCBCxH7xM6oXYi4gs1/5GNJ7+iATEmHlEJlWe3+eE46ThfeikqvJ8/BhXJyGMOcqjj7jW2xeNBF3rSSWpPoyGB7Ln9biRo+Pucat8DxkzxmSJ67zmIuU5KsSq0L/IUuFXGajCE4xzYY3up81snBKf2fsHWcdwhZi8nUQ16GuWl/Ac0lvhmf6VESsjGVImr8O9RQyHiBUYl26kMm6SY/W1R5xUtgwGlw/0lPEtC9V2dHR0jhw5ctqkSZMq4mxE4bfmmo0bN/abNGnS2JUrV3588ODBdeJ00Ml5nHGeTIoiYpBQKJwB+ZJtpnVM3/jGN+prmaQMEhbI0r1B1edrmzwEBcEy8c4cq0I5UkLNh+pfO30obCJl0LNgmRLOIXyjc5Cr+g5jQG1gLWQMa6a8FUAEEkTJUW7VK8WT1arQjtZhKZlA223pmPqL0JHaynIcCB/LFEvfiS96PrTFvdHolbnh4/0TvSP3IpzQ8B6oi3YBkIASx6MxADG5FwUIef96+V4GhkP0gpBbJ4MinXA5LzIU3FvF6HNDoqgOJ37KweOIRoUbE274uNGka9xwiKTlY0b/xWdzwwYw9ufx8YljrN94fJyjDZCDxl+6J3KUFylCFDGKIHVMZMlyK13rzwDpIWO6LnqatN8NDh9zvEYICf2nvW44gC/SQRGkSEmfbPvnWOGGD/KqtnhmLs6Ajx96AeZRP2FdnAQ9s/pNSU2ROHk+XVtGnGvWrOk888wzJ19xxRU3bQ0nbK97Ws3j7DdhwoQxK1as0AYI9VCt/6WIE+WB5BAceVMiT3b+ATg12CI3XSey+OY3v1nfnEAZaCJJeYooI9YcAODEieCTYecJBCI6wieyWrVOVBm6CukqxCuFZX0nWboIvcqFjLDmHRTUJyghFq+DngOerlUZkB1g4pl7KJ0+VZ68UZGp/qXACvmKYEWq6k+eDeuVtgJ67rUC7AA2Y+AAHpOT3KtxAPUyojI5GDvhRuKL9dO+6CG4pR5JiXMO4jnl9r6lbr821b4UaTo4RxBsBFic1CN5umEV+xvvKtU/7vF6n0cv3Ykx6jN6FZ/BiQfQ9lCoX88GJ3oO6S6kqEiT9ExECWmiq24k+Rw/fRONdX7zLBCS/0553LoPXEBu8OoInzIPKr0TSQqHhEvCBfpY9bg3SP9Ayh56Rqb1iVGH1+9GK4Y5xqqu9+iC6pDBr1UJjIEbg+hp2XKUrq6uzlNPPXXyxIkTK+JsRFm39prJkyePueeee66RxxnDUyniRNgBKbxUdgHCoo7hKMBA5KjBl/epEK4m2yVAbNiOwNMWhBULjXqjx+CKRBaeypSlq/lQvfpH1pyy8KTwzI/6TjsIciRGB0LmIKnPQZbvEC19gAHg1jpEoHKc/LDAZQhgjCj8K2JVuFukKiVXfxP+xXjRvXxHoSHtaIREQnGicYKJxBhJU+ejF5MiG/duHKgjuEeiTHlM7m14u504vd3+rO5RpUgzkms0IKKO+LM4MbmeuPzkSCvlpQC8ugdvzOc4HWCdWF0XXA91XOBOn2GM6TdyovOsDdbUiv5FhGy2IUNUx9jVioQw+g3iQta9H9yQ4nldj6LBkutDJ1a/B+9Nn3iLaociPvIipS9aeqbf+s4uQkS/VC795eMe9d8NG28j36nbk6DceIjYyfjKKFGo1ut240LllhFnd3d35wknnDDlqquu+szWcsL2uK/lPM6pU6ee+61vfeuaIUOG7IXg0HFbQ5xYh64kPhASBJY+aE5Q86Dav1FeqLwteacoI6AMWIgUWIeJsuuch2OwLGmHFJm1pLKApfTavFnZuvJIFTpSncw5KCEAYQWsHISjYYDiQwwAUwoIVY6HMiNZYY26tczcI/UI7NQu1SPF500SAgIRqjxVGQM6zlZo+pQ3yz633l8ALmBE+yKw0dZIkhgAXJ+aA6RvVJdn7UZCcQvb5ceBxIkjJWM+L+xj4ACUIkyXeZ6pDEAiaer6VPKNP2f0CFME733v/Q7p0y6MIaIn0fCDBCASXc9L2vUp8oMcWeeraQ8ZleQuOPirHMkQOAHxRln354Uw1BaiVN5vTuxuNPGMHHOyjProXreuk6xjbOpT/4Rf9ZxucLhRS/9Gw86NO3BFx9wQpg1EtujzKNM+Jj41puN9QZzr1q1be8opp0yeNGlS9T7OMgXe2vNKDrrqqqtG33333dNFnFFwt4Y4IyhFiwyrV2WLrBRalQKKNBU60VyoPhVKYS4Er0yWIQvw/Znda3OQ5TiKrjp1jPVvAgUBBy+uFqGKTCXAImhfeA1I6NPnSZiDUbtUts/RElaFTKSkHp4BTBzUIxFhPKBwTrwehgKg1DbVR8azL4vQd1msIlgRrTxYgYw8W5GwzqvfWT9ISMotbAdCB0jAhdR9BydkQp+0P8qFj6df7/0BMRVdG5NjHIBzwOzlMe/mRo0Dp4N2UTu9n1wmXT+8D3hO2g8wA64QGM/gMiNZFQlCfuiVZJt5RgiTRfm8cchJT98lB/4XPTB/ZrxvNzDpP5dbDCd9enJbynB0w8IJkef1OX7dL12WLPO+ToVeJc8yFln6w/yi7kVPI9mnDJgoO/rt7WPMYjg4h4Fenp6tGcSprNoPfehDEyZPnnzL1vLC9rivpTxOdZCI8xvf+MY1bW1t9U1jHSS2hjijtR7BQYKOV8nuH8T/da+OiUS1763eeKLsVEhWZXGtvuPdsYmBgB5LD8FEOLEsATQ8OTw3XaeyBTracUTrxhTa1aeIVXM37Mur69i0wT1ekQak5QAO2OnalOK5onHe+w3gIRQFKEVr3D0elBlwozw8TIBY9WlMRKYkXKntAhg8WgETHq2IlXkikpp8Ab7K8T6gXh3DcMmRko7T3hQ56ph7lKlr3Kjx8/78kci8/z35qQhAKMOJxWXfPQ0nbGSU0CiZ3cyLs86VqEvc+UmGJjs/sU+x+szLSZECes08vntw7vUho0QlXHYZGzwtiI1rnJhc7lJeJXKILCMfRHTUPkKe+k57RIaSQRmAyl7XlIWiKxh+6H8MIXO/JyQRvUGu3Jukv6KxhQxHsqQvwCQnyShHKrNZxNnT09NxwgknTJ42bdrfbA8C3No6W444r7vuuo+0t7fP3XXXXfdmPpGH3xrijBZ17EiWqgAggD3CS/IKSqi1UwrjKqSrMKQsS3ayQclcSAnVcgzSQUEdWN2iBfSwitkxhPR5tqrjre9KhiCNXveSnMS7Qb0fUEj1pxOtE5+3z0ENkHLvLhon7rnSJ674EBWGh19PvzPPE4nDw3x8d2J0z5b5LR1T/5HYxE43Os9LyPWda4gAqFzfAMDrAXzpD54hNZcWycyJGsPJx9sJQP3ghgoA76QBoGNokf2pa+hHoiUsw8DDi8SIIch9EKjPe0fDin7xMYYYvO2uxx4BiMase1uAussgckpfeFl4m0R36GvGB0PQ5dfbCsHRv+QeiAgVDRExSu/1zxw/2fC0FSOEcXTZoH7a7l5exCYI2g1TjDnuZ3z4HQnSIwYpEnEDrhkeZ0dHx9rjjjtu9tixYz+1//77b9haInux72s54pw/f/6oxYsXz25ra2toAwRXOreaSA5yqy3lEcTlBAgpAi6lYL4RotFvAa5SsX/4wx/WM+FEqJCUlA+gciBNgUgkHUBQxz1bDgJ2i1jf5WkS7uLVRJrQl2eqxAmFzJgfAkRQSIgFxcaq1idgpGvc0nbSA8C4NgVKKUvXQYv5XicCrH2VD2D7/Bnn3WOk7U46ABlADNHyfO5tR2Kn3Xg8ADJeAXLn/eHgzHn3mKjDx9y9nygfThp+ju8YGSnShWhynhZjECMR3icq1z0W7qEvdK+HkgFvjAGuc6OxDACpg75Sf7vx6bKKUcm4outu3Kk+72O/luvpT32qPghSn8pwla4rwsFSLR8XNojgWeMYe/vpF5dfN0L4Hg2JaHS7ERPlnXtzZblR4rLbLI+zu7u7Y8SIEXNPP/30G9/ylrdUe9WWKcDWnp89e/bZ7e3ts4YNG9Ync5yROKPgSOBRfjJaZcUBGrI4RU6AE1mshKJESlIohWlEntorUpm5UjT9qWysfAEA6zdVh5SON6tEJUbh4wL7qBB4JHouLF+3akWc+lc2r7xS/rWXpoiWbcJcqSlHCo7H7YQBkerT19C6VwBYeSjTPS/GgfPRqAEQqJd7AWfANIaiotylCBFwYewjsPMc9IkDjJNUNHpSRgIedyRIrvU+cQDHQMo9D8ed+FLticaBA6uDtj8jBhHEDFnFfnJvRePi5AEBxogDx2lr7jmdIHP9j1fpsq/vyAYGIp43uiKZYq9dzwqXsa25SN5cJKMOLHDDRXW4l+r9jsw4zvCMfiwSHs8br+G6SPhuxDjRxvsxvt3QS8lUs4hz3bp1q4888sjZF1988Wf32muvnq3lhRf7vpbzOOfNm3f24sWL68QZrV/9jjsHudAUeZxR+Ry4WcsFiANGKD0JNB6KRXlQSurWvSJNkai2vxOJKpzLW1cUGhOZElJkYwRXOCxa9xZQXDwvBy0PseB5ofD+tnj6gCQkESqbUYtY9d3fUoKn7X3n3gYg5UQUvU61DeV3oHbL3JU6GgauMJCmA1dM7uF66owy5KSIcZKTDYgjB0zclyKsCJxORk7IEA7no/GBDHhd3ncuIyni9nq9jBQQUa7fo/5zQk8RrJOcy2dRGNIJ3Mef+2M93j9qjxscTpTIiOoW8UnPWEYlvSSzW+RIIo8bBhCUG2axv338aEuUs9jXUd45zxSR6wYGgWTbidPrwqDEsEaWvV+L5NplBbxpRqi2s7Pz8eOOO27m6NGjb6lCtU2k/zlz5oxaunTprKFDh+4dhW9riNOBOAcWDhg5gY/XUFYkChSX80pOUfKAtssSiSq5SL+Zv8WjUztRFCd1lc/EP8rhYKZzEDtkiZVJebTFQZlwEcCtT7xofeKpsjen5k9FrMqKlJfN3IquVXsBHwe0CH4OLg7Gbm1jSbth4GDgzwCY+nkn1yIwc2KLcuFA7tcVET/k6fLGOKXKp2/cA4sGRKzPz1Ome3Sp87HuWCZgmfKUUvXH8iJx5/QtGoZeNsYYMgFZRIMEUtN1ZFrL8BQxyjAlK5tXl8loJLzKFpbRQHHiSeEDMpTDiBwhxvHx6QfG3I04J2w3HmLEIBpHZWPu7c5d20zifPLJJ//w9re//eOjR4/+u0MOOeSpJlJHnxbdih7nRxcvXnytiDNayzsqcbryRLABWAB0KbPmRvW+Tfag5I0VeGdk2HIvykPiAmBJuEi/ITK1hTkeSZJ7LBGYUiQEiGH1EqbGs1ZolwXnIlARqj6Vmazj7O/JW0jUHk+4UPkidtrobXWgjAQEITvh+jURFPjtMuQkFe/NaV2qDgcj9Usc/0hCkQDcOHNi9nJpa4r8HXBTc5AOzNGQ8T6I5J0i7pQR4c9bZIxGsnHvibqJ8qAfap/arOdiWsTXAZOxKoNUsqkkHZKT3FCh3ZI9+iBl3KSIKB7LjZdfp/q8HuqKxmLUQV/OxTmvr9WJs7Oz87Gjjz566pw5c77Yr1+/Z/qU3ZpYWMsR5+zZsz+qF1m3tbXVPU7/2xGJEyHPATceodoucGC/XN0nhVfoWaFceaR6TZgWRyucBDCwWTwE6IkPgAxryVBcTx4gOSGGwPxawBRgcxDAo+SYW85uVeMVq27WnepTIWB9iliZUxXRsi5V393YcDCnjxzs3TvFSEgRE2UCzE4gDvzuMUXioH6e0wmJvvLkr2jouexGg4pzgH08n7o+RVjucTpwR0L23+7RRWCO4O+GVyQetRHihvhiaNmXRFG2G08iQpYayXOU3Ovf1/Gqj51Ivf0YLjwf5+g/nwOOchT7MxK9y5UbYn48JVcuJ65bbhz48VgvuhYjFt5ev6fIkInXpa7VMbWtGaHanp6eR4855pgrZsyYsahfv37/20Su69OiW444586d+5ElS5bMaWtr2yeS0Y5MnG4lOpmSeYiCCwBQZry4uIZRczFKNuJN7gpB6RgZviJf9Y1++zxICuCjVazfHhaKcyxu9UJSDooRFHwOEyJz7xDld2+DrGPS9vU8IlL3WkWyIm1eZK3vLLOApNUWwtT0b/RMfa/QFDEWeWw5gPQ+ZTlRlFUnRtfo6MG59+jebQoFUqCX80gpyz2uSJIqz5NfYp3IQmyzt4MNNgid+vs+1be8ho/jIkS+0/dOjE7Oqt8NNyf/VF+lyI1j0SDgeDQMYh94mbH8XH+5vrjB6sSdIj4/5nLs8ha/5+Qud92LTZzd3d2Pjhgx4rI5c+a09+vXb8vNx/uU6vq2sJYjzvnz55+2ZMmS+UOGDNk3gsL2Is6UpRcJKWW96lj0puLwkpWKUhGmhRh1XGCjjD+RqdLj9SkiFQD5XCVzjxA3ZBLDcw7WECneFW3mGkjaQSNaywCsewLxeuqhXIAhegjcRx2+jtCX+bBNIptX8DJyCJZQMcDlxoKHwj2rN4Jsimjj+KUSYFwWYtawg6OXFeUkd13K64vg7uW6Dvn4ICOsU3UvkCkAHcPQ8x2fmC/UdZqv93tJWkEuMWzcCInkmOsHPRfLxbgnEoVvoKA+dPnlt465Z5jz/ukTb497rBx3/SHUmjMucwSZwxRvc3zW1D07OnF2dXU9duyxx15x7bXXfqVvqa25pbUccV5zzTUfvuuuu+Rxvm5HJk63eFOWqFu0KG7KmvXlCoT9UEKuJ8yLhyawIBFCczwK77IgW+Eu5iWZWwR0PFTkIOD1OfDoOMAU28T9aj9ACzlCVpAfZXoZHnJNhbY45nOgAAdErc/UchgdJyuSrGUnTjxWHRPR4vnHxf8qh12gdE9cU+oGQyQlHzsnjUiQyHg0sqJMpchRxyAoxsDnj3WerGq8OvZKFhESLYD4WIZEGcwdRrl1QwyPNnp0KZJJGV+pcKTLhsYkF06OBmBvSURtTHnsTlBu2EVy1P3Ro0wZ1Kmx9OtSFJDqz1Ykzs7OzkdPO+20j02cOPGO5lJd35becsR55ZVXjlq2bNmM3Xff/XXR2tseHmdU2ggIWKkp6xDCROFcgTgWXyZNeQCKh1KdgCHRCJ4KjbGRtDIKRagCT0Jmut7nQB2Y4nIcCIV20xdOQnhcHj7VdQC5h9qcwJ0seeZIoN7XkBTXQhjM76Y8ex0r8hgg+pTKOUilxpxj1O8hP38OPJL4vF5nkWHl8gWhOKjmQNk9+9iPfo/LtxskEdjdc0oZgH7MiZX2+3P4sSIPi/HzsCXXI0upcfLnxWON7XdDJRJwNAy8X3LPliPMXD/G61PykDKmUuUV9YE/d86w0PFmzXGuXbv2sTPOOOOCK6+88qt9S23NLa3liHPixIlnLFu2bPawYcP2Y1cZumhHJM6cpR2tw5TQ6piIi/AWCuxzoGWC72SntuAZATDs+aokDBGpPFWF19hTU3Xx6i+2WQNM2RjCPVUHLo0L1+g79+Hx4Y06aQAG8ZiTspMg4Wbui94xhOX3RCAEZP0zR4aRvCnLx8/Lz4EbngpjmWqT2qA+ghAjeFJ2ETDmCMmJpQgwfQ7U63GyikTn/RhJPBKCnpvn875NHUsZAQC6zuHdeX9RfhwfnsU9etqG4eeyw3i5V4lMu2xh5FAf8ul9FMcxR6o8U7yXsqM3HDEljn2KSsrwgzKaRZzd3d2/P+mkkz42ZcqUpc2lur4tveWI88orrzx9+fLlczXHGYFuexBnBJ0UiOWuwZJzQHBBjkOdUoyyUFJOmVxZPdwECBCWE4n6AnGRK7uqsB6UDSIAHCcBrHFAzdsTySxlrRcRH0rNff4cTgw5UuKaIi8hEmUEvThH6WUWEXIc2xSxp4iyDIBTRB7BMVeuH/dyIrA7IHNdJCCOQ/zIOIYVBJMqO0csHI9E5e2JzxoN1ygLyFcM1adkJkUyPI8/R+57DhtyxNgIwRZd4+XmjKvtTZydnZ2rTj755I9NnTq1vW+prbmltRxxTpw4ceTKlSvnDx069HXqGsBb3yvi3CQsKbLMKRGhVAcAvuuc5gDdimZeizeNyDMVkfKqL30nMxJvVXVjqROydSKNZOqgnSMm1CK1QD0aH40SpwOyEy/tdxItU8tUWUXtiKQQiatRg6qIdGIZ+u1EljLg6P8U+aauj8/hhOrPT3mx/tiv0RBwI9TJN2d4RE8xjqFnPecMiqhP3oaKOLftRdZdXV2Pa45zwoQJi8t0akc633LEOX78+NNXrlw5b8iQIfXkIAfWlyNxRm+2t8TJXCmGB2AKEGGY6DcJNVyrez0Uq2vY55MQMK/wglw1nwqxxvklJ1gH2fgd8NP1nrWq49F7doBOlennIUv3GKLHGwnRQ3Gu2I0Spz9LmZcTxzZFkpFwY1avk10EopRXkprDj8RBu3LRBO/PWAdLTso8olzfpuaIvR9T0RRvb4q4UzoVDc9I/P6Mue+Vx7lptYn6XHKlsVm7dq2I86JJkyYt2pGIsawtLUecEyZM+PB99903Rx4nCSA85MuVOBshy6j4EYjcq4TAACD62ecoHaD9uM8xOkAx76RPvFZ9ak5VZMurvPyVXuzXmyIMQCiVdFMEllEhHHhRaic9DAkn1Zx3E8uOpBjJFAMkVfa2eJzuBUXDIHqJqVC/tzuCfcrzjWTs92CY0SafG43eWsqIcMMlGkbIKf1e1L+OES7rvkFEavw9ohUNBPfYK+LcRIrIAoa2dj978MEH67kaLosQpzzOU0455eLJkyffVkZWO9L5liPOyy+/fNR99903c8iQIfsIeCuP83mBbUR5y0jWBV+gFYHDAV3XkjTgRgzEBTF48lC05h24HNAgWtYJxvdhclzeK9eyTILflAcgA7xO7k4cfp2Dejzuv1PEAwDTPylPNwUCKY/Tx9QJKfc95XE6MTu40b4UGVKvj3+8jvtTho23m353gvOxiIQVPcbYV5GYo9zHvkm1m3uIGOS8zJzH7c/cyLjkyi8yRPy5U8+UM2pSbYvXpvqsqI3NSg7q6Oh4/Kyzzrro8ssvrzzOZloGEyZM+OjKlStFnK+LA115nPn5zSJFx3LmGvcgc8TgwOrESBm+xq/IO43ElSMKJysnAnb+YXmLf+q5WMCP98rWbKz/hFw9icQJPAeKtJOddZwsc6RY5FFFcnOScXBNgaUfi95yCjBdb6Jh5O3Aa0gBOOXG54/P4UYUxogTY6591OnLhYoIMEf+1JkjhSjzsa89opEjpIo4N272JunnRj3OJ554YtXYsWMvvOiii5Y0kzf6uuyW8zgnTZo06p577pk9ZMiQ1+Kt0CkvZ+JEqYuAPgUuEnBIA5BwEvENGPDkIrjqtxNlXPSNMnm5RWDM9fqM6fzxGVLhOb8memDR++OZ8Ji9rToXX+bNM1AH72iNz1ME1H5tzjCh/OjhO3hHIE8REqHoHEGlQtWMb+zblPy40ZULlfp4upwWkXpOViMAptbhRkOC3z52tCkmPznRqq4ij7NM56IuFhkJZdemzsfyUrqfMyjcQG1kTJrlcSqrduTIkZdMmDChCtX2Nbt7eQsXLjx1yZIlCwcMGLB3TMyoiHNLyy+OQw6M8L5SxMlchIOiA5C++/o5QJe5zAhijBmERXJRJNUyK97BMOWt5YAmBV5et3tITgoR/N0jdBBy4s3d72XlyClnWOTAkrqixwmxpJ47An/qGVPEznUpPfdztCllMOlckdFQBvhuLEcSiMYF8pEi0Nwz0OacYVYmnykDpyLOFyYHdXZ2PnHkkUdePX/+/BubyRt9XXbLeZyzZ88+86u33zF/8ODBe9aF057g5UicRVZvTrkb8Y5ywBVBswxAUkBfVHbKEo6elbdfY54KT0bSogyfu4ztSLWr6JgDsvdLro6y8UgRV8oAKCKKotBko2NV1M5cn6WIIkX+KSMjZySkCDAn70WkFOv0MnyOsxG9SMliWb+m2pyT89y1KTnIGVFlbcz1d84g0vFmeZwbNmxY9a53vWvWyJEjP/u2t73t6b4muGaV14rEefZXb79jdkWcz79IIEdmZUDtSppTwiLiKwLLRoi3EcWPQBLvaUXiTIF8biwq4nzhCzNS8l4RZzq/IaeHKeLeHsS5fv3637/73e++ZtSoUZ+vXmTdLJqv1WrXXnvtOXfe8dVZgwcPfm3lcW7q6JcDcTZiiZddgxda5mmWeRB+viz5xOsqArGyNhWNsxswvfU4U8+6rR5nIyRGmLbMYMuVVWRQpDzylAGGJ5UiDI4VPUtqPItkp5GyymS4EWO3lTzOnp6e3x922GFXn3POOX9XEWcTiXP2zNnnfvXOO2YMHjx4r4o4K+IEjBohjO1FnDlSzIXMUsCXI86YzOKk0YhH/2IQZ6odRd5N7vlzz1ZWVuo+7qlCtVuuv8yRe7NCtd3d3Y+95z3vmT5y5MgvVKHaJhLntTOuPeerd96h5SgVcT7Xz7OTqzQAACAASURBVC8njzMXHn4xibNRDy/n5aTUY2s9ztR8aqNeS64vi4iryMvKedQVcb4wKhS94jIPOnW+N4ZRihDjOBcZIM0iznXr1j327ne/e/KCBQu+1K9fv2ebSB19WnTLzXFeO2PGOXfc+bUZQ4cM2bvyOF8eHmeKgCLwvBjEmSIUAUpcopIDxUY8oyIATRlIOwJx5sYnevjR82skdJm7poxoolGQM2Iqj3O7e5yPHnbYYRMWLFjwlX79+r1wQrtP6a7vCms54pwxY8bor33ta9fgcXpXVFm1zxNpkTfhfZabyynyHormcYos6SICLGuvk0asP651zFni2xqqTbXRl9cU1dsbbyzKdCQc/+3EmfIg4lgXkXqElRTRNyIXfk1sn8tARZzPJ/SUGQIvVY9z/fr1//2Od7zj4uuvv/6rFXH2HbG/oKQZM2aM+trXvjZryHMeZ0WcL/3koEi4kSCaSZxFhC4wKyPOXAg2Eljud1yAnzIaUoaMjqUyjntDnLo2rrXcFuJ0w6XM+87Vk5OFIhJOGR7UX3mc29fj3LBhw38deuihly5cuPD2JtJGnxfdch7ntGnTzl6xYsWM/v3771PtHPS8h5kDzxwgRzAp8pZSHmqq3Ebb4KBZlNzSSL3U2UioNkeCOc8q1ydeTmx/rg+KyoqGQOp3ylOLuyJti8dZ1De9HetG+q0izud1N9X3ZX1YFA0okqfIIG6gFI1Js+Y4Ozs7//Ooo446f968ed/oc3ZrYoEtR5wXXXTRmPvvv3/6zjvvvA/bhdE/Vai2WBlTcoSyVMS55fRKo8BUEecLw41loJ/yGnvjCcexKSPhyuPcco1nNEhTRlm8plnEuWHDhkeOP/74MVOnTr23iTzX50W3InGe9YMf/GDmoEGD9pXH6XtVVsRZEWejhNeId9YIAVTEWRFnKsrQiBdZFllIEVwRyRVFfFKh7JQO5ELezSLOznVdj5x8yofGTZ006Z4+Z7cmFthyxHnppZd++Hvf+97sgQMH7qtB9rcXVMRZEWdFnFvOWRWBby48WwToRWHb3Lxko+HrRkOMlce5aU/qRgy73JikPPztEapd29X5uxNOPH7MNVdd860m8lyfF91yxHnxxReP/P73vz930KBB+1XE+TxRFlmbESAjmBYpYUo5G7Wwc8Ds9VVznGljJwV4MaxezXGm5T9F7u6p+fcqOWj7Jget6+l55L3HHjtmxowZVai2z+ndCrzgggtO+9GPfjR3l112+WMBRxWqbZ2s2piIoGGtiLMizpRXXOQpVR7nS8fj7Ozq+u17jz9+zKyrr17WTN7o67JbzuMcM2bMqT/+8Y/niTgBXjqlCtVWodpGQ1ip+Z2UJ14W6qzmOKs5zkYjMLn5w1RkpiwM26ic7+ih2q51XQ8f//7jR1999dUr+prcmlleyxHnBRdccMoDDzwwb9CgQX8ib7Oa46w8zui5loFObn6nIs4t37iTC7UXheBT0wLVHGe15d6AAQM2z8nK2OQ9v53ruv7j2Pe+b/TsGTNWNpPo+rrsliPOMeedd9KPf/Tj63bdZZcDYmekPc5nN0+kKwv3mWeeqZPtE088UXvyySc3v8uxKOssWm0RCHIWpwN0Djx8jsWtyCLrtMxCzc2PpYQnzpulSKWIUMqs7TLQrEK1Vai2CtW+8JVgZcbfS8HjlO6v617/m6OPO2b0nJkz7+trcmtmea1HnGPOO+lHD/xo/q677HKgOt5fYlwRZxWqbRRQqlDt80kh0ViKfVN0PnVtGehzTyOhy9w1RcZrqr2xTuSkSg7afslBwu4NTz79m3cf8Z7R182ZUxFnM5n+iokT33f/P95//cCBAw6KnldFnBVxVsRZLUepiLN83jk3XZEzVJqxjvM5j/Phv/6rt19w002f+mYzeaOvy245j/Pyyyec8N37v7tw0IABB/j8pjqmIs6KOCvirIizIs7WIc6e9U8+/OY3vfmiz3/+lmrLvb5mdy/vssuuOOmf/vn+63bdeecDmLPkfEWcFXFWxFkRZ0WcrUOcTz3zvw//2RsPvvhzn/vc/2smb/R12S3ncV500aUfvP+f7583aODAA+Vxijwr4txyF5EqOeiF+86WzeOl5uUamaurlqOUg3RZgliVHPTyTQ7a8ORTDx/yxj+79O/+7nN39TW5NbO8liNOeZzf+/735+88aBNxKku2Is6KOKu3o7ww2tAI8W9NVnTMLSjKOi+6tkoO+v/a+/IYy676zHOXt1XVq6Wru91Lub3Q3bbbdmwIMRASBIOtwYRhmQQSMXEwid1MAC94MmaS8EdFCggcWzAxwbFRjJgMaIZoEolMFCUjlIzkxHKUxGBs46VtvLW7u3qp5b2qt91l9N1XX/Wvj899r4z79bhe/0p6qvfucu453znn9/22c+7Z/T7OLDmo3Xl238WX3vKNb6jFOUiiNzfdeuu/f+jBhzKLExNPLU5dx4kBp8SpxGkLnl5eBM2qdY+XM50c1Gi0n7n00stuVeIcKG0ac/PNn/nQA//wD3eMjlR247ViiGviUywWTaPRyNZsfu5znzPvfve7TafTMXHcyc7jOCxUWqlLS0umVqsZlEGhK1/ay6UuvFdqzr1S4debPs/ydB2n13fDamKV5/JT4nRvXKAWZ/6r4pQ410eclJeUkZRX2HymUqmYmZmZNYkPTClDGUZ76aWXzIEDB9a2RoWcxjW4H7J3pdF6+qcuv+KWr3/9nr8eMHWc1uI3nKv205++5f0PPvjgnZVKeQ+zatEZzWYzE8DY1OALX/iCede73mUWFxdNGPprgplkCEKt1+vZx87MlbEwlMcBo8R5cqL1c+/1wsomQd0A4ZUCrN9YI/66ybt7TLri2fa4U+JcH3GC5DDOQHIIi3Hs4Xg/4oRsPXjwYEacxN8es61W9OTefRfd8qff+Ia+Vuy0UrtV2M033/bef/rnh75cLpb2ohOhuZTLZbO8vJx1Lojz93//980117zbzM8vGt8/GUdgp7Xb7ex6fODqlZamEqdbkNu4uIRTL4vQJgMp/PtlwqrFeSpBKHG+MqbfK17qGrtKnOsjThoPkJMwOOjdgdwtlUpm165duRYnifPpp5/O5CzlNeQwLdl2FD+6+8I9n/n2t/+bbvI+SOK88cYb3/eDRx67q1wqZsSJDpDuAZDi7/zO75j3vve9mUWZpt0t99jh+I8BADctiJOuA5bBCUXrVAp1lqOu2le6BiUxqsXpFkpyXuS5Ue0x5hprSpxKnP2UzV7jyDUOWZ49LqWlCRnJnBLIUBDneeeddwpxyrEJGXr48GHz+OOPZ0aNdPuulev5/7L7wj03f+MbX//HQfLG6S57w7lqf/VXr3/PU08/eVelXN5HzQVkiQ7Fb5Dh7Oysueaaa1ZdsSeTZ6SmA+Kkq1Z2NmOm9NFDs1qPMMtzD/WzljTGqTFOl6LRS0lT4lTiPFPEic3Z4cXjH1/liOdXq1Wzffv27JRrvOLao0ePmkceeSQjTpQFeQoZy/yUKE4eeOOVb/7kV7/65R+ebnIbZHkbjjivv/6Gtz759JNfLRUKPy3jjww2z8/PZ67aX/iFa83iYg37CWWdyt34aaGurKwYfBgbJVHSnQDQ7X0s1eLMz+BVizN/79d+Qk6J86SIW4+lZOPpwtcej7YCq67a9blqiRu33GOyJKzN6elpMzY2lkucOCEtTpAl5StzS5Zqy9+75up/86k77rjjyUES3ekue+MR5/79Fz/12I/+yDPmnX73b63j8B3Zsh/72MfMzTd/2tTrKyaK2qe4EhjnBNHC3YDrEfSmG0JqVHYgW4lTidP2LOgGCLoBgu1Od3mf+pF7r/CPSyntp4ytRwGxFba8MrkagW+TGhkZMfhMTk6eQpqueiIx6MUXX8xCYihfvpQDhmpteeUvr/23H/jk5z//uYOnm9wGWd6GI879+/dvf/LJA19J0uQDYRCU0BHoUGhAIEJYkPv27TNf/epXVzdH6GaF4Y9xTLpscQwuW1iedEcwiO2aDEqcSpxKnKdaKr2s5TwCsa0/KeDWI/DV4uy6qu145HplVh7erjJJmjA0sNwPhLl58+Yso5YyN68eOP7www+bhYWF7HqE1JihuyqP2+0o/tP3v+8X/vNv//Zvzw+S6E532RuOOG+//fbqAw8+9LmwEO73UzMJsoQLgHFOdDRI8Hd/93fNtddea1aWaxlh4jq4FdD5kjgZF4XlSY2KLgWmX6NMe4G9Tcb24EFH2ffYggT3aIxTY5y9yMdlifCYLkc5SeKu+ecS6JKY7flnE8p6rcRBWpx5y+HWS5y2kiLHjMznkMdZNv5zpQKuHR0dzdyziG3iespeGB5M/oEcBqHi3iNHjmTxzfHx8Uw+Z3ib7n2IdxrfW2i3oz+85ZabPv+Rj3zkpGvwdLPcAMrbcMQJDK593/v+w9zRY58vl8vnBabbBCYHgRjRMVdeeaX5vd/7PbN1y3S2nhOaEuKf6Hx0OkiRblkuScEAQMIQ7sc5e6mKPVh5v0uzdk1CJc5XbkBuuzrzsHRZGZJw8pQUl/vI1Q+9hGwvy0ldteqqPRPE2UuB6jU+JXG66kkZJ5MgaSjgXnjwcM3ExITZsmVL5nLFMchPkB/OgRRxHH+QnZC1kLnf//731+6nEVIIuklCqMtSvfbktm0zt3/3u3++ofapzYyiAZDxwIu8fv/+ix995NGvVatjP99ptkIIL2g5sBi5vgjZXDfeeKPZf+NvZB2FjmQqNa5BR+M/OhTaEjsdxIuBgcHAwSE1MNs6yJs0SpzrS5ZR4jxpNfWyPF0CUC3O4bc480hxvRantLDlGMLYoQFBdyzOc1cflg+Zec4552TxTByDTKSXjF4+7tqGe2FdQoY+9dRTBrsGZZblqmEDUsU1kNVRFLUbjcZfveMd7/jMXXfd9fzASeM0P2BDEuf+z3524sl//tfPxnF0Y2C8zehQDAK6CdCRIE5oSf/ptluzpSmwJmkhouNxDaxLBq2l+wuDgxskyMGWaRqr8VI5cO3BafdRL2tJXbXqqu1FmOqqPXXbPHs+un67yMa+jnPSzpyX974eXLWngzjlGLKVLRgPJE6SJp7J5SPbtm1bO49yaJlyFQKMFZAjyBL/QYrPPvtstlsQDRJuiQriJKZRFB2pVqt3/uzP3vCHs7Mby027YS1OVPyjH/vYO55+8ukvVUdHfyaO4wAdio7DwIDFiA4E+Y1XR81tt92W7V2LIDV2GcJ5dCa+y4EjJxc6GQSK5CFapnKjBWpsOOcSfGpxqsUpFSqXK9geI2px9nf7no3EmRdG6DWm7LFH44KrELieEoYD5BxjkJChyAWB5YiEHpAfrqWc45jl/XwnMtyzkI/PP/98ZmlymR/Ko6WJZ6PMVquVxHH89xdddNFt999//w9OszF4RorbkBYnkPnsF7848S9///e3rtRWbgzDYCeztTAISIbo1MWFE2br1q3ZEpVf/MVfzM7B0oQ1CiLFNXJJCwcY0ceAwgeaFT5yv0bbApWCT4lTiVOJszsLXOGMn8Sas63BvN/DZnG+FuIEFvbLK2g5SqUfchDkB8JEHghdrCBAGBj4w3f8rbpaMy8ezoF8QY5YdvLjH/94LebJfW5xD128KLfZbL5UrVa/snfv3q/ffffdS2eE6U7zQzYscQKHGz75yUse/8EPv+h53tXFYnGEWhDjnVnssxhmlic6ETHP97///WZqaio7xvgms8swoOi24ODibhcYGCBQxj+pRcnXmvUSBnnCQ1216qrtZWmqq/bsdtXaYaBXmwQnDQF8l297Qln0vCFTFh8m+UA24kMPHQkTZcAti79V6zFTjF544YXM2oQMZh1BxJCX2bampvvsdru9GPjBn5+/Z8+X/vv992+oTQ8k925o4rz33nsL3/2rv/7l43Nzny1XKpemaerRIuS6oThqZ+4GdC468YMf/GBmfSLg3X17yqmvFbO1O5QHcuT6TlidTCDis+zBnach2powiZqEK4nXLiNPc89zXfW63mUN57l91tuWXpaFq90sV5ODTrXKeo0lOU5c3g6bgNfrynNZaHY9+o0/F/n3K7fXGHc9/2y0OF8rcXJjF+78wxgl5B4+MCJAcJCXuBYykstMmEApx51cC8/komeeeSazNkmmkItccsId2+I0wel2pxP93y3nnPP5chg+8Gd/9mfdONcG/NvQxAm899966/ZnH//RpxbmF35tdHT0XJkpRosTcUr47TEokDT0tre9zXziE58wb37zm7MlKrBQGceUazZBltKdwbgmnsvBgbKpnckYKAUJ77fXY3EwkpClJugaR3kC1WWR9BJYdtkusnZZx72EVj8BqcTZe7G6i3TyiEv2l2bVnlQ6+imaxFjiaiuu61Eoe/WVS7lwzaU8hYYygrKA3ihZd3mvLVNcdeNbTegqBVmCJOGShYXJGCTffMLQFb1wJD48V7pe4X2Dq/bRRx9dW55CMuYYRf3b0eqaTWPiVrP1/Ynx8T/au3fv/9qoLlqOkQ1PnGjIRz/60QuPHj12S7sTfzhNk2zXYWpYUaeVDRAQHAYFvuMdcUivRszzuuuuW9tujySG+0F43BCBmbcYLPgD0ZJUubkCSNl24+Ja+fYVGWtY64DVLF170lIzpHDMIyclzpNvvrEtsn4KhC1EXYLTPmaXqes4+yf05JHH2WBx9vPk0F2KcWUTJ1cB8JyUBa55b8cycT3yOeBuheGAD76D4OhFg/cM8oyrEmihonzIO8hRuccs32qCWCaWnKAcbn4glTqSuB8GJjUmabdbj41Xq/ddcN4F3/njP/7jOZdxsJGODQVxAvDrr79+z4sHX/50vVb/pWKxuIM7XoRBN4bGgDYGCjQu/M3NzZnLL7/cfPzjHzfvfOc7M7Kk/x4DiYuDuVkC/f8YUPTl85iLQHEfyZcDkFokk5g4KKnh2YPHJVzkNXKyuAauizzyCKKfe87W2l0atv28fkJTXbVdxF6NR4HXqsV5ErvXq8XZaz7wHC1MerTsOCTntcsr5bJKeR3uw6YFIEsm8ZCopfyhtUlZhN+QfbgHsg4yEecg67Ab0BNPPJEZIjBC6Hkj4a550ECX3cSkuNFsPjk5Mfmti/bsuf9rX/va4Y1EkHl1HRriRAN/+Zc/9oZjxw7f1Gg2fsn3vZ2ZVuWbrPO56QFcE0y9BoFCI8O5t771rZn1ecUVV2S/4YYgKXEwYJDgj3FRpmlTe6OGyPRuWq0yI5frn+xJ4poULiLrR0x5btY8ApZkq8R5cprYSkiekqAWp1qc651zefNLumbt8USlPU+AM0kR57k+nTFLGAsgP6ms0/UqxzNkIp7DXYJwP35znTvkHUJaWJsJY4NGAN2/lGV052Yu3cAH+TZazeaj5Ur5Oxeef+G377///peHgTTRhqEiTjTohhtuuOD551+4sVZf/pVSuXxeGnd8plaTQOUSFGaOcY0nXoCNzFu8oBXXSQsUA4NkicFEK9bWEOXyFgwqECdfYYbn4XpmAGedsLqLh7Qg6KrNI8o8DXu9k1iWm2ft2GShFucrX+CtxKnEud4592qIk0o744pSNsj4I+OKkEUwBECU+M7t8CB3KI+o+HN7Usotes/ohoW84vIUvBaMHx5nXTJDobO685rvrXnhUE4njmqNZuOhme0779+6dev/ue+++44NC2kOJXGiUb/2a/9x57FjL113Yn7ho56Jd4+MjFRIeBhYzB6TmhNduyBQZNyCQK+++mpz2WWXra3jlJslsDwuV2ESkL0hvB2jpGYn38iC+pBQJZHKgdYrHuciwTwLyR68anG+8o0vLgVBLU73ekyJS56HpJ+7Pm+cuxS3POXt9e6qtest3e2cg64YJ+6joo3rIF8gc/CBzELcEt+lK5YeL1qE9jp1lolyubsP5Q9IF9cjiRIbGcDC5GYGcNUydwR1zfI3om4uCJab4DeOR1F0wi+ED4yNjdz3M2/6mb+bnZ1dGSbSHFriRMN+8zf/y9ThowfedezIkd/wPO8qz/M2y4kIjQodDSuU7g4s/MVxDBocR3zg537u57Jdh6666qrsHHz7tBDp2uCgkANU7qzRy3LjpvRMLJJJQTJxwCWgepGgEudJdPpZBHluWVsYu8pRi1Mtzn7jy567eeNIEhq+S5IiYYIg6YolkZFYpezgenSGpfBMqcRLGQayxAfXIoaJNZknTpzI5CINAf6XuwhlzzDdtaBhsbvhe6PReDFJkr/Zdu659/3UJZf8YHZ2dkO99WS9BD90rlrZ8NnZWf+ll1667Jlnn7mhXl9+7+jIyK40TQtcm0kNDgOAVh+zxJjsw93+YXm+5z3vyQiUr8mR7lYKX7pYMDBRLt+0QkvS7hg+G2XhWsZDuUsRLdm8DrUn4Xomsa3hq6vWvVxEibO/lakW5/oxcnmNpBdLEidzIUCSIEj8Z0YsrmNyj0suUBbhP7fEk7FNumZxDoSJWOahQ4cyCxOxTJxn5i03iUFZXLdO9zCezTWfcRwvN5vNH42Njf3FzMzM//zmN7/5zHpJaCNeN9TEyQ759U9/eseLzz777xq15V+K4/iKMAy3hEGwplHJzFZaELiXWbUYSMu1pcwlsnfvXvOWt7wls0SRkdtst9ZcubiHrlsG9SU54zy1Qk4MSYxSq+PaUL7mjETKNjHOwXuoTfK4dAVRu+S9cmLRqiXh02rOy/K1B7nM6nURch6x9yIluxwK5zyXn4z/5FmPsu3r/d7LPS7xlfVzuSt7KSb9iMeFn+vZrnLksbzv/RStfuftcin8aeHY/ezCyh5Tsg9deMrrOf76XZeHo8xKtesm6yHnEI7LhB45n1xjyx7Pco7KEA9drvB8kTDtdd6ynVJJl54PYo+28Q0mOJaRnB9kMgryBeEi7PYDDxsIE9cUy92ldmyTlCtZud2kn6xJWd1TP2q1Wod8339g0+ZN/2Pbli0P/Mmf/MmJjUiGr6bOZwVxApD9+/eP1JrN3UcPz11Xr9evKRUK5wdBMJHnbqXFyPPBKlLcuxb734JEP/ChD5qLLrooi4tiGz+4chk7RRlM9ZYBdU48mbXLCSyJVcYfUA4/3DsX/zmBpTClm0Y+P094uwSbLZhsApH3sN4uIux3LE8o5xGb63oKiV4CuZ/wlwLSVi5sV6xdN6louQR+P2Lsdz5P4OM+qTAMO3G6CJoknUdWWfKK9RIG+9o8wiVRcn7ZWe/yvE2Mdl+gDowh4j4QD5N3XBYl6kTFmc+R5CznuoyLyrbRfUujgM9FMs+xY8fMc889l1mZlEF8G0rqnVTucQ/qmcUwk4Qvn87kUJqmaRiGc512/OjE+PjfbN687butVu3ARt4NSImzBwIf//jHtxxfXLyqtlj7UL1ee3ulXNnp+351bbCnXbcdyeekQI67G8Ibb23LvczNalJzwQUXmDe96U3ZjkRvfOMb195Jt7S0tKa9SQtRLigm8dgTk+RK7Y6WIDU9TkS+VJaEzglHNzIzigkJJyKFrrR4pSYstdY80rW1XJt0egkUlyDsRaQ2udl1yquL/Zw88s0j+fUSZx5G/Yix3/mNQpwcL1LAu4i9Vz+5xs96lSuX8mOX51JspHXlIie2i20hWcuyZJtcoRoq0nztFtyjcL9ybWSvMSo9Oq+IL4pQED1PtuhDPZFHge1FYVmCLGFd4nokFuUpFixvubGSZevS5bvqWkaG7I86nejvds3M/O8wDJ/81re+tSE3a381ZCmvPWssThugX/n1X9+xMDf3luWl+gfiKHpb6nk7C2E4Chcu/riwF9+75BZ3N1IoFNfe4ZmRl+kuUWHa9+7du83b3/72bF3ohRdeuHYt45cogzttYFLwfXb2WlEZ3Kf1KyevFAqcUNRsZVYd6mULBDnpuYEDiVpqsyTpk8qDe8Ntef50WEF5pJpHerj+/xdxyn5wkWA/Yux3fliIM08xcQkuF8HZOBM3u99tApVzRs4DjhnujsM5JscyrmfIRSrS0grFd2kVUl4wDgiLkgSJucalIHyOdDW75ikzY7lWnMTNOqBstIF5G9zljO8TPn78eLacBKSJe7jrGfvDVtxJmFmOR9zd5J2eLd/3j7Xbrad8339wx8yOv9i1Y9djX/nKVxZ+UvLZyPedtcS52mneh6+77tzFY8feVl+qvy+O45/2fX9nsVgcLxYKa/HI7iTrWqK09DgxaOEx6w3aHdy1mzZtMnv27MlIFBYpvmNDZZAbN1JGedBC8Z8WImOfJC1OSjnRJLlRcPA6TgQmD6A+LF+6enke90lLUwqIk0pDt+224LGFDIWRnBB2DMomxV5kKMuxBSLvk1i46tfveb0sSvkMl+BfT/36EWO/8xuVONejzNiYSnLMw9s1XuQ4tPubiTA2gfJZ9OTYfS1j/vjOeW7HFeniZGYqiIvfudmKa5zIEIskbRIjQzZcK465y7bI8nCe90CuwLLEEhJ8IIcw/ymbuHGLVJKjpOtJk54oYsU6xmk63+l0nvCM973NW7b87a5LLnn0ni9+cX4jE99rrfvZTpwZfh/+8IeDSmV6W6OxePnc3NyHGs2VN5WKxfM9z2zyPN+XxMmMMwwuvjCbwXZoZsxG4yvIYPGBMN/whjeYK6+8MvvAKsUxXAvNkCQpFyhzcHOySFeMLVSkm9ce9JhYJBRaplIIYGLRuiZ5Mz6C33QV2wKpn2BcjxDMIzWXQO1HnD/p804HcdokznbZZbuu2+jEScXLRWjr8QKsp69dGPVSiKRQlGTDOSXdn0wA5JjHNZxD+E+LjwTJDQboauW6R84TOXdojdrEKevOrHoq5Hg+lVcm98hcCMgaaSVi3TlkDC1L/IfsQf1QV2kNC8txbVOEoBCuKc6WOzpJkuREYswzge8/uGl68i9nLpp5+J4v3nNWEyb7UonTUj1uuummLS+8cOjipfritUtLi28plUp7wyDcXAj9Ml2g3JmDC4OZxMMBzgnDDd7ppsX95t+XUAAAIABJREFUODYzM5NtrAACxRZ/mzdvzogUkwZEyv1tuZOHrR1Jy8qO0XDwU5Omq4lEJwmGx2xCRX1Jrmyj1FJtopbac54V4RIedl3yiIWCxiWcbeEksbHdxi5hOyjidBH52UacefH7PCLspfzkjYE8C9RlUUhypCKK8U2Lj0vRuLkAd8/hcbnjGMcZiVV6hqQrVyqeqBO9O7QopaXnaj/rietwDxRdxChBkMi4x38cwwfXIB5JZZlyJ0tEKoSnQML5bFKEoVKTeN1VBGmaduIoPuH55okgKPzjxET1b/dccMEjX/7yl4c+U9Y1ZvKOKXHmIHPTTTeNzy0s7Dp+6MjPLywsXp2m0eXj4+PbjDFVWoa4lYF/unNocXJi8D+PYzBDQ6Q1hzWhO3fuNPv27cuWtzBDF+WCQLk5g8uqlGQoCUMKE0ke8hrZbLqHpbUqn8e2MQGJbiMc556+kjxtjdpF/L208PVYIbzmtRLneq0Zu055VmaektOLLOyy8sjA7j9bMehXJ1e5vZ7lUjRcipccK3bfS4WLz6KyYpe/HuJ04ShxcdVFkhruZ1Yr5iRikNKVyfwDYiuT5yS+/E6LUT5XeockiUpLl3WSskTOZ57HXANBYkMCLhvBb1qPJHW6YUnMtJzX6re66bo9ZjzTddMmnmlEUXSk04keqVRKD527a9ffnLtt24EvfelLi6+GUM6Wa5U4+/T0Zz7zmcrzzx/ZvtJeumJpaeFqk6RXGWN2VSqVqSRJCr7prgeVk54xAwbsbStITuQo6u5cxGsRG4VbFxbp+eefny15Yco6yqFLh1YiJoyMj3ICoUy6bGTAXy53wXFapNJNYws4Cg9ZDoWAJHaZnMTj0Og5mfmfWNluZWr+UvBAeaBAcdXRFvy24JT3UONnf9DNaJOBHBJS2LnIXhK3iwBtq4sCLa8tdhn28+325pER20jPQz8Fgdfb00ESh6v90mLPw96lsNnEZOPhwtImBVspJCky/4AEScWQ8Ue6Ozke7HJsskNdWAbnII/REmQ/2WPa7m+pSOD59FZx7GPeIDYJSxJZ+YxVMvmQ13NO+H53/rueg2s6q14uuw9WcyvilVZrwTPmBWPMv4xWR7+3Y2bmoc379h3+8m23Nc4WEvxJ2qnEuX7UvBtuuGHriaUTu48fPf6zUSd+a7vT2Rf64TlBEEwWCgUPgx9ExElla9+2EO8O5ngtpoLJR8LDvZis09PTZseOHZlFeumll5pdu3ZliUcgUwx+aJ+czCRQPIduJdZHCkZJ3C7BLK9lDIgTVU58TvY8IUccpMXKBCVOdmrOVAhskuVyGtcziJEkE5sE1yv42Vf2c2zCsZ9lE5l9fZ5V6CIhiburHrJsfneVL++1rRx7uEulz1Un13INW7Gw62pbeGyXTawox7bopIBnuSQt/meGKX7zXZLS8uJ51oNj1h5b+M29qyX52DiwHlS0JEnK5CObgElm9pyRCiLwZ0IP1lfiO/ex5tzF9Vz3ibrRSu1ax10XLOpELDn3s3qL5D8RvllKkuRIHMdPjY6P/dM5W3f8wznn7Xz0v37hC0fWLw7P7iuVOH+C/ocVury8vOXwsWOX1xdr74ri+Mokji9I03SL53lVaTFR8HCy2YKhVOwG56UA5m9ORO5ji8mDF3AjRor4KP4zWxf76vJ1QIh3wFLDRGLWLicxBS4tVrlOtJfWLzVpWV95DwWVPGa7omy4KVRI+vZ/Kgasr7Q6pECm4OMxliOTo+z2oSxpkdnEJEk4T/EA8bNcWzGikJPnXcRgk718lgsvF4HaxM/fbJ9NynnKhl0/OX7lPS4rjeOiV/2pgMmxYhMiBT+OI2YnFUGSDu+XyT84JscTvnN8y7FCTHm9JDbiRiJyLdeS92F+8VpbcSV2xApzAaQIckScEvkMWFcpl4+hLkwOksQv6yy/dzrd7fHokuX9WDgm6+P7fjNNkxOdJH2hUAgfntw09b2pTZt+uG1q6tAdd9xR+wnE4Fl9ixLna+z+/fs/O9FuH9l++PDRfbXa0tuSJL3EeN5FQeBvC8NwTO4cJCcEhRDeFyqXhsjqYOJQMHBy4Lfcfg/XbN++PXPpYt0o4qXbtm3LdjKamJg4RZAw4YeTSwoaSUh5k5QKgRQ0vSw6F9nY5Oq6X96HdktLgcKA1xA7EqsUnHQdS21cauc8zr6QpGEPC5e1lDd0ZHk2qUoBTmVGXt+LvG2ClWRpl+GyRF3X5ykHPG57JKQ1SULjszg+5DiHMifJUl5jk6AcGyzTDoNIcpb424pBHlZsD+vI8Uf8bNy4ZR3nCttC7xDu5zpNkjSOMQ8A7la6XhGnxG8uR8N1JGZb6ZJYyHEp693dJ7b7RhJZv1XAU8/z6q1W60SSps+XisUnKuXKw+ObJn6wa8eOp++6666hes3XaxTjr/p2Jc5XDVn+Dbfffnv1xIkTmw8dmts3P3/iXXGSXlEsFS8waTptTDpijFfkBCEZmFVXLV1NOL92btVdy2PSRcM4Kl2fsDK5HAauXJAp3LwXX3yxwfaAiJeCUKHB40+6Rm0rTQo0W4PnJCXp0JUqJz7vwTXS1eciH5tIJXGgHAo2u3wKOmYuS/eZfD4EjSRblk+ilWTCNknhLF3dtquPzyEZu87bFl+egLfbnSf4XcddZCvHmSRvm/jokZDKkux/2b9si+wLecwmTpRpu4LZb/YsksqY9M4wRixxI3lxHNtlyTFFxTNvHHN8So8GyiNB8flUwnA9NzKgx4IJfyBIZryCJLkFJ8eFdDlLDGWfsJ08xqxd1IleFZSzFqdNuso1tsrzfT9K03Q5iqLjSZo85QfhDyul8j9VqyM/mp6ePlIqlWp33313N2lA/14TAkqcrwm+/Js/9alPTS82GpvnXjq0t91uXdXudC6Jos7uwA+2BmFYDfxgxA983zPJKUQpJw4nL+OMFEIkTU4kurZIsIyTkhzhrsTG0dVqNVv6gjgpEpBApHD3QhCAUOXeuCQP23VKoUqykJq61Hxt600KTCnY6OqUgl5eS6tMCktX2XY9eI0kbtlbFKS2K88uW7py5Tk+zxbskgCkFSiP2/Vw/Zb39iLRPCKSZClJUeIoy5Vtk/2DsZSn3EjFwW43yS8PXxfZ2/WUZCEtX9s6k+2wXfmyvTZZ4RysP2khy3GNNpGg6ArFeIXVCILEf7xRhC+qZ3hE9h3mlT022XYcx/wiofLZUnGWyUD2mEB7Ai9sttvtWieOjnmeea5UKj9RrY4+NDU19cjY2Njhe+65Bzv7vHLLrwHJvbOlWCXOM9DT+/fvn6jX65O1RuP85srKm9vNzmWdTnt3FMc7Riql8TRNx4wxZZt48BuTEROLrloKchmjlNq41F6lcML1fPcojtPChTsXa0jh4sUHLl7ES3EMZIvzMoZC1yjdvpI4bChdQt2e/BASss62gKSwc5HWesrPIxZi43JFSmErXe0uIZznqmb5eTFGlmUrCTah9Dtv198mWTk21kP8tivURVJ2OXlEhrrkxbjtdrnqhvsZQ7Tr1W/My/OucUlysrNaWWfMO8wXWI6Is2OjAcQmuZUdNw6RrlY7FENlwrbyZVvxfF4n3chcvobn4Tx+ryZCJZ1Op9FqtZY6nc7LXuo/s2nT1L9Obtr8cKUy9uPR0fDE3Nzcwtmy2foZEN/ORyhxnmHk8ZaWZtOfajSOb1lZae2p12u747izO0m8NwSB2RUEwSZjDIg0yDTK1def0S1Eq5LkJ5MjpCbLZpHYKKglETFOwzJpXSLTEISJTaBhlcJKhWWK73D/4hz34KQ1TEK1BRY3c3ARuq2JS6tF1tMmE9tilYQmBTKuk8+Q5ctudwlxGz8p7CSWkrjWS+69nu065yJP17CVSolNqPKcqzxJfrIdvYjfRfIunHq1ySZ2Xsv60KtiH+d97GP+tsMBkhg5buiSp/IJYoQFCWKEuxUfWJMgLYxv5hTIcArHAF2ptmfCnm+uublWd7hZjZe5W02SZvtfe6nJfheCEHvGtpIoXkrSZC5N0uf9Yvjc9MTUY1NTUw/PzMw8t23bthM333yzumDPoCxX4jyDYLseNTs7Wz58uD4+P39k6/z8sYsbjZWf6nSifYlJLzRpuq1UKo2XSqVyo7kcMFGGQiUjrSjOiiWxUmBCE87cbKtOml5WnXT9ShetjIPifpSJDyxRZPeCQEGoIFZYq7BUcQ7XcPcVvp+U6zopQNaek3Zd1VIQ5pGmi3xlDIvWH92DctekPPJ1KR7yWjur1GXJSFKyn2OTum05SWLqR6gSI15rEwWP2wSWVw953H4+ypDKR17ZkojteuURMo9j/J4yNoVXEccxbk5RCEAqqy+JD7zuuyHTuDt+aPGhDvSIoH/hjkU2K0kR1iM+IMbF2tIpFh89IHLDEoxnPNM1vuzxIdvCOtnKHNueYWt804o6pgiCTGITen4cm6TVbrQapZHKQnulcagyNnqgWCj98+SmiUe3btrx3JYt1cV9+/bVPvKRj3Qnv/6dcQSUOM845L0feOutt04uLS1tmpuf39FYql+6vFy/rFAqzTQbK+cVy8WtJjXjQRCU0zQtoCS8mJbCDZNYJjFkWXd+96W0FJBS+MrEDlpjuI4xUwog3stEGxIS15FSWOA+xHRAqiBR7IqExCSQKSxVWqt8TRHuK490X1kkyY4bQkiSkbErm0Cl1cFztnVpH6d1TVcZSWJNoK+SuSu2Ji1eSSasr6w3y3WRIsph+bKPXOTrImxcJ4nTtipxju2zR51N9nymbTXnueJ5HWN/LsWH9bPbI58N8pN9BStL1gGeDWKUKXhBN9kLVmD2nsgoNq1GMyNBWI74gCDxH+dhRTLmT+JjElOGid/NSJX9yPHO/pEJQqgbNxmRfSbdtBxbqDfHta10ZGPWMyYxfhRFUdMYs4SknkIhPFguVV4ICsHT42Njz4xPTR3YPD5+ZGnPnvn7PvGJkzutvM7k1tlWHSXO13GPY72o7/ujcRyPvfzyy7tWWiuX15dXdqdRPBNF0fYkSbf6gT/led5YkiRlZkCC2CRhZvLBX9XOV99eD5dQJjD87hCQWaYy2UguwrYFiMw8lISDe2hhkmT4fGjvSFKCtQpCRfYvhCOO4QP3ML+DYLnwm3WyCZFp/xSKtnYvyZ4kI7MbSci0NGQ7KPhsQpJEILN+bUKXxGFb0bYgzSM2V7vktVJpsIW/TYLS0uG1dgzXVY880pYWaR6BSxemnYSTWWSma8nhLR0cp8QNZeKVWJnF2GxkViNiiyRJHK8v1dbWUUrlinWWMVKpAEpFim0+hVCRUbO6DpRjjgQu+zkWHhM5dvCdiqy0hJMkQeZrHUTp+d7RKEpfKJXKL1Unqo9XyuUfjU9NHdw6MbGIDNjZ2VkQqv69DhFQ4nwddkpelWZnZ/1yuVydm5sbX1hY2LRQWzhvfn7+oihOLmitNM4LCuG52JA+SeKR0A/Lvu9n7xyyhVrm1jWrmralcVO4kBw4+UksUshIa4TPkESJ79D66faCAKI1STJiViGFFv6DXEGmSIYAeeI7iBaWLKxYkCuO4zosveGeozhO1zAJB/9p0ZJkpEVAASstv1MsoFVrXZKl7B9pUciybBeqJDjbirWJSf6WxGPXAWVSsWGdpPXEvpT1Iu6sn9yZSRItnyUtcjk2bJK2E2NIYrifbwoC0eGDMcG1jLAW8bu+ctJiBEHig/tYJxAU+w3PpiIFBZF1lUoT6yqVQF4nCZbhDyoBHIf2WMFvnpN9Gxa7GyDYbuLVPu4EQbCSJEk9iqJjUSc67AX+wZFK+cBYdeKZkdHSj3ees/NwYevWpZ++8MK6ul43jjBW4tw4feWs6b333ls4dOhQ9cCLBzYtnljc2Wl0LlhuNM71jJnxAm9Hpx1tTZNkyvf98SAMRgLPLyVJEqZp6mcaf/etadmftIqYlAHykpo2idgWvFKQSsEvtXObECiMpGC3k0GkxSXJmWTMdZwQkEhqAsniAxIl4eI4rFvu+StjsFyTx5gs9zll+f2yZpk1areTQlruBSwtV0lqLkJcI4zVfUjlNRJHSWw2cdiE7OoLeY9dPzyTrn+uF+ZLk+lRYFIYyE9agyQ+/KcHgteiH+nhkFm30gVOksJzMvILuyEJ4sDzcSc6JUbK8yxLegTYPo47eiOoKMnnkzjlf1kmywoKYRxFUSeKonaSJI00TWvGpEeN5x31Uu9ooVh8dmS0fGCyOvnC6Ojo3OjoaK1UKq3ceeedK7pMZOMKXyXOjdt3zprPzs6Gx48fH6nVaiNJkoy32+0pbA9Yr9d3tTqt89I4PccYs9X3/a2e520pFApjcRwXETP1PK/g+74vrRYSmRQqUohL60kKJmr6MkHHZT1JYpLPoNCX6zClps/ypWBEvbh9Ga0TaUHIWBkUAiZ9gDQlmXInGPynqxj/+YJivlYOZcOtTGuDZCutHFojFNYkTElisiPt45IsbMtRuhBtN6VUMvCdyTLyDTfECucZB+R5JobRFU7i5H9JmFLxkpYn3ZUkSlp1cnwxXmhbjRKHrC1eV7HjGOLzi2HhFOK0lQWOH5dV6rLOpQKI7/SqrLYBbtY2ln9iVx4/8I80Go3DYRjOBWHh4MhIeW6sOvF8dWLiYLHiLYRRuDw2NrZ85513dl+6q39Dg4AS59B0Ze+GIF6aphOldKRdahyrjS0tHd28sLR8Sdxp72q3W+dGUTSdJOm053nTeHWa53kVz/PKYRiWkYOUJIknLU8ZD7IJz+UKk6QnhWIh8Nc2gLDdZfgNQS1jqbbFS+FGy0D+psVku9lk/Uhkslzb7SyvsQWr7XaVJILvIFz5fNuqsXstz0KXz5XkYFumtru1VwwW18IFKtvH50uCksekSzJrX3ByHaJt8ea1TbaRsc280Yv3SMr4ux2HTKKTiW8uZYRZ0/I+qXDgPfWSQLttSNue57c84zVa7VYjDIIV45kTaWKO+WEwVy6XD1RGyi+UwvDpiXPOOTFRKtW8bdsaY8vLjdnZ2S6g+jfUCChxDnX39m8clsMYY0YWFxcrtVptvFarnVuvN2ZareaOTife3mw2toQhEpD8Sc/zpowxo6ukWjDGC33fK9ikagt//pauQAorLz11g/s8gnARDgUg1+rZViZITe51i7K59Ea652yyk1aefU62weXmtEkWdbDxcJXZy81qW/uyV6VFxGevYSvWsUpr7xSiWM1ixb3SY2CXZbd1zSPgvdLVz7JkebblvNYGv7vWFh87Topj7WjVVeufzL7FvUzwwoskZd3s51ChsvFNkiTGS5uDMMT6x0aaJPU4SRdMmswbzzsShOHLoe8fLJXKc5XKyEJxtHSoEoaL1Wp12Zg9S3ffresm+0uX4b1CiXN4+/a1tMz7rd/6rZHl5bDYaCyVfL85srC8PNlZae+I485Ms93e2Vxpbo2TaMT3/Kk0Tac935tEHBUJSZ7nZa7fVUs1JHnRbQY3G7/7q3ErCEKSTGYJrb7ZhRZdlikchmvr6Zi0VCyefB8pCUZajDaRyd8kE5usJbHZAtd279mEZAtxaZG6OsRVnk1a0lq324PnMUGJlrSL+G2yluVIxcb1LFqfbJskaz47T4nobkTe7TcSHjHBcTumTSUIhGk/V9Y5Srrrf/20u28rNyLAczqdTuL7foyvfhBGrWazUygUGu1OZ9k33kIcx/PFUhEEOReG4eFSoXhwfHziYKkUHE+SYm1kxF/2/elmqbTS1L1dX4sYGd57lTiHt28H0rL9+/cXwjAslUqlYrlcDpaWlkZqteam5WZt6/LS8kyz3ZiKomQyTZLNxpip1Jhp3/cmok40FvhB2Qu8QpqkxSAIYKmGvuchLRIvFczWpcoF5RCiFIgQsJI4mQ3abjfXXuJLd5x0V8q4qu3GdJGJJC0IYZcr1nYJynL5nWVL4e+0uK3djWzr3EUeNtHzGulKZ93tGJ89KFxWpsSMMVpa6MRHkrStPEh8SJj0BrAculCRuCXbQwsRLlzUnclPgmATz3hR6ntY09hJo7QdhmGn3W5nliNij3EUrwRhUA98b94LguNpahYnJ8efKRUqRyoTo0fKvr9QrVZXqtVqc9++fQ3NZh2IqBjqQpU4h7p7z3zjsGQGrt+aMeVkcbH00tzchEmSTc1mczKOoqkojqdarc50miSTrUZjvFwqj6RpUo2iKHMDh2FQSlODzF+8SSazWn3fD+M4huUapGmK797Jt3asrkcVrka0mpaTtCqldZdHfrg3z/WXh6btkrTJup+lSbK1Xbq2BWkTfS/rl+2QZG1bq9nzVmPMNoHadSKhSbdx5l7FVnGrrlb5LFebcK9cj4v6IBkps2CxGUB3jWNGiL7nYXf5LGM1TdJ26plWakzDGG/Z972aH/gLgRccjxNzZGS0ctxL/WOlcuFEZWRkIUyLy6WJcnPE95ulUqkdBEHrD/7gD1Y8j/tonfl5oU8cLgSUOIerP1/3rVkl1uJKpVKIG41S69ixYqvVGqvVaptbrdZomvqjzWZzot1uTSVJMpkkyUSaeqNxHI2EYVA2Jq20251xz/NG0zStBIGHzfEz1zDdw76P9850/4Ig8JMkwdIbzxVnIyHkWWKuTOBeIEt3sbQASWR58U6Smu3ytJNhpLtUWsQ2edOy6+XuxDNh2VG5sJ+F8mVWtEuhwM4/tkKyis/qu5RjJMvEnudFiCtim5w0TVtYuhFFUQMu1DAMlxPPLBeCoB6bdDnwvMVCoYCddJqFQqFeDIuLQam0VCqVTpQqlVrJ85aDIFiOR0db505MNGdnZ7G0Q/8UgTOGgBLnGYNaH7ReBECux48fL5RKpTCKosLKykrYbofh2Jjvt9vtcHm5M5amrbFGozPWbq+M4e0ySZJUO3E81um0ptpRVE3TtOQbU/b9sJzEUTlJTcX3vQrWsqZJCv9gZs3Sql3dVD8jXDBsmia+MR4INzCpCbr7RXT/hOXmRVG0tnyHMVoSEInTdqUSB3vzB4mPJGBpPdrkxXijtCZdrmqHVZiljwYBjPhMq0h930/wHQQHox1xQuN5yN4C+aVx14zHNRE41/O8Tqvdavue3/Z8r2FS00yTNHOZZp/AW/Y8rxUYf6VULteDIKgHntcsl8vHKpXKfOL7K5VCYblYLK4kpVJr1Pc7lUqlXS6XYXVGi4uLwDeZnp7uaLbqemePXncmEFDiPBMo6zPOCALf+c53ggdferBYPFIs1uv1sBWGYVKrBU2vWYjrcSny/XLUblc6nU7Ji+OiF3rFKI5KSWRKcZKU0jSqpIk3kqZxEWtb4ygpeb6pmtQUU+MVkzQpeBmZxl1CNaYQFgqB7/lBmqR+FEcZGYdBUDBY52BSH25lz/cDz5ggieMQ+6bDCgYgSZoIHl7NDsWWiF3rePXPz9ZbIO/U92C5+TjZvcaYBAacwUtdUw8HMhIE92VE6vsdk5oInJcaE/u+1/GMH/meiVKTRsbzIxjkcRQlqTFR4PnN1KStOE4bvo94YdCO47gZBAGyTxFLhNszCoxZgfvTL/jNYlBsFotFQA1XaBtk6/t+u1gsRlElikbikahYLMadTieamJiIH3vssVhfeXVGpoM+ZIAIKHEOEFwtemMhAOJ9/PHHQYggNn9lZSWA5QuiayBdOIpgAWWfVtfUC4JOxzerCS5p0igmjSSMfL/gRxFIM2MR3/Owk3cQx61iFGUL+Ys+HMgJrNoQsb3MlQy0/IKfFLywS5Zp6kUmNn6aJGkaeMWC3zEmAGmC7II4SdJisQgLMPb8OE2TICNMFFws+X7RK7aCSqWDRbhJGCZBEEdBHESmUokRRMYfdlNaWlrCGt3EG/PiSlJJgiCI4zhOJifhKU8SfF++eDm6d/+9sDL1pcgba1hrbQeAgBLnAEDVIhUBRUARUASGFwElzuHtW22ZIqAIKAKKwAAQUOIcAKhapCKgCCgCisDwIqDEObx9qy1TBBQBRUARGAACSpwDAFWLVAQUAUVAERheBJQ4h7dvtWWKgCKgCCgCA0BAiXMAoGqRioAioAgoAsOLgBLn8PattkwRUAQUAUVgAAgocQ4AVC1SEVAEFAFFYHgRUOIc3r7VlikCioAioAgMAAElzgGAqkUqAoqAIqAIDC8CSpzD27faMkVAEVAEFIEBIKDEOQBQtUhFQBFQBBSB4UVAiXN4+1ZbpggoAoqAIjAABJQ4BwCqFqkIKAKKgCIwvAgocQ5v32rLFAFFQBFQBAaAgBLnAEDVIhUBRUARUASGFwElzuHtW22ZIqAIKAKKwAAQUOIcAKhapCKgCCgCisDwIqDEObx9qy1TBBQBRUARGAACSpwDAFWLVAQUAUVAERheBJQ4h7dvtWWKgCKgCCgCA0BAiXMAoGqRioAioAgoAsOLgBLn8PattkwRUAQUAUVgAAgocQ4AVC1SEVAEFAFFYHgRUOIc3r7VlikCioAioAgMAAElzgGAqkUqAoqAIqAIDC8CSpzD27faMkVAEVAEFIEBIKDEOQBQtUhFQBFQBBSB4UVAiXN4+1ZbpggoAoqAIjAABJQ4BwCqFqkIKAKKgCIwvAgocQ5v32rLFAFFQBFQBAaAgBLnAEDVIhUBRUARUASGFwElzuHtW22ZIqAIKAKKwAAQUOIcAKhapCKgCCgCisDwIqDEObx9qy1TBBQBRUARGAACSpwDAFWLVAQUAUVAERheBJQ4h7dvtWWKgCKgCCgCA0BAiXMAoGqRioAioAgoAsOLgBLn8PattkwRUAQUAUVgAAgocQ4AVC1SEVAEFAFFYHgRUOIc3r7VlikCioAioAgMAAElzgGAqkUqAoqAIqAIDC8CSpzD27faMkVAEVAEFIEBIKDEOQBQtUhFQBFQBBSB4UVAiXN4+1ZbpggoAoqAIjAABJQ4BwCqFqkIKAKKgCIwvAgocQ5v32rLFAFFQBFQBAaAgBLnAEDVIhUBRUARUASGFwElzuHtW22ZIqAIKAL43vkkAAAAvklEQVSKwAAQUOIcAKhapCKgCCgCisDwIqDEObx9qy1TBBQBRUARGAACSpwDAFWLVAQUAUVAERheBJQ4h7dvtWWKgCKgCCgCA0BAiXMAoGqRioAioAgoAsOLgBLn8PattkwRUAQUAUVgAAgocQ4AVC1SEVAEFAFFYHgRUOIc3r7VlikCioAioAgMAAElzgGAqkUqAoqAIqAIDC8CSpzD27faMkVAEVAEFIEBIKDEOQBQtUhFQBFQBBSB4UXg/wEoigcdsSvNHwAAAABJRU5ErkJggg==;fontSize=12;" vertex="1" parent="WIyWlLk6GJQsqaUBKTNV-1">
          <mxGeometry x="448.34" y="500" width="51.33" height="57" as="geometry" />
        </mxCell>
        <mxCell id="_KfjAwDsVdILywckYRa1-20" value="&lt;font style=&quot;font-size: 12px;&quot;&gt;Update&lt;/font&gt;&lt;div style=&quot;font-size: 12px;&quot;&gt;&lt;font style=&quot;font-size: 12px;&quot;&gt;&amp;nbsp;Latest&amp;nbsp;&lt;/font&gt;&lt;span style=&quot;background-color: initial; font-size: 12px;&quot;&gt;Config&lt;/span&gt;&lt;/div&gt;" style="rounded=0;html=1;jettySize=auto;orthogonalLoop=1;fontSize=12;endArrow=classic;endFill=1;endSize=8;strokeWidth=1;shadow=0;labelBackgroundColor=none;edgeStyle=orthogonalEdgeStyle;entryX=0.5;entryY=1;entryDx=0;entryDy=0;" edge="1" parent="WIyWlLk6GJQsqaUBKTNV-1" target="_KfjAwDsVdILywckYRa1-7">
          <mxGeometry x="0.0071" y="44" relative="1" as="geometry">
            <mxPoint y="5" as="offset" />
            <mxPoint x="474" y="500" as="sourcePoint" />
            <mxPoint x="429" y="520" as="targetPoint" />
          </mxGeometry>
        </mxCell>
        <mxCell id="_KfjAwDsVdILywckYRa1-21" value="Network Storage" style="text;html=1;align=center;verticalAlign=middle;whiteSpace=wrap;rounded=0;fontSize=12;" vertex="1" parent="WIyWlLk6GJQsqaUBKTNV-1">
          <mxGeometry x="426" y="555" width="96" height="30" as="geometry" />
        </mxCell>
        <mxCell id="_KfjAwDsVdILywckYRa1-26" value="&lt;b&gt;Generative AI&lt;/b&gt;" style="text;html=1;align=center;verticalAlign=middle;whiteSpace=wrap;rounded=0;" vertex="1" parent="WIyWlLk6GJQsqaUBKTNV-1">
          <mxGeometry x="705" y="216.5" width="90" height="27" as="geometry" />
        </mxCell>
        <mxCell id="_KfjAwDsVdILywckYRa1-27" value="Classification" style="rounded=1;whiteSpace=wrap;html=1;fontSize=12;glass=0;strokeWidth=1;shadow=0;" vertex="1" parent="WIyWlLk6GJQsqaUBKTNV-1">
          <mxGeometry x="689" y="495" width="120" height="40" as="geometry" />
        </mxCell>
        <mxCell id="_KfjAwDsVdILywckYRa1-28" value="Extraction" style="rounded=1;whiteSpace=wrap;html=1;fontSize=12;glass=0;strokeWidth=1;shadow=0;" vertex="1" parent="WIyWlLk6GJQsqaUBKTNV-1">
          <mxGeometry x="689" y="560" width="120" height="40" as="geometry" />
        </mxCell>
        <mxCell id="_KfjAwDsVdILywckYRa1-30" value="&lt;b&gt;Other Services&lt;/b&gt;" style="text;html=1;align=center;verticalAlign=middle;whiteSpace=wrap;rounded=0;" vertex="1" parent="WIyWlLk6GJQsqaUBKTNV-1">
          <mxGeometry x="704" y="460" width="90" height="30" as="geometry" />
        </mxCell>
        <mxCell id="_KfjAwDsVdILywckYRa1-35" value="&lt;div&gt;Generative AI&lt;/div&gt;" style="rhombus;whiteSpace=wrap;html=1;shadow=0;fontFamily=Helvetica;fontSize=12;align=center;strokeWidth=1;spacing=6;spacingTop=-4;" vertex="1" parent="WIyWlLk6GJQsqaUBKTNV-1">
          <mxGeometry x="570" y="365" width="110" height="90" as="geometry" />
        </mxCell>
        <mxCell id="_KfjAwDsVdILywckYRa1-39" value="" style="endArrow=classic;html=1;rounded=0;exitX=1;exitY=0.5;exitDx=0;exitDy=0;entryX=0;entryY=0.5;entryDx=0;entryDy=0;" edge="1" parent="WIyWlLk6GJQsqaUBKTNV-1" source="_KfjAwDsVdILywckYRa1-7" target="_KfjAwDsVdILywckYRa1-35">
          <mxGeometry width="50" height="50" relative="1" as="geometry">
            <mxPoint x="420" y="380" as="sourcePoint" />
            <mxPoint x="470" y="330" as="targetPoint" />
          </mxGeometry>
        </mxCell>
        <mxCell id="_KfjAwDsVdILywckYRa1-40" value="Yes" style="endArrow=classic;html=1;rounded=0;exitX=0.5;exitY=0;exitDx=0;exitDy=0;endSize=6;jumpSize=6;" edge="1" parent="WIyWlLk6GJQsqaUBKTNV-1" source="_KfjAwDsVdILywckYRa1-35">
          <mxGeometry x="-0.2308" y="25" width="50" height="50" relative="1" as="geometry">
            <mxPoint x="420" y="380" as="sourcePoint" />
            <mxPoint x="680" y="290" as="targetPoint" />
            <Array as="points">
              <mxPoint x="625" y="290" />
            </Array>
            <mxPoint as="offset" />
          </mxGeometry>
        </mxCell>
        <mxCell id="_KfjAwDsVdILywckYRa1-41" value="" style="endArrow=classic;html=1;rounded=0;exitX=0.5;exitY=1;exitDx=0;exitDy=0;entryX=0;entryY=0.5;entryDx=0;entryDy=0;" edge="1" parent="WIyWlLk6GJQsqaUBKTNV-1" source="_KfjAwDsVdILywckYRa1-35" target="_KfjAwDsVdILywckYRa1-43">
          <mxGeometry width="50" height="50" relative="1" as="geometry">
            <mxPoint x="640" y="605" as="sourcePoint" />
            <mxPoint x="660" y="530" as="targetPoint" />
            <Array as="points">
              <mxPoint x="625" y="535" />
            </Array>
          </mxGeometry>
        </mxCell>
        <mxCell id="_KfjAwDsVdILywckYRa1-42" value="No" style="edgeLabel;html=1;align=center;verticalAlign=middle;resizable=0;points=[];" vertex="1" connectable="0" parent="_KfjAwDsVdILywckYRa1-41">
          <mxGeometry x="-0.0869" y="-2" relative="1" as="geometry">
            <mxPoint x="-23" y="-4" as="offset" />
          </mxGeometry>
        </mxCell>
        <mxCell id="_KfjAwDsVdILywckYRa1-43" value="" style="rounded=0;whiteSpace=wrap;html=1;fillColor=none;" vertex="1" parent="WIyWlLk6GJQsqaUBKTNV-1">
          <mxGeometry x="680" y="460" width="140" height="150" as="geometry" />
        </mxCell>
        <mxCell id="_KfjAwDsVdILywckYRa1-44" value="" style="endArrow=classic;html=1;rounded=0;exitX=1;exitY=0.5;exitDx=0;exitDy=0;" edge="1" parent="WIyWlLk6GJQsqaUBKTNV-1" source="_KfjAwDsVdILywckYRa1-10">
          <mxGeometry width="50" height="50" relative="1" as="geometry">
            <mxPoint x="640" y="320" as="sourcePoint" />
            <mxPoint x="920" y="270" as="targetPoint" />
          </mxGeometry>
        </mxCell>
        <mxCell id="_KfjAwDsVdILywckYRa1-45" value="" style="endArrow=classic;html=1;rounded=0;exitX=1;exitY=0.5;exitDx=0;exitDy=0;" edge="1" parent="WIyWlLk6GJQsqaUBKTNV-1">
          <mxGeometry width="50" height="50" relative="1" as="geometry">
            <mxPoint x="810" y="334.57" as="sourcePoint" />
            <mxPoint x="920" y="334.57" as="targetPoint" />
          </mxGeometry>
        </mxCell>
        <mxCell id="_KfjAwDsVdILywckYRa1-46" value="" style="rounded=0;whiteSpace=wrap;html=1;fillColor=none;" vertex="1" parent="WIyWlLk6GJQsqaUBKTNV-1">
          <mxGeometry x="680" y="215" width="140" height="150" as="geometry" />
        </mxCell>
      </root>
    </mxGraphModel>
  </diagram>
</mxfile>
